<mxfile host="app.diagrams.net" modified="2022-06-20T14:45:38.918Z" agent="5.0 (Windows NT 10.0; Win64; x64) AppleWebKit/537.36 (KHTML, like Gecko) Chrome/102.0.0.0 Safari/537.36" etag="wLSR33FsgdOBXMf4_wi_" version="20.0.1" type="github">
  <diagram id="OVGxbTdLAXnqadV-Uxx-" name="Page-1">
    <mxGraphModel dx="1422" dy="839" grid="1" gridSize="10" guides="1" tooltips="1" connect="1" arrows="1" fold="1" page="1" pageScale="1" pageWidth="827" pageHeight="1169" math="0" shadow="0">
      <root>
        <mxCell id="0" />
        <mxCell id="1" parent="0" />
        <mxCell id="DFfBJEe4F_XPDWJP51UQ-1" value="&lt;h1&gt;一、初识Kafka&lt;/h1&gt;&lt;div&gt;&lt;br&gt;&lt;/div&gt;" style="text;html=1;strokeColor=none;fillColor=none;spacing=5;spacingTop=-20;whiteSpace=wrap;overflow=hidden;rounded=0;fontColor=#46495D;" vertex="1" parent="1">
          <mxGeometry x="40" y="40" width="280" height="50" as="geometry" />
        </mxCell>
        <mxCell id="DFfBJEe4F_XPDWJP51UQ-5" value="" style="edgeStyle=orthogonalEdgeStyle;rounded=0;orthogonalLoop=1;jettySize=auto;html=1;strokeColor=#788AA3;fontColor=#46495D;" edge="1" parent="1" source="DFfBJEe4F_XPDWJP51UQ-3" target="DFfBJEe4F_XPDWJP51UQ-4">
          <mxGeometry relative="1" as="geometry" />
        </mxCell>
        <mxCell id="DFfBJEe4F_XPDWJP51UQ-3" value="什么是Kafka？" style="text;html=1;strokeColor=#788AA3;fillColor=#B2C9AB;align=center;verticalAlign=middle;whiteSpace=wrap;rounded=0;fontStyle=1;fontSize=15;fontColor=#46495D;" vertex="1" parent="1">
          <mxGeometry x="40" y="103.75" width="120" height="47.5" as="geometry" />
        </mxCell>
        <mxCell id="DFfBJEe4F_XPDWJP51UQ-9" value="" style="edgeStyle=orthogonalEdgeStyle;rounded=0;orthogonalLoop=1;jettySize=auto;html=1;fontSize=15;fontColor=#46495D;strokeColor=#788AA3;" edge="1" parent="1" source="DFfBJEe4F_XPDWJP51UQ-4" target="DFfBJEe4F_XPDWJP51UQ-8">
          <mxGeometry relative="1" as="geometry" />
        </mxCell>
        <mxCell id="DFfBJEe4F_XPDWJP51UQ-4" value="&lt;ul&gt;&lt;li&gt;分布式流处理平台&lt;/li&gt;&lt;li&gt;&lt;span style=&quot;background-color: initial;&quot;&gt;基于发布订阅的消息队列&lt;/span&gt;&lt;/li&gt;&lt;/ul&gt;" style="text;html=1;strokeColor=#788AA3;fillColor=#B2C9AB;align=left;verticalAlign=middle;whiteSpace=wrap;rounded=0;fontSize=15;fontStyle=1;fontColor=#46495D;shadow=0;glass=0;" vertex="1" parent="1">
          <mxGeometry x="220" y="93.75" width="230" height="67.5" as="geometry" />
        </mxCell>
        <mxCell id="DFfBJEe4F_XPDWJP51UQ-13" value="" style="edgeStyle=orthogonalEdgeStyle;rounded=0;orthogonalLoop=1;jettySize=auto;html=1;fontSize=15;fontColor=#46495D;strokeColor=#788AA3;" edge="1" parent="1" source="DFfBJEe4F_XPDWJP51UQ-8" target="DFfBJEe4F_XPDWJP51UQ-12">
          <mxGeometry relative="1" as="geometry" />
        </mxCell>
        <mxCell id="DFfBJEe4F_XPDWJP51UQ-8" value="有什么用？" style="whiteSpace=wrap;html=1;fontSize=15;align=center;fillColor=#B2C9AB;strokeColor=#788AA3;rounded=0;fontStyle=1;fontColor=#46495D;" vertex="1" parent="1">
          <mxGeometry x="520" y="101.25" width="110" height="52.5" as="geometry" />
        </mxCell>
        <mxCell id="DFfBJEe4F_XPDWJP51UQ-12" value="&lt;ul&gt;&lt;li&gt;系统间解耦&lt;/li&gt;&lt;li&gt;异步通信&lt;/li&gt;&lt;li&gt;削峰填谷&lt;/li&gt;&lt;/ul&gt;" style="whiteSpace=wrap;html=1;fontSize=15;fillColor=#B2C9AB;strokeColor=#788AA3;rounded=0;fontStyle=1;align=left;fontColor=#46495D;" vertex="1" parent="1">
          <mxGeometry x="710" y="93.75" width="170" height="66.25" as="geometry" />
        </mxCell>
        <mxCell id="DFfBJEe4F_XPDWJP51UQ-16" value="" style="shape=image;verticalLabelPosition=bottom;labelBackgroundColor=default;verticalAlign=top;aspect=fixed;imageAspect=0;image=data:image/png,iVBORw0KGgoAAAANSUhEUgAAA10AAAKQCAYAAABkehCBAAAgAElEQVR4nOzdd3hUZf428PtMSSYzmUx674UQSgJSpUpTwQV0RVYQQddVlkVxLbiLgiCCu+LKq8tK0d1V1J9igbWhIEVRQbHQpAdCem8zycxk+vtHzJiBtAmZkuT+XNdczJyc55zviTGZe55yBJvNZgMRERERERG5hMjTBRAREREREfVkDF1EREREREQuxNBFRERERETkQgxdRERERERELsTQRURERERE5EIMXURERERERC7E0EVERERERORCDF1EREREREQuxNBFRERERETkQgxdRERERERELsTQRURERERE5EIMXURERERERC7E0EVERERERORCDF1EREREREQuxNBFRERERETkQgxdRERERERELsTQRURERERE5EIMXURERERERC7E0EVERERERORCDF1EREREREQuxNBFRERERETkQgxdRERERERELsTQRURERERE5EIMXURERERERC7E0EVERERERORCDF1EREREREQuJPF0AUTkOa+//rqnS/BaQ4YMQf/+/T1dBhEREfUADF1EvVhNTQ0GDhzo6TK8zokTJzxdAhEREfUgDF1EvVxgYCD69u3r6TK8CkMXERERdSXO6SIiIiIiInIhhi4iIiIiIiIXYugioi6jVquvqv1zzz2H77//HgDw5z//GRcuXGhxP41Gg+3bt9sfH3/8MQDg/fffxw8//AAA2LhxI7777rurqoeIiIioKzB0EREAoLKyEgqFAvX19fZte/fuRXh4ON5999022+r1ekyZMgW33norvv76a0yZMsXp8xcUFOBvf/sbVq9ejVmzZuHrr7/G3LlzMWvWLPvjm2++AQCYzWbU1NTgySefRE1NDVasWAEAyMjIwIoVK2C1WvHf//6Xqw8SERGRV+BCGkTUon379mHevHn497//jRkzZrS579mzZ5GTk4OLFy/i66+/dvpcer0eCxYswM0334yHHnoIAPDFF1/gzJkz+NOf/gQAkEgk9gU/GhoaMGTIEMjlcgwZMgRisRjZ2dnYvn07tFotHnjgAZhMJmzevBlLly51uh4iIiKirsSeLiK6whdffIH58+fj9ddfdwhcn3/+OW688Uakp6fj97//PaqqqqBWq/HHP/4RtbW1mDNnjsNxdDod5syZY+8pa6k9AKxduxaRkZHIycnBBx98gA8++AA//PADsrOz7a93794NQRAAAEePHsVbb72Fqqoq+78//fQTBg8ejMceewy7du3CmjVruBw+EREReQWGLiJy8OWXX+K2227Dgw8+iOuvv96+3Waz4fHHH8eDDz5oH+b30ksvwd/fH48//jhiY2Px7LPP2vc3mUyYO3cuwsLCMHv27FbbA8Djjz+ORYsWoaamBmfPnsXZs2dRWFiIyspK++vs7Gz7sW+44QYsWrQI/fr1w7JlyxATE4Pbb78d06dPx/Tp0+Hv74/p06fjxhtv7NT3wGazQavVQqvVwmAwwGQywWq1wmazdep43YHFYoFOp0NOTg7UajXq6+uh1+thNBphtVo9XR4REVG3xuGFRF5qyZIlCAkJQXBwMPz9/R0eSqXS/lwQBMhkMlitVlgsFlgslhaf5+XlISkpCWKxGBKJBBKJBGaz+Yrz3nPPPZg6dSo2bdqEe++9F0FBQQAahwC++OKLGD16NIxGI1JSUvD9999DLBYjJiYGUqkU8fHxyMvLg8ViwT333AOpVIoXXnihzfYAIJfLAQDDhg2zDy/cv38/zpw5g8WLF9trKy0tRWRkJLKzs/GHP/wBNpsNDz74IAYMGAAA+OMf/4iff/4ZBQUFGD16NMaNG4e//e1vTn/vDQYDtm3bBqBx/pjRaIQgCLDZbLDZbBAEwd7r1vS86XVoaCgCAwPtj6CgIIfXKpXKfg6NRmN/1NXVXfG6oaHBfs6mwNf8tc1mg8lkglQqhUQigVgsdng031ZeXo6wsDAYDIYWHzabDb6+vjCZTJDL5fafn+Y/R82PrdfrERkZ6fDzePm//v7+sFgskMlkMBqNbT5OnjyJPn36wGq12gNuS/+Wl5cjODjYXlPTz/flz81mM3x9fSESiew1N38OABcvXsTq1aud/vkgIiJyFkMXkZcSBAEzZ86E2WyGVqtFfX096uvrUVZWZn+t1WpRXl4OpVLp8KaypX/LysoQHh4Os9kMi8UCs9kMvV5/xXk3bdqEmTNnYty4cXjkkUfw3//+FwDg5+eHI0eOYPHixdBoNIiKikJoaGiLtX///fcoKyuDr68vLBYLRCJRu+1jYmIQGhqKN954A0Djwh5KpdL+GgBGjRqFGTNmICMjA0FBQZg7dy4GDx4MANBqtdi8eTMAICsrCwcPHuz0997X1xfz5s1r9abRrYUgrVYLvV4PtVptf+Tm5kKj0dhf19fX2/+bNA8pTc9DQ0ORlJQEpVIJnU6H4ODgVkOeIAjQaDQICAhwCEhN/42bP7Kzs9GnTx/4+vrCx8cHvr6+Ds8lkrb/HNhsNofjNa1U2fxnsb6+HsXFxfZewvr6epSWliIkJAQ+Pj72h1QqveJfALBarQ4/s4Ig2P9tem40GpGQkACRSOTwaGrT9Kirq4NCoXD44OHyUPbtt992+meEiIjIGQxdRF7KZDIhJSXF/qm8K2zZsuWKbddffz3EYjE2bdqEsWPHYtasWZg2bRoOHjyI9evXY9++fUhOTsZbb73V6qqGqampOHToECZMmICNGzfiwQcfbLP9Tz/9hN27dyMgIMB+jP3792PYsGEICwuzb8vJyQEAfPvttzh69CgKCwsxYsQIHD9+HE888QQqKioANC5d3xQWZ86ciZCQkK75hv2ieQhqrqk3KyoqqtW2VqsVarXa3oN4tVoLvpe72vltgiDYe0iBX3snu7P333/f3nNJRETkSpzTReSFLBYLALg0cLUnMzMTDz74IB544AGo1WqcP38eAwcORHJyMsxms/0Na0vCwsIgl8vx3HPP4ZlnnkFJSUmb7cPDwzFs2DAMGzYMIpEI+/fvR3BwMPz8/PDpp5+iX79+GDZsGAYNGgQAeOWVV7B27VqMGzcOW7ZswU033QSbzeYwVK75c28iEom6LHDR1WltiC0REVFXY+gi8kJGoxE+Pj6eLgOPP/44lEolli5dit/+9rfIz8/H6NGjMXToUIwePRrHjx/HJ5980mr7cePGYeLEiVi2bFmb7ePi4hAcHIyPP/4Y586dw4cffoioqCj87ne/w/PPP4/Nmzfj7NmzyMjIANB4E+Xhw4fjwoUL2LZtG06dOgWVSoVFixZh0aJFCAwMtD/vaE8Q9T5isZihi4iI3ILDC4m8kMFgcHvoCg0NhVarddgmk8lw7Ngx++tjx44hJycH8fHxkEgkuO+++yCVSiGTyfDjjz8CAMaOHYs9e/bY27z99tvttv/888/xf//3f3jkkUeQmZnpUMOIESPwySefYMeOHXj00UfxxhtvICQkBGVlZTCbzaivr4fRaHTFt4R6OPZ0ERGRuzB0EXkhb+npaklycrL9uVKp7JL2119/vcPy9ACwYsUKREREAGh8czx79mzMnj3b/vW0tDRs27YNwcHBuP322x2+X++9957TdVHvw9BFRETuwtBF5IU80dPlbZqHs5ZIpVIEBwcDAPz9/R2+1qdPH5fVRT2HWCy2z58kIiJyJc7pIvJCRqMRvr6+ni6DqEdjTxcREbkLQxeRFzIYDPZ7FxGRazB0ERGRu3B4IZEXOnv2LEpKStxyruPHj+P48eNuOReRN6murkZBQQFiY2M9XQoREfVwDF1EXighIQFlZWUuP09WVpbLz9EdJSQkeLoEcoPw8PA2b2RNRETUVRi6iLyQ1WqFSOT60b8jR450+TmIvJUgCF5382wiIuqZOKeLyAu5K3QRERERkevxXR2RF2LoInIP9nQREZE78F0dkReyWCwMXUQuJgiCp0sgIqJegu/qiLwQe7qI3IM9XURE5A58V0fkhRi6iFyPPV1EROQufFdH5IUYuojcgz1dRETkDnxXR+SFLBYLxGKxp8sg6tHY00VERO7C0EXkhc6ePYucnBxPl0HUoxUXFyM/P9/TZRARUS/AmyMTeaE+ffpArVZ7ugyiHi0xMRERERGeLoOIiHoB9nQReSHOMyFyPalUCqPR6OkyiIioF2DoIvJCNpuN802IXEwqlcJkMnm6DCIi6gUYuoi8EEMXket1h56ugwcPeroEIiLqAgxdRF6IoYvI9Xx8fLw6dC1btgzjxo3Dq6++6ulSiIjoKjF0ERFRrySRSLx6eOHf/vY3HDp0COvWrcPjjz/u6XKIiOgqcPVCIi/Eni4i1/P2ni4AGDFiBA4dOoSgoCBPl0JERFeBPV1EXshbQ9f48eMRGBiIwMBAKBQKqFQq++vTp087fbygoCCUlZW1uU92djaWLl2KW265BS+88AKsVqvD19VqNWbMmOH0uYm8fU7XsmXL8Pe//90hcD388MM4duyYB6siIqLOYOgi8kLeGroOHDiA2tpa1NbWIiIiAjt27LC/7tevn9PHO3bsGEJDQ1v9en19PW677TZYLBasWrUKBw8exIoVKwAABoMBr732Gu644w7s27ev09dEvZe3hy5BEK64fUR6ejpGjRqF9957z0NVERFRZzB0EXmhuro61NTUeLoMp+zbtw9Dhw5FZGQk5s6di/LycgDAxo0bsWHDBsyZMwfJyclYtGgR9Ho9AGDhwoXQaDQAgF27dmHQoEHo06cPHn30Uej1euzduxeBgYFYv349srKysGTJEmzduhVWqxVGoxFnzpxBbGysx66Zureamhr7z193sXDhQnzyySd4+OGHsXfvXk+XQ0REHcTQReSFQkJCoFAoPF1GhxUWFuLOO+/EunXrcOrUKYSGhmLhwoUAgPz8fKxatQrz58/H7t27cfbsWbzzzjsAgMOHD8NoNCI/Px/z58/HM888g48//hg//fQTNm3ahJycHGRmZtrPk5ycjJqaGlRVVUGpVOLZZ5/FsmXLPHLN1P2FhYV59f9nkyZNwogRI67YPnHiRBw6dAiTJ0/2QFVERNQZDF1EXkgikcBisXi6jA57++23MWLECEycOBEhISFYvnw5Pv/8c9TV1QEAZsyYgalTpyItLQ3Lli3D7t27Hdpv27YNEyZMwLRp05Ceno7nn38eSUlJyMvLg1KptO8XHR0NQRCg1Wrden3dkbfNv9u8eTNuvvlm3Hfffdi+fbvT53eVy4fveZNJkyZh4sSJLX4tLi7O/nz06NHIzs52V1lERNQJXL2QOkRddAAmfQW0VSdg0lfCpK8CAEj9QiD1C4UiJBNSvzCoYsZ7uNKeQSKRwGw2e7qMDsvNzcXQoUPtr8PDw6FQKFBRUQEASElJsX8tMTERhw4dcmifl5eH9PR0++trrrkG11xzDb7//ntUV1fbt+v1ekilUg4p7IADBw7YnycnJ+OVV17BpEmTOn28js6/mzhxIlatWoU1a9agoqICa9euxdatW/Hvf/8by5cvR0hICO6++27Ex8dj2LBhna6HfvXb3/4Wo0ePxmuvvYZp06a57bzFX34BfUU5qn78HvqqKjSo1QAAmUoFv5AQhAwdDr+wcERfN8FtNREReSuGLmqTrvo0KrK3oUGTB4UqDnL/cMgi+kEs8QUAWMwGNGjL0VB9DFXqAtQW7kdExt2QBSR6uPLuTSqVdqvQlZGR4dB7UlxcDLlcjqSkJACNb8ibnDx5EhEREQ7t09PTcfLkSfvrCxcuoKysDHFxcTh+/Lh9e35+PlJTUyGR8FfX1di3bx/+8pe/oLCwEBMnTsQLL7yA8PBwbNy4ERaLBYcOHcLhw4dxww03YP369fDz88PChQvx9ttvIygoCLt27cJf//pX6HQ6zJgxA08//bTD/DsAWLJkCebMmYOnn34ax48fx2OPPYabb74ZADBmzBjs37+foasdK1asgK+vL5YvX97mfo888gj69OmDefPmOXxI4SrVp07iwuuvQlNQAH+xCHKJFEFSCcQhwQAAi9UKfXk5Kj76H+otVhTu/gwZCxdBmZjk8tqIiLwVhxdSiywmLYpPbETe4acglUiROnQhYjNuQVj8aChD0iBXxUOuiocyJA1h8aMRm3ELUocuhFQiwaWDf0HxiY2wmDgErLO6W0/X1KlTsX//fuTn5wMAdu7ciQkTJthXYPzss8+g0+lgMBiwfft2jBo16or2X375JfLz82GxWLB06VKUl5dj2rRpOHz4MLKzs6HT6fCPf/wDI0eOdPv19SSemH+3fv16zJ49GwUFBfjf//6HTz/9FFOnTvXI9TcnCIJ9+GpqaipSUlKQkpKCrKws+z6JiYlISEhAQkKCw/a4uDjExsYiNjbWYXtUVBQiIyMRGRnpsD08PBxhYWEICwtz2B4cHIzg4GAEBQU5bFepVFi3bl2Hhz9Onz7d5YHLrNXi53++gB9WrYCotAQDQoKREhyMqAAlAv38oPT1hdLXF4F+fogKUCIlOBgDQoIhKi7EoaUP4+d/vgAzhwYTUS/Fj4vpChaTFvmHnwKsDUgafBdkivAOtRNLfBHdZxqCY4ai5PxnyP/+KcQPXwmx1Hsnqnur7ha6UlJSMGHCBGRlZWHQoEEoKyuzv1kHGt9wDhkyBBaLBVFRUdiwYYND+7S0NEydOhWDBw9GZGQkBgwYgBkzZkAsFmPNmjUYM2YMFAoFIiIirpgPRs5pPv8OAJYvX46kpKQr5t8BjfeJevXVV3HXXXfZ2zeffwcAzz//PPLy8vDll1+2Ov8uLCwMQONKli+//DISExMREBDgluttS01NDV588UXcfPPN2L17t/1Dgua3a2gapikIgsP2b7/9tsX9jx492uL2U6dOtbj94sWLLR6/oKDAIRQ64/e//z0KCwuxdetWREVFOd2+JWatFt+vWAZLRQUyIsIhl0o71E4iEiExOBjhShPyfjiM7/NzMfyptZB48QImRESuINi8eRYxeUTe4afQoMlB6tCF9mGEzrKYDbjw4xbIApKRMGJlF1fY8x0/fhxfffUV7rnnHk+X4pTS0lKo1WqkpqZCLBYDAP76179CpVLhoYceQmVlZZvzsWpqaiAWi694Q15fX4+Kigr7cEVyTvM5XYsXL0Z0dDSeeOIJ+9fDw8Px3Xff4eWXX4a/v799ONv58+cxZcoU5OXlISgoCGfPnsXq1asREhKC1atXO5xj2bJlqK2txaZNmwAAOp0OMTExqKiocBgOajAY8Ic//AEWiwVvvfWWG66+dbt27cK9996Lqqoqj9bhCqtXr8arr76K1157DePHX/1c2x+efALq8+cwMDISYlHnBslYrFb8XFoKVZ90DFu99qprIiLqTji8kBxU534KXfVpJAy8vdOBC2js9UoYeDt01adRnftpF1bYO3S3OV1NIiMjkZ6ebg9czclksnYXwAgKCmqxB8Tf35+Bq4tkZGSgqKjI/roz8+9KS0vtry9cuICDBw8iLi4OeXl59u3N59/dfffdOHXqFADA19cXt9xyC3Jzc11yfdToySefxDPPPAN/f/+rPlbezo9RfeY0+oSHQSwRAyKhUw+xRIw+4WGoPnMaeTs/7oKrJCLqPhi6yEF17k6Exo/u8JDCtsgU4QiNH43q3J1dUFnvUlVV5ZYJ8e4wefJkjBkzxtNl0C88Mf8uJCQEmzdvhlartR/31ltvde+Ft6CgoMBhWfueZs6cORgyZAgA4MyZM50+Tu5HHyIqMBBymQwQia7qIZfJEBUYiNyPPuyqyyQi6hY4p4vsGjS5MOkroVB13Q03Fao4VOYfRIMmlysaOiE5ObnF3qLuiDdw9S6emH/3+9//HjNnzsSHH34IqVSKESNGYN68eW697pakpqbixx9/9HQZLldfX49JkyZh1apVuO+++5xqW5d7CQ3VVQiIioIgdM3ntAF+figpKUFd7iWuaEhEvQZDF9mZ9I33VJKr4rvsmE3HMtQxdDlDpVJBo9F4ugzqIXJychxeb9q0CStXrrxi/h0ATJw4scX5dzU1NfbnL774IlatWnXF/LtFixbhzjvvvGL+Xb9+/XD69GlcvHgRsbGxXTLkrSvU1dVB2sEFIbqrY8eOYcGCBbjjjjucDlwAoC8vBwAoFfIuq6npWBqGLiLqRRi6yK5Bkwt5YNcHI3lgIoy6ii4/bk/m7+8Pg8EAs9nMe1KRSzQta96Sjs6/a4m/v3+LoUoqlaJv377OF+pCpaWluOuuu7B//35Pl+IygwYNwp/+9Cf7bQGcpcm9hIDg4MbhgV0oIDjYHuiIiHoDzukiO7FUAUN9afs7OslQX8pl4zshICCAvV3kVr1t/p1Op8PRo0c9XYZLrFu3zv68s4ELAKQKBXR1dYAg6tKHrq4OUi4bT0S9CEMX2ckCEmExN6BB23WfPjZoy2ExN3BoYSdwiCG52+TJkzF27FhPl+E29fX1Hb75cHdy33334ZNPPumSFSKViUkwm0zQGw0QREKXPPRGA8wmE4cWElGvwnFLZCcP7geRxA+G+vIuWb0QAAz15RBJ/CAP7tclx+tNGLqIXKuurg5arRapqakAAJvNZr9Z8eTJk3Hx4kV7KGsKMJMnT8a5c+fs+xcWFtq3nz592r5/SUmJffuJEyfs+1dUVNi3Hz161L5/02qlkydPxg8//GDf39nfARMnTkRCQgK++uorZ78dLQruPwASmQw6gxFyv66Z16UzGCGRyRDcf0CXHI+IqDtg6CIHgbETUFFwCP4haVd1ny6g8QbJFQWHEBg7oYuq6126Y+h6qdSGj2u6b8/BEzECxgYIni6D3MRoNOL06dMQ/TJfqWnZfAB45ZVXIAiC/dHk1Vdftb9uvv31119vcf+33nqrxf3feeedFvffvn17i/t31CuvvIKUlBSn27UlZuJkFO/fhyCV6qpXVbVYLCiurkHMRK5qSkS9C0MXOQhNnYW6ssMoPPM/JAy8/aqOVXjmf4AgRmjqrC6qzvsdPnwYb7zxBv71r39d9bECAwO7Veh6s8KGNYVW3B/ZPUOL2gKsLbJhF0NXr1BXV4eAgACkpaW1+PXWbsYdFxfX4vbo6OgWt4eHtzxqICQkpMXtKpWqxe1t+c9//oP+/ftj5MiRXR64ACB19u0o++4Qsgvy0Tc5+aqOlZ2bD0Huh9TZV/f3hYiou2HoIgdiqQKx1zyGvMOrUJz9KaLTpnXqOMXZn6JBW4GEEat61SIaBw4cwOnTp7vkWCqVCqWlXb+wiavkGWy4P1LAE7Hdd6rojWeseLPChnlhDF49nUajgVKp9HQZbVq7di30ej3WrFnT6j7Lli3Dhx9+iK1bt7qsDolCgWuWLcf3y5fhUmERkloJnu25VFAAvcmM4SufhoSLaBBRL8PQRVeQBSQiYcQqFB5Zhws/voyIpAlQhrT8afDl6qqyUXbpC0AQI2HEql63gEZ4eDgSEhIANE7Sr66uRnx85+57plarcfLkya4sz22+1tiwtsi5YYa/CRJwf6QAtQVYeNGKWkvH2yb4AluSG8PeM0U2fKXp+LkDxcDjsQIy5QLWJQi4/bwV88J6xo2pW2OoqUbeu++gobL73srBYjJi8KrWw0h7Tp06BbVa3YUVdT1BENpc6GPhwoUoLi7GwYMHW13Cv6soE5MwfM3fcOSZp3Hi3DnER0cjqIO9cjVqNfKLiyH4+WH4mr9xAQ0i6pUYuqhFsoBEJI1+DtW5O1GcvROy4p8QGDEAUl8V5CrHTzl16gKYDGrUlp1Eg7YcwYk3ITjxpl7Vw9Wk+ZukDRs24KWXXsLWrVsxadIkp4+lUCiQlZXV1SW6xdoiG77W2Do8P+q4tnH/+yPFeKOicV5YR9vmGWz4WgPMC7VBJQHWFloxUC4gsAO/3WrNjQFxoBzIlDcGrzFKAWsLrd26x6492a9sga9UAotGDbFM5ulynGZpMMCgUUN99gxUfTM6dYx+/fp5/Yca7YWuLVu2uLGaxuA1+v9tQO6H/8OlTz9BWVUVQoMC4evjC6XS8d5sdXX1MBgNqKypha6hAQnTfoPEmbewh4uIei2GLmqVWKpAWNrsxsU1st9DdcnPaKgrAABIZYEAAFNDLQBApoyDb0Ayogc/BqlfmMdq9rQFCxZgwYIFABqH/aSlpWHmzJl47rnnsGjRIqeOVVlZieDgYFeU6TYJvsC6BBFUbXQcvVTaGLiaqM22X/4FdvVru+3XGht+d75528Z/8w02vJwiQqa89eB2QmfDwotXvqF9IlaEG89YcH8U2jx3d6YtKIDB1wfKvhkIHnSNp8txWtVPP0LIvYSCD3ZA9dcnOnUMpVLp9XMmExMT7Yt8NPnwww8xf/58j/XSSRQKpM6dh5gp1+PCu9tQfv486nPzAAC+8sbVDQ06HQDAPzoGAYOvwaDZt8MvrGtWxCUi6q4YuqhdUr8wRGf+yf66QZMLk77C/rXeNoTQGbNmzUKfPn2QmZnpdNuKiopOtfMW8b7AR9U2nNBaWwxPagvwWF7jHKqxAYJD8AIAG4CMoxbs6tdyeHqzwoaFOdYW22YqBNx42op1CaIW52c1hjUrVJLGOptL8AXmhTb2dq1L6Lm9XYCAmBumovLHH6A+5VyPj0mnQ/+HH4U2Lw9Fn+10+sxxM2+BPCoap9Y/B4ncuWXIg7IGIX3hIvz46EOwVFag4rtvETbyWqdr6A6ha86cOQ6v169fj7///e945513PFTRr/zCwjFw8RL767rcS9CXN97j0S88nEMIiYguw9BFTpMFJDJoteKNN97Anj178Prrr9u3NQ9O06dPx9atWzvUg1VZWdnqCmfdQYKvgHf6CPjdeesV4UltAW48bUWuwYZtfUQIFAM3XhacdvcT4XfnrS2Gp4U5jWFtcaSAdQkiKA47TgDblSHCY3lWLMyx4medgGebhaeXSm14LM+K3wQJeDml8RyXuz9KhL5HLVgc2RjCeqqKHw6j5PPdiLlmCKxmM0SS9v8k6KurIWI3k3UAACAASURBVJJIcOaf/w+G6hpEDRgIk14Hnw4MG9PX1MLHzw/Z/3kFUpUKUokEUpEI8tDQdtuadDqEpvXBqQ92QBYWjvhbfovCD/6H/A93dCp0iUQiKBQK1NXVef2CGk3ef/99HDx4sNUVFz1JmZjEoEVE1AaGLnJg0legruwHWM06aKtOArjyDWnHiKAIGQCRRA5lxLBeM+SwvTkYmZmZuPbaa7F161aMHDmyzWN199AFNM6T+m6g2CE8ZSoaA1e8r4DdvwSxy3uqgMahfbsyRLjv4q/h6fFYkUNYmx7U+vDBdQkiZMobe8OO66zYkizCM0WNYe3ZBFGbS9urxMBzCSL8Jc+KbX16bm+Xf1w8ZIGB0FaUozY/H8qUVEgV/q3uX3cpB2atFikTJ6KmsgoWnR5iqRQFh48jIDkFvsGt/7zqy0pRX1iAlAkTIfX3hyIuHr4mI4p++hE6rRaK6JhW2xpqqqHJuQi/oCD4BATAPzEJfpGRKP1iP6z19Sja/Rlibpjq9PUHBAR49SqGzz77LAoLC7FhwwYAwMGDBzt1766rpa8oR/kP38Os1aLq+DHA4sQqN82JxQjJGgSJQoHwYcM55JCIehWGLgIAWExaVF54D9W5n0GmiIRUpoTc/+r+IDZUH4OpoQ5lZ7YiOHEqQlNv65WLazS3du1apKWlYdSoUbBaWw+09fX1EIlEkDs59MobXR6eANh7mToyZ+rlFBHGBTSGp3+VWjBQ/mtYa8+8MAGZChFuOG1Fv2MWBPxSS0cW6VBJ4NQKit1T44cEUVmDIfGVoezUSaQv/NMVPUeGykqc27IRquho6Coroa2oAITGMCr29UVQYhK0FeUIyhqEuBk3X3GWC1v/CxSZEZycAqvFbN9uMZkQEBcHmw0QfKToc+8fr2hb+OknqD19EmF9+kLk4+PwtfhbbsX5lzch/4MdiBx3HcR+fk5dfdMQw5iY1gOfJ+Xl5eHtt9/GTTfdhBtvvNHtgcus1eLCtreQt+tTKFQq+IjFkF/lQhhVez+H0WLB2Vf/g4QbpyH19rlcXIOIegWGLoJJX4FL3zwGqa8/EgbeDrmqc0uct0anzkdZzn5cLDyApDHrenSvV3s9XQBw1113tTs8qKKiotv3cl3u5RQRpgfboDbD6ftgzQsTkOArwlcaG+6P6lhYa5IpF3B2sBj/KrF2uK3agh7fywUAEADYgIsHvoCuogLx145C7rb/g76sBPEzfwsAqD11Eue2bER4el9oSkpg0GodDlFXXIT6ykqEpqag9siP0JeV2sOToaYa57dshK/UB4rQUNTk50Pq9+tqiVaLBdqqKgREx0Coq8Pxp1cifeGfIAuPAABk//cV6C9dQnj//ig7eRIN2jqHcwf2H4CAPukwFBUh/8MdSLr9DqcuX6lUevWy8U888QT69euHG2+80e3n1leU49AjD8FHLEbGwIEI6MRNm9uiUauR983XKDrwJUY9///Y60VEPV4Pf0dB7bGYtCj8aR3kqhgkDb6rywMXAMhV8b8cOwaFP62DxaRtt43NZoPVarU/mpjNZphMJhiNRhiNRvt2o9GIhoYG6PV66PV6h+319fWor69HXV2dw3a1Wo3a2lrU1tY6bK+qqkJVVRUqKysdtpeXl6OsrAxlZWUO24uLi1FcXIyioiLccccdePPNN9u9vtGjRwMAioqKMGfOHBgMBoev94ShhS2ZHiR0+sbDYwMab7zcmRUFVWI41fZfJY1zvjrSm9adCYIA2GzwUSqRMm8+Ki5cQGhaGtRHj+L8K5tRsm8vTr/wPCL69kPpieMIHTse8suGAUr8/BA5/joYrTZI/eQQ1dfj+NOrUH7oGxxf9ST8lQHQ11RDCApC+OgxEPv8OklOJBYjICUVssQk1JWWICAoGMdWr0T5wa/x8zOrYauuho+/P3RaHZLm3AFpCz0i8TffivryMhTv+Rz6kmKnrt/bF9OIiYnB/fff7/bzmrVaHH1mDZT+CmReMxiqoCAIIlGXPlRBQci8ZjCU/gocfWYNzNr2/y4QEXVnDF29XHXup4DVgKi0aS4/V1TaNMBqaDxnO8xmMyQSCaRSKXyaDSmy2WxQKBRQKpUO8zAEQUBQUBBCQkIQ2mxSviAIiIqKQlRUlMMQIkEQkJCQgKSkJCQnJztsT09PR3p6OjIyMhy2Dxw4EFlZWRg0aJDD9mHDhmH48OHtztFqSUxMDMLDwzFq1CiHewb1hOXiu6s8A/CvUluPvk/XrwTY0NgzK4+OQdbK1dDpG+Ajl0Ooq0P+jvcQkZmF8nNn0feBPyPmhpZ7XASJBBkPPQqfmFjUV5QjMCwM517ejPD09MawNu46pN79B0DUGPIul3T7XETfNB1FR35CZL/+OP/KFsjlCtSVlMA3IRH9l/4VklbmmsljYiCPjGpc3ONf/3Tq6r09dHlK7s6PYdWokZKeDohELn2kpKfDqlEjd+fHnr5sIiKX4vDCXk5XdQKqiP4QS1y/RJtY4gtVRH/UVf0MpN3W4j4rV66EWCzGk08+2eKcJ6lU6tDD1Xx78x6u5tub93A13968h6v59uY9XM23N+/har69qKioxWvpqBdffBEvvfQSli5dis8++wwAcOLECai6eDiPO6nEwCc1titWFWxLwC+9UCpJ45g3Z9o2tvv1ubNtxyodV0bsbI9atyM4hiCpvz/6P/oX5Lz5OtSnfoYgFkOv12PQU0/DJzCo3cMlz5uPot2foeCjDxAQHWMPa0EDBv5yOhGAloffRo6fAL+ISJzfsgmywECU/nwCaffci/BRY9o8p+b8ORiqq2AxmdD/4Uc7fu0AysvLUVhY6FSb3qDqpx8RGh4OiVTq8nNJpFKEhoej+ugRYPbtLj8fEZGnMHT1crqa84hIHOW288kU4SjL2e+283UXixcvxuLFi+2vk5OToejGk8tfThHhhLbtuW2XawpN90cKyJI738vUNBTw24Ei+02SO9xW0dj24xobas1oc2XDHuWXOV2XS543H0W7PoUgkSB68vVOHTLmhqkwVFdBIlcgYux4+DbvsW1nzqOqbwayVq5G5Y8/QCSRtBu4ACDvvXcgUwUiZOoY+Ia0v/R8c0lJSR5ZDdDb1eZcRNzw4Y29UW6gCAhA3pEjbjkXEZGnMHQRZAr3TWB2xZyxnmbcuHFQKBRYtGiRp0tx2te/dCqqxOjQCoGtuZq2nZ2H1bR4xpbk3jCssJEgNA4vtFksMOt1MDXrFQ4fPRYAHLYBgM1yZaK1Go0O+8X9Zqb9efPtVpMJNqtj6LKazQ77CGIxwkaMvKKtRa+H7bKlyku+2A+TRg2bSIS46TPav+DLdGThm95KEeC+nvaANm41QETUUzB0kVfhmyDgq6++wt13342VK1ciLS0NCQkJni6pQ8YFCHimqHFp9njf7td7oDYDY5TCVQW+7qdxeKFRrUH2y5shiNsfU2luaIBy6DCHbUV7dqP0y/Z7sK0mE8Iz+jlsqz19Cj/95ZH221os8AsMgrGuDrqSYvioVMh7/11IfH2QOHdeu+3JOYKoN/1/QETkegxd5FVWrVrl6RK8wquvvoonn3yy2wQuoLF3qjND+7xJ0zDDXkMQYBNE8AtRQYaOL9xSfu4coqZcD6vFAl1NNVTxHe/Brsw+j+AhQyGPikLRrk+hSkzscFt1Xh4AQJmYhNzt70IeFARpWBhChw7v8DGa44c8bXDT0EIiot6CoYvIy/z444+IiYnBgAEDPF2K03r6Eus9jSASMGjlamgL8p1qV5dzEXG/aRzOV3vqZDt7Xymwf+PPts1qhTI5pcPtVJdyEDZ8JBqqKlFx8BtYTCYM+uOfnD5/E87naoPA0EVE1JUYusirrF69GhaLBU899ZSnS/GIbdu2YcGCBViyZAmysrI8XQ71UCIfHwQlxOPMhhch9Ve236AFpV90zYI4zh6ndP8+GDVqKCMjEZCZBUVs3FWdnz1drWBPFxFRl2LoIvISa9euxcsvv4zdu3dDJBLh0qVLni6Jeqhhz7+AbxfdC1lQMMRuWBa8q4nEImirqjDwty3feqKjOLywdZzTRUTUtRi6yKs0vQlqeoh++bTVYrHY3xzZbDZIf3mjaDQaHfb38/MDAOh0Oof9/f0bb6xaV1fnsH9gYCAAoKamxmH/kJDG1bQqKysd9o+IiAAAlJaWOuwfHR0NACgqKoLNZkNsbKzT137rrbdiwYIFiI2NxaFDh2A2d+PJUeT1Bq1cDWML96rrTgQJ/4S5DIcXEhF1Kf7FIq/z9NNPY82aNRg7diwOHDgAAPD19bXPvxg1apR9u1KptG8fMWKEfXtYWJh9+5AhQ+zbm8KQIAjIysqyb09JSbHvP2DAAPv2fv362ffv27evffvgwYPt+6elpdm3Z2VlITU1Fd99912HrvXSpUuoqqrC0KFD0bdvX/t2iUQCi8W5G/wSOcMvMgp+kVGeLsOj2NPVBg4vJCLqUgxd5FVWrFiBFStWXLG9tV4fg8HQ4natVtvidrVa3eL26urqFreXl5e3uL2kpKTF7Zs3b8a2bdta/Nrl9uzZgwULFuDPf/4zhg4d6vA1s9kMk8nUoeMQUeeYzWZYrVZPl+GduMgIEVGXYugiNGjL3XaD5AZtyyGmp+joamibNm3C0qVLsXXrVtx6661XfN3f3589XUQuJhaLIe7Avcl6I61GA8Uvw69dfq5uPsyViKgjGLp6OZkyFjp1vttCl06dD5nS+flO3cWtt97aYoi63KJFizBq1KhWVyiUSqWc00XkBlw2/kr+MTHQVFXCP7jj9267GpqqSvjHxLjlXEREnsJB272cPCQT6vJTsJhbHqbXlSxmA9TlpyAPyXT5ubyRRqPBzTffbH/d1pLwEomEoYvIxa52Ptc//vGPLqrEu4RkDUZ5fn7j7yBBcOnDbDajPD8fIVmDPX3ZREQuxdDVy4WmzgIEH5Rd2ufyc5Vd2gcIPo3n7KF27NjRYk/XkSNHMHr0aKSnp3foOOzpInI9m83W6Z6uFStWYPXq1XjzzTe7uCrPS519O0RyOS4dO9a4oIYLH5eOHYNILkfq7Ns9fdlERC7F0NXLiaUKRGXej7qqi8j7eRt06vwuP4dOnY+8n7ehruoiYof8BWKposvP4S1aWw1t9OjRWLJkCZ599tkOHYc9XUTu0ZnQtWTJEnzzzTfIzc3FvHnzXFCVZ0kUCgx88GFUl5bg5JdfQF1R0eVhS11RgZNffoHq0hIMfnwFJIqe+3eBiAjgnC4CIAtIROp1L6HszGvI+3kb5IEJkPoq4eOrgip8AKQylVPHMzWooS4/CaNBDZOhDrraPKhixiF22KoeHbiA1kNXTk4OoqI6vjy3RCLh6oVELtbZnq5//vOfsFgsPXoRDmViEsZvegVn/vsKTu7bC1VUNGR+fvD1VyA8ORkyhb9Tx2vQ1qM8JweGei0a9HqoS4oRPW48hv7+XgYuIuoV2NNFABp7vKIzFyP1un9BHjoMkISgqvgITIaWl1hvi8mgRlXxEUASAnnoMKRe9y9EZy7u8YHrcvfccw/27t0LAE4FLoDDC4ncwZk5XRaLxWFOplgsxuTJk7Fvn+uHZnuKRKHAwAf+jHEbtyB0zFiI4+NRfP48DDqd0z1bBp0OxefPQxwfj9AxYzFu4xYMfODPDFxE1Guwp4scSP3CEJZ2GwAg77vSTh9HpoxHdOafuqqsbuPmm2/G4MGDcd111yE1NRWTJ0/u1HE4vJDI9Tra01VVVYVZs2ZhwIABbqjK+/iFhdvnXH1fXARABAjOfmYrgjI+HgMXL+ny+oiIugP2dBF1sRdffBE33ngj/v3vf3f6GCaTCXq9vgurIqLL5eTkoKioqM19LBYLpkyZgtGjR2PDhg1uqszLiYTOPYiIejH2dBF1sfXr11/1MQICArqgkp5l/PjxOH78OIDGUCqRSOy9FIcOHUK/fv2cOl5QUBDOnj2LiIiIVvfJzs7Gyy+/jAsXLmD8+PFYsmQJRKLGz6p27NiBd999FwAwa9Ys/OY3v4FMJuvMpZGHxMfHw8/Pr819xGIxtm/fjqSkJDdV5e0ECIIAQeTcZ7aN/68yeBFR78WeLiIvxDldVzpw4ABqa2tRW1uLiIgI7Nixw/7a2cAFAMeOHUNoaGirX6+vr8dtt90Gi8WCVatW4eDBg1ixYgUA4Msvv8QjjzyCiRMn4uGHH8bmzZvxwgsvdPrayDPMZjMkkpY/ezxw4ABOnToFAK0Grr1792LSpEkuq89rCaLOPYiIejH+FiTyQoIgQCQSwWKxeLqUbmHfvn0YOnQoIiMjMXfuXJSXlwMANm7ciA0bNmDOnDlITk7GokWL7MM2Fy5cCI1GAwDYtWsXBg0ahD59+uDRRx+FXq/H3r17ERgYiPXr1yMrKwtLlizB1q1bYbVasX//fixYsAD33Xcfhg8fjoULF2LHjh0eu37qHJPJBKlUesX2jz76CJMnT7aHLrqMCJ0YXujpoomIPIu/Bom8lFQq5bLxHVBYWIg777wT69atw6lTpxAaGoqFCxcCAPLz87Fq1SrMnz8fu3fvxtmzZ/HOO+8AAA4fPgyj0Yj8/HzMnz8fzzzzDD7++GP89NNP2LRpE3JycpCZmWk/T3JyMmpqalBVVYX7778fjzzyiP1rhw4dwqhRo9x74XTVzGbzFaHr9ddfx9y5c/HJJ59g9uzZbbbv6asXtkroxL252NNFRL0cfwsSeSmuYNgxb7/9NkaMGIGJEyciJCQEy5cvx+eff466ujoAwIwZMzB16lSkpaVh2bJl2L17t0P7bdu2YcKECZg2bRrS09Px/PPPIykpCXl5eVAqlfb9oqOjIQgCtFotwsPDoVQqYTQasXz5cnzwwQf44x//6NbrpqvX0vDC+fPnY+/evbjhhhvabZ+bm4vJkyc7rIB49913N855+uXhTdufeuqpDn5n2iEInRheyPlcRNS7MXQReSnO6+qY3NxcDB061P46PDwcCoUCFRUVAICUlBT71xITE3Ho0CGH9nl5eUhPT7e/vuaaa3DLLbdALpejurravl2v10MqlSI2NhZAYy/atddeixMnTuDQoUPo27evS66PXKd5T9eaNWvs20eOHNmh9hcuXIDNZnO439err75q3+ZN21etWtWha+oQQYAgcu7B0EVEvR1DF5GXYk9Xx2RkZDgs+11cXAy5XG5f/KC+vt7+tZMnT16xWmF6ejpKS3+9J92FCxdw8OBBxMXFIS8vz749Pz8fqampkEgkKC0txYwZM/DAAw/go48+cvrm1+Qdmnq6HnvsMezcuRPFxcWeLql74EIaRERO429BIi/FOV0dM3XqVOzfvx/5+fkAgJ07d2LChAn2IVafffYZdDodDAYDtm/ffsXcq6lTp+LLL79Efn4+LBYLli5divLyckybNg2HDx9GdnY2dDod/vGPf9h7QDZs2IDRo0dj9uzZ0Ol00Ol0vK9aN2Q2m/HCCy/gxIkT2Lt3L6Kjoz1dUvcgEpyf08X7dBFRL8f7dBF5KfZ0dUxKSgomTJiArKwsDBo0CGVlZfbFMoDG4YZDhgyBxWJBVFTUFTe4TUtLw9SpUzF48GBERkZiwIABmDFjBsRiMdasWYMxY8ZAoVAgIiLCPh/s+++/x6FDh/Daa6/ZjxMbG4tz586556KpS5jNZrz00ku9ImytXLmyaw4koHGooLMhShB4my4i6tUYuoi8VHl5OfLz8xEXF+fpUrxOTk6Ow+tNmzZh5cqVUKvVSE1NhVgstn9t4sSJeOihh1BZWWmfjwUANTU19ucvvvgiVq1aBbFY7HBj6kWLFuHOO+9ERUWFw72a9uzZ44rLIje7cOECjh49ivPnz2PYsGFQKBSeLqkbaFqsgzdHJiJyBocXEnmpsLAwJCYmerqMbiMyMhLp6ekOgauJTCZzCFwtCQoKcghcTfz9/Vu9OS51b8nJyYiIiMDOnTsxZcqUHj2n66mnnurC1Qu5ZDwRkbP4W5DISxmNxhZv3EodN3nyZIwZM8bTZZCXaroB+XPPPYdp06ZhypQpOHPmjKfL8n5O3xi5E8MRiYh6GA4vpDaZGjSAqhNt6KoZjUb4+Ph4uoxubfLkyZ4ugbyYWCyG1WoFACxfvhwqlQoZGRlOHaP5PbGaL9XubdtXrVrVZcvGN2g0TvdcNWj4d4GIejeGLmqVVB4JraYAqogBTrWrq74AqZxLaF8t9nQRuVZTT1eTBx54wP589+7dHbpBcvNg0x23O0sQi1F18SKiMrOcald18SKkKic/wSMi6kE4vJBaFZZ2G+qqLqCy4Fvo1AWwmA2t7msxG6BTFyDv523QqgsQlnabGyvtmdjTReRaYrHYIXQ1+fDDD3HTTTfh3Xff9UBV3i3hpumoPH8OJz/YgdqCApgNhl9WJrzyYTYYUFtQgGPb3kLl+XNIuGm6p8snIvIY9nRRq6R+YUge8xwqst9Fxc9vd6iNKmYcogc/BqlfmIur69lsNhvMZjN7uohcSCQS2YcXNjdz5kzs27cPt956K9RqNe69994W20+ePBnLli3DpEmTXF2q1wgfPgKDl/4VZ1/9D4699WaH2viFhmHw0r8iuL9zoyaIiHoShi5qk9QvDNGZixGdudjTpfQqHFpI5Hqt9XQBwPjx47Fnzx4MHjzYzVV5v/DhIxA+fISnyyAi6lYYuoi8EIcWtq66RA1FoJ+ny+g0Xz/+d/UWrfV0NWkeuN5//33MmjXLHWUREVEPxNBF5IUYulr2zfYjuHSyCBLplffi6g7MRjOG35SJ9GG8/5o3uHwhjdZUVVXhpZdewldffYV//vOf9u0jRrC3h4iIOoahi8gLlZeXo6GhwdNleJW8U8UoOFeK4AgVqkpqPV2O02ywQSqV4PiX55A2JAEi3rfI4woLC+Hr69vufiEhIdizZw9mzZqFBQsWYOvWrQCAtWvXurpEIiLqIRi6iLxQcnIyzGazp8vwOgHB/hBJRJj/1AyU5lZBFervVHs//8Y32AadEVarc0to19fqEBYbBADQ17e+kmdLaso0iE4Jw77/OwxtjQ7HvziHwZP6OnUM6nqJiYmQSDr2Z1AikeCDDz7A/PnzXVwVERH1RAxdRF6o6dN3DjNs2aWfi/DVez9CJnfuexMQqsS424Zi93+/hsngXKi1AbjpvnH4ac9plF2qdKqtQW/CyOmZGHRdOj7fegg/f3UOfYYmQKHqvnPTeoL25nS15PXXX7c/Hz9+PJ588sletXohERF1DkMXkZfy9/dHfX09goODPV2K1yk8X4bEfrEozatAUHgABKHtoXr6+gb0GZyEs0dyUHC2GPIAObRqHeRKv3bnh5mMZjRojQgKV6L4YgWKL5QjqV8sKktqIJO3PTTNarWhtlyN9KHJyDtdgj5DE5E4IAYVBTU4/sU5jLp5kNPXTl1HEIQOzelqyYoVK3D06FGUlJR0cVVERNQTMXQReSl/f39otVqGrpbYbFCFKKGvb4Cmuh79rk2Bf6C8xV0v/VyEqtJa1Km1jd1VvwgKV6HkUjkyRqYgNCawxbblBdU4+10OYlIj0byx1WaDplqL4CgV4tIjW2yrqdbizLcXoQoNgDJIAU11HQAg67p0bF//OXQaPdKGJtiHLJL7iUSiTg/jffrpp6FSqTBv3rwuroqIiHoikacLIKKWKZVK1NfXe7oMrySSiKDXNqCiqBqRCeE4uu8MIADx/aLsj7i+kcg9VQSdpgFh0cE4+0OOwzEKsksQkxKB8z/moq5W59A2vl8Uass1yDleiMT+scg/Vwxbs8CWf64YodFBqC5Wo+hC+RVtzWYLjuw9jaikCFQW16CuWmtvKw+QIXN8Ovz8ZTj+xTl3fcuoBYIgOD28sLlHH320C6shIqKejKGLyEs1DS+kKwkQABsgU/gg52Q+EjNi8O2Hx3DqmwsAAHVFHXa+/BUsRhvEYhFMZjPkSpnDMSRSMWrK1YhKDEPO0QJ8+9FxAIDNZsPX7/+EwnPliIgPRXlhFUQiEZr3dCmUcpjNZsj8ZdDWNmD3fw9Cp2lcbfLY/rM48vlpJPaLxaVTBS3O28q6Lh0mgwnqijrkn+bwNE/pzJwuIiKizmDoIvJSSqUSWq22/R17IwEAbPCRSXHDXaNRkleB6OQI5Jwowp7Xv8Wnr3wNZaA/qstqERIXiGunZ14x70sQBExZMApGowl+Sj/oNQbs3PIVPt74JUwNFoilYpgtZvxm4XgIly3vLogEDLtxAFRhCtTXaiGTy7BzywF8/tpBlFysRHCkCupKDW5aOA4yRQvzvgQga0I6RGIRjn1x1nXfJ2oTQxcREbkLQxeRl+LwwtYJAuzD/SISQ3DTfeOg0+ohV8pg1JkQnRSB/HPFGDwpA0Om9Gv1OD5+UkxZcC38g2TQavRQBSsRGBKAmnI1wuICMemOEfDxk0IQ4DAfrMnwaQORMTIJhdkliEgIg9UCWMwW+Mil+M2i8QiOVLV6bkWgHLq6Bqgr69GgM17ld4Q642qHFxIREXUUF9Ig8lI6nQ5qtdrTZXiny3qt/JQy3HD3aHz38XFUFFbDYrHgpvvGITiq9dDT3MjpWTj5dTaOfXEWFrMVY269BilZcQ7na+2uXunDkxAQ4o+vtx9Bg9aAITf0R/9RKe2e88ie01AE+CF9WKLTS99T1zCbzexNJiIit2DoIvJSoaGhqKur83QZXkkAYG0hBo2cnoUBY9MgV8ogEjvXkT9gbBriMqIgEglQBiscz9f2ivSISgnDzPsnwGq12W/A3JbT316E2WiBRCpGxrXJTtVJXcfPz4/3wSMiIrdg6CLyUhqNBv7+/p4uwzv9Mr7QoDfh3A+57e6ur2+AyWCCb7P7alktVmQfyW/5Pl0XKxxeWi02NF++0KAzIP9MCWrKNB06N8Kbvzbg6L6z8PGVYNjU/u22J9eRSqUwmUyeLoOIiHoBhi4iL6VWqxEeHt7+jr2QIADqyjqogpUoV44SnAAAIABJREFUOlfe7v4moxmBYSrodY0rDNqsNoTFhKDkQsUvKxO2LSwmCFbrr6FLFapEVaEamor2h6YplHKU5pajQW8AABzddwYBwf5QhfkjJi2i3fbkOlKpFEYj59MREZHrMXQReSmNRoOUlPbnBvVGCf2iUXCmFEaDc70UMWkRSM6KQ86JIlSV1jjVVh7gh9j0CNSWaXDxeIFTbU0GMwaMSUXppUoUnC1Fg9aA624f6tQxqOuxp4uIiNyFoYvIS2k0GiiVSk+X4TXK8qoAADVlakh9JZgwd3injlNXrcWImwZ2qm1DvQGp18Qj9Zr4TrU/+L+j8POXoe+IpCvmjZH7MXQREZG7MHQReSmGLkeJA2JQeK4MkfFh+Pr9I54up1P09Q2QyX2QdV26p0shMHQREZH7MHQReSmGLkfh8cFIGRyHn7/Kbnnxi27AYrZg8OQMT5dBv2DoIiIid2HoIvJCDQ0NEAQBvr7tLz/em2Rdl85eIuoyDF1EROQuzt3IhojcQqPRICAgwNNlEPVoEomEqxcSEZFbMHQReaFTp05Br9d7ugyiHs1sNqO+vt7TZRARUS/A0EXkhSIiIhAbG+vpMoh6NKlUCoWCq0gSEZHrMXQReSGz2QyJhFMuiVzJZDLBx8fH02UQEVEvwNBF5IVMJhNDF5GLGY1Ghi4iInILhi4iL8SeLiLXY+giIiJ3Yegi8kLs6SJyPQ4vJCIid2HoIvJC7Okicj32dBERkbswdBF5IYYuItdjTxcREbkLQxeRF+LwQiLXY08XERG5C0MXkRdiTxeR67Gni4iI3IXv6oi80OnTp/lmkMjFzpw5g/r6ek+XQUREvQBDF5EXysrKgkaj8XQZRD1acnIyjEajp8sgIqJegMMLibyQTCaDwWDwdBlEPZrVaoVIxD+DRETkevxrQ+SF/Pz80NDQ4OkyiHo0hi4iInIX/rUh8kIymYyhi8jFGLqIiMhd+NeGyAtxeCGR6zF0ERGRu/CvDZEX4vBCItdj6CIiInfhXxsiL8ThhUSuZ7PZGLqIiMgt+NeGyAt5e+iy2Wwwm82eLoPoqrCni4iI3IX36SLyQjKZDFqtFt999x2sVitsNhv+P3v3HR5Ftbhx/Ltpmx5qqKH3IiAgIh2FgAIWmlQL14qCCMoFBNH7A0WKgAW8dlQUARUBvSBNQUWkq5QEEgihhSSE9E12d35/xIxZkkAoSyjv53n2yc7smTNnZlfcd8+ZM06n03zkXY6MjKR+/fr4+Pjg7e2Nt7d3gc9TUlLw9vYmPT2djIwM0tPTC3wkJiZitVpxOp04HI4CH4ZhYLFYKFGiBMHBweYjJCTE5W9wcDAAKSkpJCcnk5ycbD7P+/f06dP4+PgQGBhIUFAQgYGB5iN3OSgoCIfDQWhoqHlsRfnC7HQ6SUtLMx+pqanm8927d1O1alXsdjsOhwO73Z7vud1uJy4ujkqVKuHr64vVasVqtRb4/OTJk1SuXNll/4Zh5Ht+7NgxSpUqRXZ2NtnZ2WRlZZnP864DzGP19vbGy8vLZdnb25uMjAzKlCmDr68vvr6++Pn5mc8v5AbbhmHgcDhITU3Fw8ODrKwsbDYbWVlZLs9z/+7Zs4ewsDDz9cLKpaSkEBoaSlBQEMHBwQQFBbk8z/2cBAQEFLmteeX9LJ/93G63m+c279/c57GxsTRu3Jg77rjjovYtIiJSVApdIlchHx8fQkJCiI2NxdPTEw8PDywWCx4eHgU+bDYbKSkpLl8qz/6Sefr0aSpUqEBAQAD+/v4EBAQQEBBAaGio+dzf35/U1FTKly+Pp6cnnp6eeHl5mc9zHx4eHtjtds6cOUNSUpLL3+joaJdlwCWMhYSEUKZMGWrUqGEuBwcH43A4SElJyRfKYmNjzeWTJ0/i6emJ3W4nOzsbwzDyhRBvb2/i4+MJCQkhNTWVjIwMAgMDCQgIyBfmypQpQ9WqVfHy8jrnIz4+nuDgYGw2G5mZmeYjIyODjIwMEhMTsdlsxMTEcPLkSfN9tFgsBT5PS0sjJSUFq9VqBmM/Pz98fHzMkJx7nB4eHvnCWVZWFpmZmWRnZxMfH8/Ro0fJyMgw25T71263m0EsOzubwMDAfIEyb9D08vLC6XQSGBhoBkqr1YqPj4/LstVqxcPDg1KlShVaJnfZ4XBgs9lITk7mzJkz5t+4uDjOnDljrktLSzPP99mfvbzrUlNTsVgsZsDy9fU1P895/zqdTkqWLIm/v795Xs9+7N692/xhQERExJ0sRt6fYUVEriEOhyNfD1F2djbR0dHUrl3bDFg3KqfTaQbDqKgoKlWqVGiw9PT0LNa2ZmdnY7FY8vU2nv03NjaWunXrmuEqb5gVERG5Wil0iYiIiIiIuJGuIBYREREREXEjhS4RERERERE3UugSERERERFxI4UuERERERERN1LoEhERERERcSOFLhERERERETdS6BIREREREXEjhS4RERERERE3UugSERERERFxI4UuERERERERN/Iq7gaIXIro6GgWLlxY3M0QKRYTJkwo7iaIiIhIEVgMwzCKuxEiFys6Oprbb7+dgQMHFndTRK6ohQsXEhUVVdzNEBERkSJQT5dcF/7v//6vuJsgcsWoh1dEROTaotAlptlHsjjjcO8+SnjByMo+7t2JiIiIiMhVRKFLgJzANeqA7YrsK8TLwoPlva/IvkREREREiptClwCQZP/n0r5qvh48UP7yfTSS7DAnNstcPpThvGx1i4iIiIhc7RS6JJ9DmU6Wxdt5vbYvHUt4XlJds49kuQSuG1FWVhY+PhpSKSIiInKj0n26pEA7U5102pHOQ3szXXrBimpDkoNmv6cx6oDtora/FCEhIfj5+REYGEhgYCDly5enR48exMTEXNF2ABw+fJiaNWte1LYvvfQSEydOvMwt+kefPn3YvHnzJdWxfft2ateufZlalMPpdFK7dm2ysv4J64Zh8MYbb5CdnQ1AeHg4X3zxxWXd79mOHDnCokWL3LoPERERuTEodEk+L1bzoapvzkfjoxPZVP81rci9VUl2g4f2ZtJpRzo7U3OGEXYo4cmH9X3d1t6CrF+/ntTUVFJTU4mOjiY5OZmnnnrqirahMHv27CE9Pb1Y25CVlcWuXbto1apVsbajIL/99hvNmjVz6R10Op2MGDECmy3nusOPP/6Ynj17urUdERERTJ8+3a37EBERkRuDQpfk07GkF4daB/BiNR9CvCwk2Q2eibTR7Pc0NiQVPr3h7CNZVP81jY9O5PRGVPX1YH0zfzY086eab/F91Pz8/OjXrx/Hjx831y1atIgmTZpQp04d/u///o/c29VFRkbSvn17SpcuzYABA4iMjAQgKiqKzp07ExwcTKtWrdi6dSsA+/btY9CgQbzxxht07NgRgBUrVtCiRQtatmzJ119/na893bt3v+BemoiICDp06MCff/5ZaPvfffddRo8ebW5z4MAB2rVrh91uz1ff+vXr6dChAxaLxVw3e/Zsxo0bZy4fOnSIdu3akZ2dTWRkJL1796ZixYrcdddd/Pbbb/nq/O9//8trr71mLr/zzju8/vrrACQmJjJgwAAqV65MeHg4e/fuLfRYv/32W3r16uWy7t577wWgXbt2pKenM23aNH799Vd2797NgAEDeOWVV6hVqxZ9+vRh165ddOjQgapVqzJz5kyzjt27d9OhQwfCwsJ48MEHSU5OBiA1NZWRI0cSFhZG48aN+eGHHzh58iRPPPEEe/fuZfDgwQB8//33dOzYkSpVqjB48GDi4+MB+PDDD3n55Zd58MEHqVGjBuPHj+e7776jUaNGNGjQgLVr1wIwd+5cXn/9de677z4qVKjAsGHDyMjIKPQ8iIiIyPVDoUsKNbm6lZ0t/bm7TM6lf7lDDs8eMnj2UMIQLwsvVvPhUOuAS74m7GJlZGSQlpZGWloaW7du5aOPPjJ7Rn755RdGjBjB5MmTWb58Od9++y1z5szB6XTSq1cvOnfuzI4dOwgKCmLEiBE4nU569uzJnXfeSUxMDI8++ii9evUiJSWF9PR0vv32W77++mvGjh1rhov777+fGTNm8PHHH+dr265du3jooYeKfCyxsbGEh4fz6KOP0qhRo0Lb36JFC95//31zCN6yZcsIDQ3Fyyv/pZvLly/P11N0880389577+F05vRQfv3111SoUAFvb2+mTZtG06ZN2bVrF+Hh4YwZMyZfncePH+fIkSMuy0ePHgXg/vvvx8fHh/Xr19O7d286d+5s9lqd7bvvvuPOO+90WTdnzhwgp4fLz8+PPXv2EB8fT1paGosXL+bkyZMsXLiQffv20b59e0aOHMnbb7/Nc889R0pKCsnJydx+++3cfffdbNy4ER8fH4YOHQrAZ599RlJSEtu3b2fcuHE89NBDlCpViokTJ1KjRg1effVVDMPgueeeY8yYMWbgzm3TiRMneOWVV2jXrh3z5s1j9uzZjB8/nnfeeYfevXszduxYICfEjh8/nocffpgff/yRPXv28Nlnn53rrRcREZHrhSFiGMaLUZkG65IN1iUb60/b872+/rTdqPpLqlmmxE8pxkfHs4wH92SY61iXbNy9O92IznAUuH1umRejMi9bu6Oioozq1au7rAsODjYAl0eFChWMxMREwzAMY9CgQcbzzz9vll+yZInRunVrY9OmTUaJEiUMp9NpGIZhnDp1ypg+fbrx888/G4GBgYbd/s95qVevnrFs2TJj27ZthpeXlxEfH28YhmEsXrzY6NSpk1nu448/NipXrnxRxzZ58mTj8ccfN+rVq2dMnz7dXF9Y+w3DMGrWrGmsWbPGMAzDaN++vbFw4cIC665bt66Rlpbmss7hcBgVK1Y0Nm3aZG7/1VdfGYZhGOvWrTNsNpvhcDiMH374wbBarYZhGMa2bduMWrVqme196qmnzPpefPFFY/To0UZkZKRhtVqN06dPm681atTIWLVqVb52HTx40Gjfvn2+9Xa73QCMlJQUwzAMo2vXrsbnn39u/PLLL0aJEiUMhyPnM/f0008bvXr1MrerVKmSsW3bNuPdd981brnlFnP9qVOnDG9vbyM1NdWYOHGi0bFjRyM2NtYwDMPYt2+fYbfbjTVr1hjNmzc3DMMw0tLSjJ9++skwDMOw2WzGiy++aISHhxuGYRhTp041evbsadbduHFjY9asWYZhGEZkZKQRFBRkGIZhjBo1yhgwYIBZ7rvvvjPuvffefMdaFAV97kVEROTqpZ4uKZKOJTzzDTl8cG+mOZSwSWDOUMJvGvsV61DCXJs2bSI7O5vs7Gyio6Px9PTk1VdfBXKG3c2fP5/Q0FBCQ0N59NFHiYuL49ChQ9SrV88cclemTBnGjBlDdHQ0zZs3x9Pzn167mjVrcurUKQCqVatG6dKlgZxhe23atDHL3XrrrZd0HO+88w42m439+/eb6wprP0Dfvn1Zvnw5iYmJbNu2jR49euSrc+fOndSuXRt/f3+X9R4eHvTr14/ly5dz6tQp/vzzT7PHKT09nc6dO1O2bFkmT55cpLbnDms8cOAAdrudOnXqmG0+cOAAJ06cyLdNQUMLz6dChQp4eOR85qxWKw0bNjRf8/LyIjs7mwMHDvDHH3+Y+2/QoAFOp5OEhASeffZZgoODqVatGq1bt2bHjh0u7zXkDFHdunUr9erVo2rVqixfvtzl9cqVK5vP87Yhd/+58k46Ur16dTZt2nRBxyoiIiLXpuL/dizXlNwhhw/8fXPjEC8Lr9eysrNl8Q0lLIinpydeXl54eXlRrVo1HnvsMfN6qJCQEF566SXi4uKIi4vj+PHjbN68mfr167tc95WSksLixYtp2LAhsbGxLvXv37+f1q1b59tvjRo1XIbY5V4Tlle3bt1YuXJlkY5j6NChbNiwgc8//5wtW7acs/3wT+hauXIlXbp0ISgoKF+dBQ0tzNW/f39WrFjB8uXL6dWrF1arlfT0dAYMGMC4ceOIj49n4cKFLteC5ZU7NBEgJiYGwzAICQkhODiYEydOmG2OjY2lf//+F9S2wpwdkAoSEhJC165dzf3HxcURExNDWFgYWVlZLF26lJMnT/Loo4/y6KOP5guEGzduZNq0aaxcuZLjx48zcuRIl3NQlDZAzmcq1x9//EH58uWLeJQiIiJyLVPokgtWzdeDj+r7YnQKIqldIM+EXf33oAoNDSU1NRWATp06sXTpUlJTU7Hb7YwaNYpx48bRrFkzsrOzWbduHQBvvvkmP/74I02bNsVms7FhwwYgZ/bBjIwMGjRokG8/PXv2ZO3atRw8eBC73V7glON9+/alfv36RWp3WFgYVapUYfTo0QwfPhyn01lo+yHnuiyAGTNm0Ldv3wLrPFewadWqFampqcyZM4cBAwYAOdeUeXh4cMcdd2CxWPj000/NiUfyqlq1Ktu2bSM1NZX4+Hh++OEHABo3boyHhwfffvstkBNYa9WqxcmTJ122T0pKIi4ujjp16uSr22Kx4OHhcdGzPnbq1In169ebtw1YuHAhHTt2xGKx8Oyzz7JgwQJKlSrFkCFDKFmyJKmpqXh6epr727dvH02aNKFmzZrm+1rQOTifFStWkJ6ejs1mY9GiRbRt2/aijkdERESuLQpdckMoXbo0f/zxB6dPn2bEiBEEBARQtWpVqlevzs6dO/nPf/6DxWLhlVde4c4776R27dp89dVXjBo1CoDJkyfTtWtXWrZsSadOnZg2bVqB+6lTpw4dO3akfv361KpVi8DAwHxlhg0bRo0aNS6o/WPHjuXEiRO8++67hbY/V9++fYmOjubuu+/OV8+xY8ewWCxUqFChwP1YLBb69evHiRMnuP32281j6tKlCw0bNqRx48akpaVRuXJlXnjhBZdtu3fvTkJCAtWrV6dTp0506NABgMDAQN577z2GDh1Ko0aNuOWWW5gyZQpVqlRx2f7777+nW7duBbbLw8OD8PBwmjZtSlpaWtFP3N9uvfVWnn76aWrXrk2DBg0YN24c77//PgBPPvkkzzzzDC1atODmm2+mR48e1KpViyZNmnDmzBl69epF3759OXToEM2bN6dRo0a0a9eOHTt2sGzZsgtqR7ly5WjQoAG1atXiyJEjLu+biIiIXL8sxsX8XCvXncnRNl46lHMvrvXN/C/7UMENSQ467cjpNXixmg+Tq1svS73R0dHcfvvtREVFXfC2hw4dIjMzk3r16rmsz8zMJCkpKd/Qr+TkZA4fPkytWrXw8/M7b91+fn6UK1fugttVVIW1f+bMmRw4cIB58+Zd1v3FxsZSsmRJAgICyMrKIj09nRIlSriUMQyDY8eOUalSpXzbp6enExkZSdWqVfNtV1RJSUkXvS1AfHw8R48epX79+i73AUtOTubgwYPUrVvX5Vo3h8NBenq6OUzz4MGDVK1aFS8vL5KTk/Hx8cHXt2j3oHv22WcpUaIEzz//PKdOnSIsLOyij+NSPvciIiJy5eWfS1pueB8fz+bHc9yP62IcynCev9AVVq1atQLX+/r6FnitTXBwMI0bN76kui+ns/eRlZXFhx9+yBtvvMH//ve/y76/vJNF+Pj4uISWXBaLpcDABeDv70+TJk0uqQ2XErggZ3KUMmXK5FsfHBxMs2bN8q339PR0uS6uZs2aLttcDF9f30sKXCIiInLtUegSAEp4/TMpQO6MhFdiX3L5GIZBTEwMX3/9db7eLyl+4eHhRe4VExERkeuLQpcAmJNh5L3psTuU8LJcExNvXIusVitTpkwp7mZIIcLDw4u7CSIiIlJMFLrEdC2HIYUNEREREblaKXTJNW/gwIFkZGQUdzNErqiBAwcWdxNERESkiDR7oYiIiIiIiBvpPl0iIiIiIiJupNAlIiIiIiLiRgpdIiIiIiIibqTQJSIiIiIi4kYKXSIiIiIiIm6k0CUiIiIiIuJGCl0iIiIiIiJupNAlIiIiIiLiRgpdIiIiIiIibqTQJSIiIiIi4kYKXSIiIiIiIm6k0CUiIiIiIuJGCl0iIiIiIiJupNAlIiIiIiLiRgpdIiIiIiIibqTQJSIiIiIi4kYKXSIiIiIiIm6k0CUiIiIiIuJGCl0iIiIiIiJupNAlIiIiIiLiRgpdIiIiIiIibqTQJSIiIiIi4kYKXSIiIiIiIm6k0CUiIiIiIuJGCl0iIiIiIiJupNAlIiIiIiLiRgpdIiIiIiIibqTQJSIiIiIi4kYKXSIiIiIiIm6k0CUiIiIiIuJGCl0iIiIiIiJupNAlIiIiIiLiRgpdIiIiIiIibqTQJSIiIiIi4kYKXSIiIiIiIm6k0CUiIiIiIuJGCl0iIiIiIiJupNAlIiIiIiLiRgpdIiIiIiIibqTQJSIiIiIi4kYKXSIiIiIiIm6k0CUiIiIiIuJGCl0iIiIiIiJupNAlIiIiIiLiRgpdIiIiIiIibqTQJSIiIiIi4kYKXSIiIiIiIm6k0CUiIiIiIuJGCl0iIiIiIiJu5FXcDRARERERKU5JyTY+XvQXSck2t9TfoXVlOt4Wlm/9zr9Osex/By6p7mphIVQLCy50v3J1UOgSERERkRvWoSPJNOvyCUln3BO4cj3YvyEfzg43l5+ZtIE572536z6bNizL+q/6USLY6tb9yPlpeKGIiIiI3LC++d8BtwcugI/O6klzd+CCnJ60jxb95fb9yPkpdImIiIjIDetKBK5cO/+Mu2L7ynUlj08Kp9AlIiIiIiLiRgpdIiIiIiIibqTQJSIiIiIi4kaavVBERERE5G8P9GvAg/0bXpa6npm0gV1/nTpvuSYNyzL75Y6XZZ8fLfqLj7/cc1nqkstHoUtERERE5G/VwkIKvKfWxSjqVO0lgq2XbZ8bfom9LPXI5aXQJSIiIiLyt4+//Isff708wWXXnvP3cgEcjk3mpZm/XpZ9Xq62y+Wl0CUiIiIi8rdDR5I5dCS5yOXv7laTpg1DC3ytQ+vKLsvVwkLM5y+Obu3ymmHk3z4p2cbOP+PY+dcpziRr6vdrmUKXiIiIiMgFGvnIzUwe07rIQwjPNnlM6/MX+ltSso3Z/91+2XrD5MpT6BIREXGDpKQk5s+fX9zNuGr9+9//Lu4miFy0kY/c7DLxhbuG9IUEW2nasCwlgq1MHtOaamHBPPTMKrfsS9xLoUtERMRNEhMTeeihh4q7GVedDz/8sLibIHLRQoKtZuDa+dcpOvX+kqQz7hv6Vy0smK8/vJumDcvyYP+GTJ7xK4djiz78Ua4OCl0iIiJuVLVq1eJuwlXlzJkzxd0EkUuSdzr5yTN+cWvggpxrzJ6ZuJ4NX/Uz969hhtce3RxZRERERKSI8l7D5e7AlUszEl77FLpERERERETcSKFLRETkGnGpQ/OmT5/Oli1bAHjmmWc4cOBAgeWSk5NZunSp+Vi+fDkAS5Ys4ffffwfg7bffZvPmzZfUHhGRG4VCl4iIyBUQHx9PQEAAqamp5ro1a9YQGhrKl19+ec5tMzIy6NKlC71792bjxo106dLlgvd/5MgRXnnlFV5++WX69OnDxo0bGThwIH369DEfmzZtAsBut3P69GkmTZrE6dOnmThxIgD169dn4sSJOJ1OPvjgAxo2bHiuXYqIyN80kYaIiEgxWLt2LYMHD+a9996jV69e5yy7b98+oqKiOHjwIBs3brzgfWVkZPDAAw9wzz33MGrUKADWr1/P3r17efLJJwHw8vKiXr16AGRmZtK8eXP8/f1p3rw5np6eREZGsnTpUtLS0nj66afJzs5m/vz5PPfccxfcHpHr1QP9GrjcAPliHTpyho+/3HMZWiRXC4UuERGRs0RERFC6dGlKly7tlvrXr1/P0KFDWbBgAV27djXXr169mlmzZhEdHU2bNm2YPn06Xl5ePP744yQlJTFgwAAzJAGkp6czbNgw7r33Xvr161fg9qVLl2bKlCmUL1+eqKgovvnmG/MYjx8/bi4HBQVRv359AHbs2MGGDRtISEhg4cKFJCQksG3bNpo1a0azZs145plnmD17Nt7e3m45PyLXqjs7hdLvnpsvuZ4NvxxR6LrOKHSJiIjksXbtWpfhfrnhKywsDH9/f+rUqYOfnx9hYWHnrcvpdOZbt2HDBh588EGef/55l8BlGAbjx4/nP//5Dy1atGDs2LG89dZbTJgwgfHjxzNp0iSmTZvG4cOHAcjOzmbgwIFUqVKFfv36Fbr9pEmTGD9+PNu2beOpp55i3759ABw7dozTp0+byyVKlDDbEh4eTv369dm7dy/jxo3jl19+4f777zdff+GFF+jZs+cFnlnX85KQkOASaiMiIlzKJCQkkJCQUKT6zg7IZ9eVW198fHy+9XXr1nVZrlOnjvncz8+PjIwMc/nIkSPmcnp6OkeOHClS+y5EQW2/EHnbD5if2/OVK4q85znvuYD871fe812mTBlzu7x1FPTfUd56856L/fv3u5SLjY0lPT39vG329/encuXK5vPc/eXdd1E/Z7lWrFjB8ciP/m5jGPDP+Z3z1pd8+uknWK1WypYti6+vL6GhoVh9fCgbGorVaiU0NNTleHOPByAmJgaAXX+dAv4pB/DYY49Rp04dfv3VckHtjYiIYMUK12Ms6PNb0GcvLCwMPz8/l3OX+9mpXLmy+dk6+/3PyMjIV7+fnx+33377BbX9eqLQJSIiksfZX+Ryv0xczJdhPz+/fOuGDRtG9+7dmTdvHo888gglS5YEcr6kzJkzhzZt2pCVlUXNmjXZsmULnp6eVKpUCW9vb6pUqcLhw4dxOBwMGzYMb29vZs+efc7tAfOLUcuWLc3hhevWrWPv3r0MHz7cbNuJEycoX748kZGR/Otf/8IwDEaOHEmjRo0AePzxx/njjz84cuQIbdq0oX379rzyyisXfF5sNhvjx4+/4O3c4VJDztXm7OO5Go6vONuQnp7usv+dO3fmK7Ntfxng8vRq//Jn6FlrbEBu+DhYhBpyA9XZ9eSIiIggIeHC2hsREcHy5fl/cCiKvMGnepe0AAAgAElEQVSpoHN3oZo2beq2EQRXO4UuERGRAoSHh9OtWzeOHj1KRkYGBw4cICMjw1w+duzYeeuwWPL/Ij1v3jzuvvtu2rdvz+jRo/nggw+AnIC2fft2hg8fTnJyMhUqVKBMmTIF1rtlyxZOnjyJ1WrF4XDg4eFx3u0rVapEmTJl+OSTT4CciT2CgoLMZYDbbruNXr16Ub9+fUqWLMnAgQNp1qwZAGlpacyfPx+AJk2a8PPPPxfxTObn4eFByZIlOX36tLmuYsWKLiG1VKlSlCpVqkj1JSYmkpiYaC7XqlUrX5nC6ss7g2Pu+5t3ubA2+fn5UalSpSK170IU1PYLcfaMlLmf1/OVK4rExETzPTvf+5V3OW8b8r5XBf13lLfeSpUqmc/PPi9FPU9539PCnkfFXdi8cuHh4UwY2QKAvQO/5XjC+f8tuBxef/11Dhw4wLxPoti2P6rI29WsWZPw8OYu6wr6/BZ0TnPfu7zvW+5n5+jRo2RmZgJQsmTJfP995a1v1apVADds4AKFLhERERe5vUK5XxJzv5hc6JfhM2fO8Prrr+db37VrVzw9PZk3bx7t2rWjT58+3Hnnnfz888/MmjWLtWvXUqNGDRYuXFjorIa1atXil19+oVOnTrz99tuMHDnynNtv27aNVatWERwcbNaxbt06WrZsSdmyZc11UVE5X+R+/fVXduzYQWxsLK1atWLXrl1MmDCBU6dOmceWGxbvvvvuC/4iZbVamTRp0gVt4y6XGnKuNhcbTtypONvg5+fnsv/GjRvnK3PGsZU1m7deyWZdtFq1alGqVBJQ9NBVq1YtunVrcVH7u1w/LOSGrhuZpowXERHJI/e6hbw9Hu5w0003MXLkSJ5++mnOnDlDREQEjRs3pkaNGtjtdpYsWYJhGAVuW7ZsWfz9/Zk+fTpTp07l+PHj59w+NDSUli1b0rJlSzw8PFi3bh2lSpXCz8+P7777jgYNGtCyZUuaNm0KwLvvvsuUKVNo374977zzDnfddReGYWCz2bDZbPmei4jIuSl0iYiIFJPx48cTFBTEc889x3333UdMTAxt2rShRYsWtGnThl27drFixYpCt2/fvj2dO3dm3Lhx59w+LCyMUqVKsXz5cvbv38+yZcuoUKEC/fv3Z+bMmcyfP599+/aZsxdOnz6dW265hQMHDvDFF1/w119/ERISwhNPPMETTzxBiRIlzOeFDYEUEZF/aHihiIjIFVCmTBnS0tJc1vn6+rpcnL5z506ioqKoUqUKXl5ePProo3h7e+Pr68vWrTnDn9q1a8cPP/xgbvP555+fd/vVq1fz2WefMXr0aG666SaXNrRq1YoVK1bw1VdfMWbMGD755BNKly7NyZMnsdvtpKamkpWV5Y5TIiI3gNyh2gVNLHQjUegSERG5itSoUcN8HhQUdFm279q1q8v09AATJ06kXLlyQM6Nkfv160e/fv3M12vXrs0XX3xBqVKluP/++/Hx8TFfW7x48QW3S0RuTLlDtYtym43rmUKXiIhIHrmTQuSdWe96lDecFcTb29ucjSwwMNDltYu5x5OIyI1M13SJiIjkkRu68k5BLiIicikUukRERERERNxIwwtFRETcaPbs2cXdBBGRYqOJNHIodImIiLjJQw89VNxNEBEpVppII4dCl4iIiBuEhIQQEhJS3M0QEZGrgEKXiIiIiMjfxo9owYSRLYq7GYWaMPLc7ZsyZytT5269gi2SotBEGiIiInmkp6cDOTcuFhERuRzU0yUiIpJHbGwsAJUqVSrmlohIcfjsq/1s/O1Yoa8P7l2Xwb3rXsEWufp06X4+Xbq/0NdjjqZcwdZIUSl0iYiIiIj87XBsCodjCw8u7VpVvIKtye9wbMo5Q6FcnRS6RERERET+1q5VxXMGq/a3Fm/oytl/4dd0bfztmELZVUihS0RERC6Kw5GNzZZKVlYaDkcWhmFgsXjg6emD1RqA1RqIh4e+asi1pV2rilf1RBrnC4VT5mxV6LoK6V9CERERuUAG6elnyMxMxum0YxgGYOS8YjhwOjOx221kZqbg6xuCr28QFouleJssUkQxR889fK9KpSCqVg66gi1ydTg25ZzXbemarquTQpeIiIgUmWEYpKXFY7Ol4XTaCyuFYRjY7ZmkpaSScToJz+xT5AazvLwDquDh5W8ue3j54RNYpcBas1JjcNozCm2b7cy+Atc77eku+8i7z3PtT25M55uoorinlP906X5NCX8NUugSucEtXryYPn36YLFYmDp1KmPHjsXT09OlzO7du4mOjj5nPV5eXtx1110ALFiwgKFDhzJkyBA++eQTPv74Yx544AFmzJhBx44dadGieIdtrFq1ilatWlGiRAkWLFhAhw4dqFq1qkuZY8eO8fvvv5+3ro4dO+Lv78+SJUsKfb1ChQoAzJ49m7Zt2xZ4/BEREXzwwQe8+uqrBdYTERHBsWPnHy5y22234ePjA8C2bdtISEgotGzr1q0JCiq+X2uvVvv353zZqlWrVjG35OqUkZGUE7gyzsCBnzHKVMNSpjp4ehdQ2oJh8cKODxlnDmE/veOKt/dS+QS6hsKz2TPjsWfGF7hdheYvubNpInINUegSuYF9/PHHLF++nL59+wIQFxfHvHnzeOqpp1zKvfPOO6SkpFClSuG/Bvv6+pqhKyIigvXr17Nnzx5WrVrFwYMHgZyw06NHj0tu96pVq3j//ffJysqiS5cuPPDAAwQGBhZp23379jFq1Ch+++03AIKDgxk9enS+0PTzzz/z5ptv0q5du3PWd8stt+Dr60tiYmKBr2dnZzNhwgSmTJlCVFQUjRo1KrBcWloae/fuLXQ/M2fO5NSpU+d8DxYvXszWrVvNkLd9+3YiIyPzlTtw4ADr169n9+7dhYauN998k5UrV1KuXDnuvPNO+vXrV+h+5cbhcGSbQwodeJCZEEfm74cwsn/HYvHAbrFgK18Gv+Y3UbZ86N9bWbB4B+Nbrj3W4JJYDJtLnba0OBz2THPZabeRmRZX4P59A0Lx8LIW2j7/kIL/+/D0suKw/7PfvPvMzjxDti250DqzUmMKfe1cLnY7Ebk+KXSJ3KCOHDnCq6++ysaNG811L730Eq1ataJv376UK1fOpfy//vUv6tSpg9VqpWTJkub6999/n9DQUHr27AnA8ePHyc7OZs2aNRw/fpz169djsVhISkpi79699OnTh9TUVOx2O8uWLaN58+YAZi9OxYrnnhVq//79DB06lPHjx9O2bVvGjh1LamoqY8eOPe8xZ2dnM2zYMObPn2+GjXvuuYd58+bxww8/0KVLF5fyt99+O+PHjyc6OpratWub63fv3s2SJUt4+eWXzXVNmjThpZdews/PDwCHw0Hbtm2pUqUKy5YtY8qUKS51jxs3jtOnT5vL8fHx7Nq1i8cff9yl3AMPPEDr1q0BePLJJ7njjjsASEhIYPjw4XzxxRdm2a1bXYebPPLII/nOwYcffsimTZv4/fffCQsLK/A8vf/++8yfP5+XXnqJ0qVLM2jQIKpWrUqrVq0KLC83DpstxRxS6OFtxcfbk4zEM2QnnsFhGNgB4uLJPhbHaX8/8PDAq0I5gjreiuEZiF/ZWwjydRbrMVyozLQ4nHlC4dm8rSF4+4a4rNu76TV3N0vkmnHgwAEA6tYtvnubXQ0UukRuQNu3b2fo0KHMnz+fMmXKmOtDQkJ4/fXXueOOO1i0aBENGjRw2e63335jwoQJfPnllzRo0ICEhASmTp3K5s2bzTJBQUGEh4czadIknE4nNpuNXr16ceTIEcqWLcuOHTt4/fXXCQ4ONgMX5IQQwzBYsGDBOdu+bds2+vfvz8iRIwHo27cvixcvPm/oio+Pp2/fvvTu3Zv27du7vDZ//nx69erF5MmT6d27t8trhw4dolevXkyZMoX77rsPgBEjRjBhwgSXcgkJCdx222289FLOcKIdO3Ywd+7cQtvTu3dvbLacX94jIiJ49913KVWqFFFRUbz44otmuZo1a5rPnU6nOcwzJiaGuLg4czk4OPicxw8waNAgDMNgzZo1+Pu7DpdasWIFq1evZu7cuezYsYMJEyaY56J9+/b88MMPN0zoOnLkCKCbIxfEZkvH+PuyLIuHB96eHnhaLGT/fQ2XB+CVloEl7SiZABYL3smpBHW8FQzIyLYQ5FuMB3ARfANCz19IrmmDe9e9oGngq1Qq3mHZ11p7JYdCl8gNZvPmzTz88MN89tlnNGjQwPzin6tz587897//5Z577mHp0qU0btzYfO3uu++mfPny3HfffUyfPp3vvvuOkSNHUrZsWbOMxWLh008/Zfjw4UyfPp2aNWuycOFCypcvz759+4iPj2f37t0MGDDAZb/vvPNOkdo/cOBABg4cSEJCAn/88QczZ87kmWeeOec2Z86coUOHDrzwwgvcd999+Y65YsWK/O9//6NPnz6kpKTw4IMPmq/VqlWLDRs20Lt3b/744w/q1q1LqVKl8vWKWa1Wvv32W7O3KT09nZtuuqnQNuW9rmvWrFm8+OKLvP322zRt2pTs7Gw6duyYb5u0tDSeffZZAI4ePUpSUpK5nDu081w2bdrE4cOHC3zN09PTvBbszTffBHKC3ZYtW1i+fHmRehKvFxkZORM15PZayj8cjiwKmgwjl+Xvh8kwwJ7TM2YA2Q7NYChXn6qVL99shIPuq3vZ6ipssozL2V65chS6RG4wDRs2ZN26dbz22mv89NNPJCUlkZycbF4rFBcXxzPPPMO6devMa4PyatWqFWvXrqVLly5kZGTwxhtvuLx+6NAhevToQdeuXdmyZQtPPfUUWVlZ9OzZk8mTJ7Ns2TJ27drF+PHjXbbz9b2wn7/XrFnD8OHDsdls5x2yEBISwjfffMOWLVto06YNdrud/fv307BhQyDnS3bNmjVZt24dKSn5p9otV64ca9euZdCgQUyZMoU///wzX5nQ0FBmz56db73dXtjsbjmWLFnCTTfdRGhozq/pzz33HD169GD16tVmCMoVFBTE119/DcD48eNJSUlxOf8fffSR+XzIkCF/T+P9j4SEBAYPHuyyrnfv3tx77710796d7t27u7w2Z84c3n77bWrUqEFIiOvwKbkxGcalDQ10Ggpdcn0b0qfuOe+hdSE0Q+H1RaFL5AYTFBREUFAQs2bNAmDUqFHUr1+fRx99FMiZsCEgIIDKlSsXuH1WVhZvvvkmPj4+lC5dmlmzZvH888+br5csWZLIyEgWLVpEUlIS06ZNIygoiKVLl5Kdnc0DDzxAdna2yzVSF6N///7069ePOXPmcP/99xMXF3fO+wDVrl2b2rVrM2jQIJYtW8aiRYtYuHAhkDNkccaMGfj5+RXau7F06VJ27NjBvffey3PPPceSJUvw9v5ntrZHHnmE8PBwYmJiiIqKolOnTixcuJAdOwqfrW3Lli3MmDGDNWvWmBNeBAYGMmLECHr37s2iRYvyDQMEOHz4MF999RW33347L7/8MpMmTcpX5tlnn80XutatW2f2jOU61zV0M2fOZOrUqQwZMoQxY8awdOnSQsteT2JjYwEoVapUMbfk6mOxWPJ9rizVw/CoEoSHw4EzLh7iEsHpzN0AI89sqBZL4b1kIteDT5fu142JpUAKXSI3sPT0dD777DN27txprktKSio0cP31118MGTKEdu3asXnzZux2O127dgUwg5e/vz+1a9fm/fffZ/bs2URHR/O///2PJ598Esjp0cqddCOvF198EcMwXCanKMiMGTMIDQ1l6NChWCwWBg0axJgxY0hKSnKZ4ONc3n77bYYNG+ZyzCVKlCiwbGJiIk888QTx8fH89NNPVKpUiREjRtCnT598wat///5s27YNq9XKgAEDWLt2baFtWLlyJS+88AKffvop6enpJCYmYrPZiIuLo23btiQmJtK1a1e+/fZbly//MTEx9OvXj1mzZnHnnXfy5JNP8txzzzF9+nSX+ps1a5Zvnz4+Ptx8883nPT+DBg3i3//+N40bN8ZqtdK3b19eeeWV8253vUhPTwcUugri6emD3e46xNCveWO8S1XD4XBgO3gIR8QhLI6/e3g9PPAol9OLawF8PBW65Pp2rvt7yY1NoUvkBjZv3jx69uzp0tsRExNjBqmzjRs3jqlTp9KtWzdz3ffff8+gQYN45JFHKFmyJCVKlODUqVNUr16dihUrMmXKFLNH6eTJk/z555+cOHGCjIwMl16lsye3KEyNGjV47bXX6Ny5M5UqVeKTTz7hjjvuKHLg2rp1K4cPH3aZMCMmJqbQHp9Zs2bRsmVLRo8ebfakzZkzhyeffJLffvuNtm3bmmUXLFjAkSNHOHToEB999BHHjx8H4NZbb3WpMyYmhn//+9+sXr2ad999lx9//JGUlBSio6PNa91mzJiBYRhMnz7dDDzJycncddddzJo1y7ym7K233mLYsGHmOb5YkZGRREVFER4eTunSpXnzzTeZNWsWXl5eLFq0SFPGCwBWawAORxZ5O7usVivWAH8Mw8C3YV2y69T4Z7INiwUvL8+/n4O/j0KXXN8a1y9NieDCb2uQ1031SxNyjrLXy/DC3Jl6S5cuXcwtKV4KXSI3IMMweOONN/jiiy9cemMyMzP5+eefmTNnTr5tjh07Zq4/+0bJb7zxBklJSfj6+uLn58dDDz3En3/+aU6ZfvjwYUqXLk2vXr2YNm0ax44dY+DAgSxduhQPDw8gZ3r2oujWrRszZ86kZs2aVKxYkbCwsCL3wvz4448MGzaMr7/+2uUG0KtXr2bgwIH5yp8+fZoRI0YAOdeq5ZXbs5eYmGj2iIwcOZLNmzfz448/MmrUKHNWx/feew/IuXbMYrFQpUoVfv31VwIDA82hgTt27DCvecvVrFkzl6FcCQkJfPDBB1itVnbv3m2uHzFiBBaLxeyhKYjdbsfhcBT6+urVq/nggw8IDw/n0UcfpVu3bnz11Vd4e3vTunVrl8lF5MZltQaSmZmCw5ENgGHxMCfOsFgs+Pj45LsWEXJ6ubw8Dfy8Fbrk+jZ9Yhtd03WW3PtYKnSJyA3nX//6F+np6axevZrAwEB69uxJdnY2MTExDBo0KN9Qu8aNG7Nw4cLz9qZMmjSJzMxMRo4cyYABAzh69CgnTpxg9uzZLF26lOHDh5tDC2NjY/nwww9dhvkVhb+/P5s2beLQoUNYrdbz3tcr14IFC5g7dy7Lli2jYcOGjBs3ju3bt5OQkEDFihUJDw93KV+xYkUOHjxoTk1fmPvuu88MJGPGjDFD5OjRo83rtFatWsX8+fPZtGkT//nPfwCKfDPnvNepffnlly73VTtb7rVIeW3YsIEZM2Zw/Pjxc15HN3z4cIYPHw5Ao0aNiI6OJjIykipVqhS5rXL98/T0wdc3mIyMMziddux+pfD08sXjfNt5GARZnXh6KHSJyI3JYpx9RayIXPfOvoYpLi4Ou91OcHDwJX/Bzs7O/ntIketvOjabDavVet517pKeno63t7d5DdaZM2dIS0vDarVell/f/vrrL3M2xFz79u2jdu3a2O12kpKSCAkJKXSWxoyMDI4dO+ZyX668jh07dt73JyoqiipVqric+9zrxCwWC5UqVTrnZCOSY+bMmURERDB8+HBq1apV3M256hiGQVpaPDZbGmlpqXh7e+X77z2XhZzA5e/jpISfkxvl43f4j89JP3OEck3G4luiXnE3R9yo28Bvr9jEGWkHH78i+7ncRo0aBRT91jDXK/V0idyAzu7Jyp2u/HLIO7FEXgWFqysVuIB8swCGhIRc1mnQzw5cAPXq5XzZ8vT0pFy5cufc3s/Pr9DABeeeZTBXjRo18q2zWq2EhYWdd1uRorJYLAQGlsHDwwuLxYLT6fh7GGzub7gGFixYLODlYRBodRJovXECl4hIQc43IkBEROSGkhtSDxw4UMwtuZpZ8PcvSUhIBfz9S+Ltbc0ZWms4MOzpWL2chPg5KBvoIMj3+gpcmZlZHD5yvLibISLXGIUuERGRPAq7V5vk5+npg79/SUqUqEzp0jVI3/sqGRGzKRfsINjXiZebpoiPPBiD0/nPjZp/3bKbtl2HEX342AWVuRBOp5PHn5lKSOUOVGvYkyoN7mLrjj0XfxAickPR8EIREZE8cnu6jh49WswtkYIknUmhfos+zH3tOZ58pC+Q0/t0Kv40WVnZRS5zoZ6fOJd3PviK/r27UjWsPG+8s4ju943gxIHVeHrqN+wb1eDedS/bbIXXo9x/R2/0mQtBoUtERMRF7vV/GRkZxdySa4+Xb2nsmQlkZ57B2zfnmsnsbDubft1Jp/Ytzrmt0+k0Z/88m82WhdXqQ0LiGXb9EYHD4WTTrztp1bIRTRrVoVP7Fuz5fQmenh5FKnMuP/28nVYtGmHLyiY+IYka1SqRdCaFee8toVP7Fnzx4VQAGtavyQOPvcjv2//i1paNL+JsyfVgcO+6xd2Eq1ruv6MKXRpeKCIi4iL3y8GxY1dmRrLriZdvGQCybWfMdW+9+yWdezzO7T2fIKRSB27pOJR9ETn3vXM4nEyfs4AqDe7CL7QNnXs8zr6IQ0QdOkr9Fn2YMfcTbu/5BIEV2jFj7ic8/ORL3N7zCQA+X7KKFu2H8OGn3/L6WwupXK87DoezSGUA/rfmF5q3G0xwxfbcO3AMSWdS2P1nJB26P8r9D42nXM0u1Lzpbp6fOJcdu/aTnpFJz+7/3MS9VYtGAPyw7jf3n1gRueYpdImIiOSRG7rU03V5pKbmnMcdu/ZzV3hbtu/axxOjcm5oPmnKfJ6fOJfqVSvx9GP9Wf/TVn5Y/xuHY46zL+IQz0+cS8XyZalQvgyr1v7Ke29OZMF/XwagY7vmfPXZdPrd14W9+6M5cTIBoEhlDkbH0qPvM0QdOsrtHW9h2cofmffeErLtdgC+WbGBVi0a0b7NzSz+eg0JiTkhslGDf2YYrV41Z0hZ7LE4d59CEbkOKHSJiIiI2wQHBwCw7IuZLPxgCk892p+t2/eSmWljxtxPuKlRbX78/r906dwKyAkzuRNgTPr3I3zy7su8M2cCDw+5m7JlSjLk/jvx8fGmUoVQ7u3ZiZDgQFJT0/H19cHT06NIZb5ZsQGHw8mvaz/k64UzaNWiEcu/30haWk5ArFm9Mmu+nUfzpvWIiT1Bg3rVATiaJ2DFJyQBUKF8mSt2LkXk2qXQJSIiIm7j75dzQ3BPT08AfHy8Sc/IJOboSbKysrmzaxsASpfKuQYsN/gA3NI85/533bvcxoA+4S51pmdkmsu2rGysPj759ltYmU2/7iQwwJ86taoAEBDgh5eXJymp6QCMfnowXl6e2O0OnE4nlSuVIzgogB279pv1rf3xdwAaN9ANtEXk/DSRhoiISB4RERFA0W5ILefn45Nzw/S1G7Zw7Pgpvli6ik7tW1CnZhVublKP1Ws388DAHmagiTx4hDKlS5yrSry8PF1mIcwNSEUtc1Oj2nyzYgOvzV5A2TIlWf/TVmZMecYMfNWr5bz3ue04fiKeOzq1Yt77S6hQvgxlSpdg3OQ3KV+uNL3ubI9cP77++mseeughl3VOpxOHw8HJkycJDAy84DqnTp2K3W5n0qRJl6uZcg1S6BIRESmA7td1eVj+vjPypCnzAQjw9+P5Z4YCMHrEYMZMmE39Fn2wWCyULBHMoq9W06HtzQBY/w5sZ/Pw8KBcaClzuXxoaUqUCCpymTEjhvDrb7sZ/9JbGIZBk8Z1GNy/O3v3R7vUkXsNV0LiGT54exI9+j7DuMlvAhBWuRzffD4Tb299lbqe3Hvvvdx7773mss1mo1OnTtSvX/+iApdILg0vFBERySM+Ph5Q6LpcDCPnBskzp45ixeLZHNy9jK6dbwVgYN9uxO77jo2r3iP6z2859Ndy3n9rEq1vuYkVi2fToW3zAutcuWQ2r0x+ylyeOXUUf/62qMhlggL9Wb3sLfZvX8pP/3uX39Z9RNkyJWl3WzO2bfzUbN99vTrzw7K3uaV5Q0KCA9m46j1OHlzNgV3fELNnJTc3qVdg+7JtycA/sznKtev555/HZrMxd+5cAKKjo+nevTvlypWjQ4cObN++3Sy7du1aWrRoQfny5Rk4cCBxcfknWYmMjCQ8PJw9e3JurL1kyRJatWpFkyZNmDZtmvnfy+nTp3nwwQepXbs2vXr1Yv/+nJ7gX375heeff55x48ZRp04dunfvzuHDh836C6uva9eufPfdd9xyyy2cOHHCPSdLzkmhS0REJI+EhJwZ7ipVqnT5KjUMcDrBbsfIzMRIScY4nZjzSEnGyMwEuz2nzN9fkq4XuV/6Wt7cgLvC27r0PkFOj1Tb1k2pGlaB4KAAbmneEC8vT+4Kb4uXl2eBdbZo1oDQsv/U4+XlSYmQoAsuU7tmFdrd1gyrNedaL4vFws1N6rncL+yOTre4tCO0bClqVq98zmPOzsyZ7VCh69q2ePFiPv/8cxYuXEhAQABOp5M+ffrQrVs3IiIiePjhh+nbty+pqanExsYyZMgQXnvtNf766y/KlCnDY4895lLf0aNHufvuu3n44Ydp0KABmzdvZsyYMUyYMIElS5awcuVK3nrrLQCGDh2Kt7c333//Pffccw/du3fHZrNx+vRp5s2bR0hICGvWrKF27dq89NJLAOesb9euXfzf//0fTz75JCVLlryyJ1IADS8UERFxP4cDZ9JpnMdjMeJO4Ew8hZGWBoAlIABLqbJ4hJbHo2JlPEqUBM/r53/Pudd0+fpai7klIkUXGRnJU089xRtvvEHdujk3QN6yZQuxsbE89dRTeHp68sADDzB79mx+/PFH9uzZQ6tWrejcuTMAL7zwAtWrVyclJQXI+TGnR48ePPbYY/Tv3x+A//73vwwePJhevXoB8OyzzzJ37ly6d+/Ozz//THR0NCEhIdSqVYt58+axadMmAMqVK8fYsWOxWCy88sorNGjQAKfTWWh9Tz2V0+M7fvx4evToceVOog+8gqkAACAASURBVLi4fv5VFxERuQxyJ9K45J4uwwCnA+eZJOw7t+LY+weOQwcxEk6BPfufHi2LBby8sZQui2e1mng2uAnvJs2xhJQED4+c14to27ZtAEyZ8gqnzyTTqHEz/ti1lV4976Jr1640atTo0o7pItxzV0eWfTGL5k0LHooncrXJzMxkyJAh9O/f3wxIAIcPH6ZZs2bmTJwANWrUID4+nkOHDtGiRQtzfWhoKAEBAZw6dQqA999/n6pVq5r/vgBERUXx3Xff8cknnwDgcDgoWbIkUVFR2O12brrpJrNsamoqJ0+eJCQkhJo1a5rXSgYEBODh4UFERESh9eW6+eabL+dpkguk0CUiIlKAS76my+nEEXuYrBVLse/5IydsFTZ00GbDSEvFeeQQjj27cezdjc9dvfGsXBU8Cx5iBznDiX755RcGDhlGk0Z1CS1Xgbfe/ZJmt3SkUeNmlClbjuo169OiVRvuubcHVh8ftm/fzs8/bzR/kXc3Pz+rZviTa8qYMWPw9PRk+vTpLuvr16/P0aNHXdZFRkbSqlUrUlJSzOu0AI4dO4a/vz/Vq+fc423gwIFMnDiR5s2b89BDD9GiRQuCg4N54YUXzJ6orKwsUlJSOHDgAEFBQURHR5tDXRMTEwkICGDNmjVm7xnAqVOniIuLo1y5coXWJ1cHXdMlIiKSR+41XaVKlTpPyUIYBjgcOPb9SeYHb2Hf8gtGYkLRrtUyDJyJCdh/+zln2/1/gcORs97pZNOmTUybNo3wbnfywYLFPP7k02zbtY/ft+/jvQXf8vZ7i/Hx8SK8W08qVaqM1cebtu064evjw8eff8eY8VPZsuswY8dNpFy58sQnpvL555+bxyxyo1u0aBGLFi1i7ty5pKenc/r0afPRuHFjbDYbGzduBGDfvn1kZGRQr149unfvzrp164iJiQFg5cqVdOrUyeyRqly5MmFhYYwYMYJRo0bhdDrp0KEDy5YtIzU1FbvdztixY5k0aRINGzbEw8ODlStXAjnBrlGjRubEHHv37mXv3r0AfP7559StW5eSJUsWWp9cHdTTJSIiksclhy6nA0dsDJlfLsBxYL8ZmrBYzh+8LBZwOjBsmTgO7OPkO3NYERzKHQ8O5+abG1K7TgOeeHosd3QrTVi1Onz4ydd4eXrg7e2Fl6cHnp7n/i21Yrk22LLsfPzpVxw5EsvcN+azefNP/LXvMHv/2k67trcRHh5O/fr1L+7YRa5xn332Genp6bRvn7939uTJk0yYMIGePXvSuHFjjhw5wrRp0wCoWbMmnTp1okmTJjRt2pSTJ0+yaNGifHU8++yzLFiwgA8//JAnnniCn376iXr16uHv709YWBgLFy4kMDCQt99+m3/961+EhYURGxvLyy+/TFhYGLt376Zq1aoMHjwYh8OBzWbjgw8+ACi0vuKU+++oftgBi2FcZ9MkiYiIXILcGcdef/31i9remRiP7fMPcnq4/p+9O4+P6fofP/66s2ffZE8kiFhipygViqBq1/JpaWl1R6v7qrTl8/u2fGppdfFpSy2tLtTeD4ooraotdhIhESGLJJNlMpnM9vtjzMjIriGW83w8PGTuPffeMxNm5n3P+7yPoeRKwCVXgNViC8IqIpeDJAOzyXGM3mzhiNoL98dfx6BxxdvHC7VKiVpVd/dMjSYz+pJStm/bwu4/dvDSq1OZ8OhwBt43gI8++rBW58o89H+UaE8R0fpfuHo1rLM+3mpO7PoIgIiei+q5J8L1UFhYyLlz52jcuHG5NOSMjAzy8/OJiopymvtVldTUVAwGA9HR0U7bi4uLSU5OpmHDhnh5eQG2EbRPP/2UDRs2kJqaSmRkpGM0rbrz1ZcXX3wRgC+//LKee1K/RHqhIAiCINQFqxVMJkwJ+2xzuEpLrwRcHp5InboitekIrm62Ahl2Mhm4uiG16YTUqSu4ezpGxTQKOR3dlDTMO0fDEH883TR1GnABKBVyPN1dGDpkCB/M/AiVSsWrb86gsNjChi1/ExwcwthHHuXo0aPk5eXV6bUF4Vbk4eFBTExMhfM+g4KCaNasWY0DLoCIiIgKAyRXV1dat27tCLjKkslkNGrUqFzAVdX56otGowHEaJdILxSEm8iiRYs4cuRIfXfjhvv444/ruwuC8M9ZrVi0eZhPlCmaIUkgkyNFt0Q+5inIy8Hyv9VYEvZCsa1kPBoXZO3uQjZgGPj4Yl78OdaEvWAxI1ksyPNzUZ45gTG6NRZPn1pVM6wtpUKOt6crsT26c9ddndGXlPL5Nz9z/OghXnz5Dfbu+YNFS74nLSWR/v37O0ppC4JwY0RHRzN27Nj67kathIaGkpycTE5ODn5+fvXdnXojgi5BuMlotVpat25d3924Ye7EIFO4TVksWC6ex5ySfGXultWK1WrBUFCALC0VTVQ0soEjQJKwHPwbAFn7LsjuG4Y1IIiS04lYCvNRWS1IZc6huJCKPPsiFg8vblSSiotGiYtGibdXM5o2aUS//vdTpNMjl8v5+uuv+WjWbM6nnavw2BJdNmaTAYMuy7FNl5/m+Nmgy0TtFgiAXKFG4xYAgFLjhVJtu6vv6hXuaF9c5tgr28pfW+0WgFyhcdqmVHui1JQfKbi6f9fCaMh3LIQsCDdC06ZNadq0aX13o1bsI4KXLl26qUbgbjQRdAnCTcie/3y7W7RIzHcQbh9WkwlrVoZtlKssiwVz8ikKVq/Ae8TDuLRohWzQA6CwLRosGzAUQsIpOXGU/F9W4HomESwWp1PItJeQ52ZhimiK9YYvnGzFYNBRVKjlwsUL/L5rFyEREXj7+bJ161b69OlT7ojMM1urPWvZoKkwJ6lOeywIws0jNDSUo0ePivTC+u6AIAiCINwWjKVYci8vfFyGBGjMZsxJx8lfvQKUY3Fp2BjZiIdtDVzd0SedJH/1CtSnT6CxWiiXQGgyIcvPRTKWYlWpr+/TMBkpKNBSWFBAYVE+Ot2VdX4kwNPTA602n4N7/2LcQw84Hevid2XxVZnCFaXblWIaGu8riyOr3BtSWmQLuiymYsfPRt05LKZiAEq0p8ocWz6NUe1VfrHlssfblRadw2LSO21Lz9SRkWNG4RJAi6aBeLo7j46dv6glPSMfD3c1LZsGlbuOnULdALmmQbnt5pJLWMzFFRwhCHce+0iXXq+vpuXtTQRdgiAIglAXTCasOh0VFQWWYcXNYsF66hjan79D/tgzqENs6XOG9DS0K79DfeoYbhYTsormbFmtUFxceeXDf8BQaqCwQEtBYT5FhQUU63VVtg8ODECrzcfXz7/cPs+wfniG9eO1115j2bL5tGnTxmn/zp07mThxIh999JFTENZn8ERHKeyGDZ2rHk6cOJHBPQc7bVu/fj2HNxyusH+tW7dm8GDn9gMGDHCsrXS1Hj168Ntvv2EpM7rYuFvlC2Pb+19Wy5YtSU1NraD1m+zevbvc6yAId5LQ0FAA0tLKpwnfSUTQJQiCIAh1wGqxYDUaoZKFWGSShIdahUqjRiZdmZclk8nw0KhRq1VIJZUEVVYrVlOpreT8P6TX6yko1FJYmE9RUQElJbW7++x9uZKawVBSaZvDhw+Tn59fYaBz9OhRXF1dnbbl59vmRaWmppYLXiRJYsSIEU7bRo8eXem127RpwwMPOI/AHT7sHKBFREQQGRkJwLBhw1CpVE77hw4dilarRavVcujQIad9RUVF5fpfFftzE4Q7lRjpshFBlyDcxLp06cLBgwcBMBqNKBQKR3nYAwcO0KpVq1qdT61Wk5qaSlBQ5ekyiYmJLFiwgKSkJO69915efvllZGXKW2u1WkaPHs2mTZuu4RkJwm1MkrDIKilyIZOBWoOsVXvcBj8I3j4Y0m13fZW+frgNfwiLQoH16EEwlJSb0wVgQqLEaASTEZkkQyaTnIK3yuh0RZeDrAKKigooLTX8o6ep0ajRaNToigqrbTtnzhzatWvneNyuXTu8vb3LtUtJSXH8bf/ZztvbG6VSWe68Wq22wmsOGzasXLnuytpWZvXq1bVqf3Wf7dt+++03evToUatzCcLtRox02YigSxBuYnv27HH8HBwczLfffku/fv2u+XynTp3C3798SpBdUVERQ4YMoW/fvsycOZNp06aRnZ3NRx99hMFgYOnSpfzwww/89ttv19wHQbhdWeVyrC6uWCXKz8lSa5DadEA2cARSRCP0SSfJ+2k5AD4PjsGlaXNk94/EIklYjxwAvfN8ICtgUqmxymRYLRYsWMAMEhIymQy5TOa4OVJYVEBBQb5jJMt01RyzuqDRaLg79t5Kyz+PHTuWRo0aMWXKlFqdNzIy0jECVZXanrc+REZG8sgjj2C+DimhgiDcesTiyIJwi9q8eTOtWrXCy8uLkSNHkpmZCcD8+fOZM2cOI0aMIDg4mAkTJjiG9MePH+9IddmwYQPNmzcnPDyc559/Hr1ez6ZNm/D29ubTTz+lffv2vPzyy3z99ddYLBYMBgPHjh0jPDy80j4Jwp1MUqmRfPwwS1ctiiqTI0U1R37fcAgKRX/iGPk/LUOTeBRN4lHyf1qO/uQxCA5Fft9wpKjmIHM+h1Emw+Tpg1XpnAZnxYrZYqbUZKSk1MDfe3dx7NhB0tLOoNXmXJeAy27379srrUY2duxYUZ1UEAQA0tPTAQgLC6vnntQvEXQJwi0oLS2N0aNHM2fOHJKTk/H39+exxx4DbCktb731Fo8//jg7duzg+PHjLF9uu6O+e/duSktLSU1NZfTo0cyaNYvNmzezd+9e5s+fz+nTp51SgZo0aUJubi6XLl3C09OTOXPm8O6779bLc/4nUlJS2LFjR313Q7jNSQoF+Adi8SqbPidhlcAoSRjdPdEnJ6Jd9R3qxOO4W8y4W8yoE4+hXfkd+uQkjO4eGCXbMfbxMitQ6uqJydsPrkqbu5pCoaxyf13x8Sq/7pVQXkVFVQThTmO/8VubuZC3I5FeKAjXWXx8PMOHD8fb29uRNuPt7e0U3PTq1Quwpf/VJBVl6dKl3H333cTFxQHw3nvvERQUREFBAQDDhw9n0KBBALz77rv897//5YknnnAcv2zZMvr27euo8PXJJ5+QkpLC1q1b8fT0dLQLDQ1FkiR0uqqrmf0T2dnZrFmzhoSEhBofY3+9yoqPjwec54TYt1V2fK9evRy/Cy8vL6ffSUJCgmNUMCEhwTEnpOzP1fXL29ubcePGVTiHRbj9SHIZipAwrOGRmDIuoJBJgBXMFgwnjlC4YDYykxGX8ym4Wa2O+ZluVgskHSf/+28wK5R4nD+L6+X3AStgslgpCQzD4h+MJKs66LqRho0a43gPEspbvXo1BoOhXCVFQbjT2IMue0GNO5UIugThOouPj3dUwSo72bqyidoPPvhgtec8e/YsnTt3djwODAzEzc2N7GzboqxlV6tv1KgRu3btcjo+JSWFFi1aOB536tSJTp06sXv3bqd0Ib1ej1KpvK4phfHx8axfv/66nR9wBFT20S57MFZZUHatKjqf1Wq9JeafCHVAkqEKDEbeLIbSownIS0uQrFYkrGhKDZgSjyGTwE0udyoLL10uJ8+ZRCyARiF3BGQWK+RZ4aRFhqfFin9F5eTryeofl9Ora/sKA6/8/HwyMjJo3LhxPfTs5vDYY4+h1Wqv600rQbgV2NML7/TpCSLoEoQbZNy4cYwfPx6wVdIqO7Jj/7KekZFRrupWRWJiYjh69KjjcXp6Om5ubo4vOIWFV6qKHTlypFy1whYtWjiVUE5KSiIjI4OIiAinfqWkpBAdHY1Ccf3eKvz9/enTp4/TKFN1Kgpu7FXRyo4iVlQpzf7aV/R32dLQbdu2dRxb9jyVVV+7ul/x8fHs2LGj1lXThFuYJCHJZLh16oruyEFkxxJQW0xIkoRckvBU2v4fVRQ2ySQJ96v2W61WDJKMi75BHDJKnFr0FV5e3kQ3jaZp02Y0bBjhCM5uNk899RTr16/n7NmzNSqMcTsS//cFQShLBF2CcINERkY6pZ8NGzasXJtFixZVuoBnWYMGDWLOnDmkpqYSERHB2rVr6du3r+ML2Pr165kxYwZyuZwffviBe+65p9Ljw8LCeOGFF3j88ccZPHgwr7/+OomJiYSFhfF///d/dOvW7R8+86r16tWLb7755rpeoyxvb2/H76Gi38E/Ufb3O336dDGP7E4kSagCgvDsP5jcS9lwMQ0VViQqDracDr38t/XyHwMSeb5B+AwcxYjoVuiNJk6dOkHS6SR++PE75HI5LZq3ZODA+klfqyq90J6am5KScscGXYIg2Jw+fRoQI10i6BKEW1BUVBR9+/YlOjqaDh06kJGR4ZSuGBgYSMuWLTGbzYSEhPDll186HR8dHc2gQYNo3rw5wcHBtGnThuHDhyOXy/noo4/o2LEj7u7uBAUF1XkK3p3CPtpWm7lqwu1BUijw7NAZU2EBeb+sQHPhHC6ShEIurzbwsgIms5lii5X8BsFYe96HolkbkMtwUShp164D7dp1wGw2c/ZsMqeTT9+Ip1ShqtILBUEQriYKaQiCcEu4ePGi0+Ovv/6aGTNmoNVqiY6OdkpLjIuL47XXXiM7O9vpzpLBcGVR1M8//5yZM2cil8vxKlOJbPLkyYwfP57s7OwK52NERkaKilw1YE9BFClGd6DLaYY+3XuicHMnb/N68o8fRmkoQS1JKOUyp5Ev+8iWyWKlxGJBr1BhiGqBdHdvFNGtbAsrXxWuyeVyoqKiiYqKvrHPTRAEoZby8vIAUUhDBF2CcAsLDg4mODi4wn0ajabaoXxfX98Kt3t4eODh4fGP+ycIdyxJQqbW4HlXV1TBIRTu/5tzG1YjnT+Hh0KOQiZDfjkd2IwVk8WCSanGFNII2nZB3rIdsoCQywHXzUlUL7SlUbq4uKBSqapvLAh3qNzcXECkF4qgSxBuM/3790ej0dR3N+549pEu+9wW4dYRHR1NYmIip0+fJioq6h+dS5JkaELDUfn5k2SVk3YskWCZhKYgBxdrqa2Rqwc0CEIWFom8QSCStx+SSg03aZEMu5shvVCn05GXl+e06Orjjz9Ow4YNmT59eo3bXItvv/2W5557jqlTp/LGG29U2KbsEhyCINzZRNAlCLeZ/v3713cXBMScLuEySUKSK5C7uWPw9uXLrVt57c2ZWOQSHn6XR5NlclAokZRKkN8eH8teN2jx5GnTprFkyRKysrIc23JycpyCnZq0qa2lS5c6qtEWFRVV2Gb79u1OKd2CINzZbo93d0EQBEG4BZgBq0qDVa1C8vSp7+78Iy1bt61036RJk5DJZOWWgjh69Ci+vr6EhIRUeqzFYkFWSVqlxWLBbDajVCo5fPgw6enpZGdns3XrVpo3b05oaCirVq1yzHGtSZvKpKeno9VqadmyJcnJyQQHB+Pm5gZAw4YNefTRR1myZEmlmQW9evWiuLi4ymsIwp1Ao9FQUlJCcXHxHV1MQwRdgnATeumll+q7C4Ig1LHevXvj4h1OXr6OEkNpfXfnHzt+5BDwSIX7evToQVxcnFPwZLVaiY2NJTg4GL1eT3FxMU888QQzZswA4MSJE7zwwgvs2rULPz8/nnrqKaZOncqkSZMwGAy4uLjw888/A/DTTz85LYXRt29fQkNDOX36NBEREbz77rvcfffddOzYsco2EydORKfT8fzzz7NhwwY0Gg0fffQRo0aNYvLkyezdu5fIyEhHnw4ePEh4eDg9e/YkMjKSJUuWoFarr8OrKwi3j9DQUJKTkzl//jzR0Xdu8R8RdAnCTaZ169b13YUb6naeWNu2bVsOHTpEfHy80xpewp1p27ZtTH9/Jm9M+w8ApaUmVKpb92M4JKx2/3clSaKwsJC8vDx69OhBUVERM2fOJC4ujqZNmxIbG4vJZGLy5MmsX7+eefPm8c4773DkyBF+//13oqKi6NmzJytWrABs6Xsff/wx69at47PPPqNDhw7k5uaSlZVFRkYGHTp0qLYNwMSJE/n222/p3bs3Z86cYcKECQwbNgyj0cj58+fRarVMmTKFuXPnsm3bNsaNG+f0vJRKZd28oIIg3NZu3Xd7QbhF1KZ0+GOPPXa9uyPcQPbfvSBUpEinx1d161YJzcy4WH2jq3h4eNC+fXu2bt2KVqvFx8eHPXv2sH37di5dusSqVasYPnw4v//+Oy4uLkiShMViISAggD/++ANPT09CQ0Np3bo1np6e7N69m3Xr1hEXF0dUVBSJiYkAuLu7A7YUv6ramEwm1q5dy+jRo1mxYgWbNm1iwIABxMfHo9PpAJg/fz4jR45k7ty5JCcnl3tOUiUFT+Lj49m7dy8TJ06s9eskCMLt5+atRSsItwlRUOHOtWPHDgAxynWLsa8lo9fr6/S8vXv35sOPv3A8LtTpsVhu3TXvzCZTlfsres9zdXV1zKVSKBRIkkRmZiaZmZnIZDIGDBgAgJ+fnyPoAYiIiCAgIACNRsPs2bMdRTDs80Psc6fshSvKpvxV1ebYsWPk5eU50hDtc7YUCgWFhYWEhITw6KOPYrr8XMv2ya6y+WfTp0/ntddeIzU1tcrXSRCEO4MIugRBEAShDHvKa3p6ep2ed9u2bbz+0jOOxxaLleycW3NJgbz8fO7tN7DSkvqjR4+mY8eOpKSkOG1XqVSkpaWxZcsWXn31VaxWK8OHD2fgwIFYLBYWL17MqVOnyMzMJC0tjZKSkir7oVDYEnZKS0udHpvKBIRVtYmKisLFxYWlS5fy66+/Mn36dHx9fYmNjUWn0xEeHo5cLsfb2xu5XM6FCxcASEtL49tvvwVg06ZNnDp1qtI+njt3rsrnIAjCnUGkFwqCIAhCPSnWGyjS6XF3c6nvrtTa9s0bGTqgN40aNSq3z74+XUpKCpGRkY7tkiRx8uRJ+vXrB9iWuOjevTsGg4G+ffsyadIkLBaLY6Rrw4YNVRaqsI8yBQYGAtCgQQNHkFSTNm5ubixcuJCXXnqJgQMHIpPJWLBgAQqFgqCgIMfomEwmo2XLluTk5ACwZs0aZs6cCcDGjRvp27cvzZo1u4ZXURBuf/bsgTu9mqcIugThOhOL5AqCAM7VC8vKzilApVTe0kU1aspqtdK+fXumT59OUFAQnTp1QpIkNBoNW7Zs4eLFiyQmJtKtWzf2799PTEwMLVq0qPR8jzzyCDExMY7RSX9/fzIyMmjQoEGN24wdO5ZRo0bx+++/07RpUyIiIgBYvny504jZxo0bHXNzJ02axKRJk+r2xRGE21RoaChHjx4lLS2t3DISd5Lb/x1eEOqZmNMlCAKUr15Y1sWsXIIDfG+ZwKukpIRho8YQFxdXq+OsVis+Pj4MGTKkwv3BwcEEBwcD0LVrVwBatmxZ6fnc3d2JjY112lY24KppG5VKRd++fcv1paywsDDCwsIq7YsgCBXLzc0FuKPX6AIRdAmCIAhCvbNYrFzMysXfzwtXlxuz7pPZZOLFyRMxSXJKdQXIXDyw6AuJiWmFl48vjz/5VKXHlpQY2Prrcnp1bV+rwEulUlW6mLAgCLcne9B1Oy8RUxMi6BIEQRCEMtLS0gBbSkxdGzbyoUr3WSxWMrO1eHm44u3ljkxWcSnyuvDJnI85lHAAmW8osoZtCOgyGJWLGzl/reP40e1Yjx3lxPFjzJozr9yx2vyCas/fpk0bdu7cSUJCglP1zuXLlzsqD94pGjZsWN9dEAThJiCCLkG4gbRarVi7SRBucvZS8fbJ33Vp9crveaNVpyrb5BcWo9Mb8Pf1RKNR1Xkf/t8H73EmJRVlZDvavPApjXzLpPy0b01+yWscWPUVOZsWMmP6u7wz/X2n4y9mZAJUmV7o5eVV4fZOnap+7reTuXPnsm/fPsccMUEQ7myiZLwg3AA9e/YExLyuO4n9d922bdt67olwM2nWPKZG7UwmMxez8sjM1mIymeu0DzmFeiSvAPpP/Ypp/ZryaKdQXJRXvg54aRTc+/AzeA94lpSzZ/hk/lzHvpISA5dybKlCq39czpYtWyq8RmxsLEOGDGHYsGF12vdbSbt27XjkkUfquxuCINwkxEiXINwAhw4dAnAqnSzc3uxVzsTIplBWRsaFWrUv1hso1hvw8XLH08P1H6ccvvXaK2izMon693aCPdQ08bONcmkUcvRGi1PbmPsfZfff61Aqr4y2JSWfdaroV5kePXoQFxdX6cLBgiAIdxoRdAnCDWD/Ai6CLkG4s+Vr867puLz8IvILdXh5uP2j4MvF2w9FQGsauKnI0xuZtimp0rb+7ipkEW3Y99dGePY5TpxK4tLldaoABgwZcUelC14Li8VSfSNBuM0lJycDEB0dXc89qV/iFpQgXGfx8fGASDOrilGfTXHucac/ZqOu+gMF4Tq4XnO6AgICeHriy9d8vMViJS+/iLQL2WjzdVgs1lqf41ziCcznj5JXbKy27SVdKcrWcYDEX3v3k5GZ5bT/f2tXsW/fvlr34U6xevVqli1bVt/dEAThJiFGugThBqkozSw76SeKsvbhEXhXuX1KF3+ULv7/6JrFucdr1E6Xc6zcNovJtnK8TFHxuhoaz0jkSrdy281GHSUFKZVey2IqrnJ/ReRKN9QeVyajV3ZtmcIVjWfFo4klBSmO5wRQWpyNUZ9VYdurGfXZGPXZKF38CWnzHK6+la8bJNz6rlf1wqysLL5c8J8K1+mqDXvwlV+ow8PNBU8PVxQKeY2O9Q0IIk9y43x+CQ3cVQR7VFyevsRkITFbhyXzDMhk6PUltepjamoqmzZtciwK365dO6f3QPs8V7uUlBTWrFnjyAqwi4+PJzIykjlz5jgdHx8fz3vvved4XPb83t7ejBs3rtx77o4dOyq9fkUSEhIqXNReq9UydOjQavu/ePFiUlJSGDNmTLXXEgTh9ieCLkG4zuwjXWXLJtsV5x6npCCl1kHIzaCmAV1NyBRqNG4BTttKdFlYTAbAFsiVvV5dXrs2jPpsdDnHRNAl3BQsFiv5CPVzCgAAIABJREFUhcXkFxbj6qLGw70GI3PmUqxFhQAkpBeg9XUhxFODl8b2daDEZCGz0EByTjEGk4XSv1ciUfGIWuOoylOFFixYwIIFCyrdv23bNqfAZ86cOcyfP7/S9g8//LDTAscrV650vLcCTj8DxMTE0KtXL8ecsscee4wlS5ZUeG5vb28OHjzolP49ZcoU5s0rXy7fbsuWLU79f/fdd1m6dGml7QVBEETQJQjXWU0KKngFtEKpcS6xbCzJx2gof5e1Nly9arY+jJtXxQsWyhQaLKaK73CX6LIwXw6KypJXEEBdfc6q9lfEbDJg0GVWe22LqYQSXcWjVxq3AGSKK4uyqtReKDU1Wy9IqfZCm3WUS+f+qHGfU1JsgbSYx3fr8fPzIycnh9zcXHx9fevsvL1798bFO5y8/LpPnbUX3Nj55x6Ki4sqbRfZpBk5e/6gNP5rVL0mkJKrJyVXj0ySkMvAaL4qwNIX4OVZ8XvXmdOJlV5n2LBhlJSUEBgYCMDhw4cdo0YNGzakefPmlJRceW/p1auXYwHVstq0aUP79u3p1q0bZrOtimN+fj5t2rRh2rRpuLnZRryTk5PR6XSo1Wqio6Pp1q0bpaWljvO0atXKab2sjIwMx36TyYRer6e42DYSnpqayo4dOwgMDEStdh4J1Gg0xMbGEhMTg9F4JUWza9euWK3lg9OwsLBKX6NbkcVixmjUYzAUYTSWYLXaficymQKFQoNa7Y5KpUGSajbyKgh3EhF0CcJ1Zi8d3q5du0rbeAe2qnGAdLO4kf2VK9RO17sVXisRdN26rlfQtW3bNqa/P/Mfpxdei53bNlFQWEx+ThaeDULwaX4XWdkpyPxt/z4tViuWqyrTu579G11JEWFdR7Di26+I7dOPkLAr//eaNG1W6fXmzZvH+vXr6dGjh9P2w4cPM3HiRKd1vJYvX85TTz1V6blmzZpFbGwskmQrHrJx48Zq25etmrh06VJee+21Stu/9957ThP8f/311yqX93jyySfx8fFxPP7000959dVXK20/derUSvfdOqyUlhaj1+djMhmwWq2Xg0xboGk2m7BYdBiNepRKDRqNFypV3a9zJwi3MhF0CcJ1lpqaCojS4YIg1I8fvv2KsJi7CQnx5vEn/41MJufn/zwLF85giOyIuu8zTu2NB9ahvnCc0qzTvLLkBIW5GWgz0ti+aQPuHh4MHTUWgOSkU5Ve0z6qtXPnznL7Ll68iKvrlbmicXFxlc6x8vb2pm/fvqhUV8rWjxw5krS0NBISEsrNAQPo27cvGs2VUe24uDiGDh1KZGSk07wv+42wq1O/X3rpJTp06EBKSorj5klZDzzwgNP5H3jgAXbt2lWuLykpKU6ja7cqq9WKwVCIXp+P2WzEaq2oIqP1ciBmobS0GLPZhNXqhVrtccP7Kwg3KxF0CcJ1Zv/QrmqkS7j5GS6nLVZWqEO4fYSHh5OYmEh6ejpRUVF1dt7rmV5YGYvFhNliIbhRK7qPmIxaKSPIW82MT5ZzYv8OPp76LI0iIkiK/xm5ux8KlRrThUTufvBF2txrm5Pl4RvEv95awp+rF2C0mCku1uHqWr6QTUXmzJnj9N53dUENsI0GXz0nqyre3t5Mnz69xu0jIyNZvXp1jdtDxXNwr+X89pTFW5ljhMtQBFnJYDJAcHNQVFyExWq1YDYb0OvzkckUKJVixEsQQARdgnBd2VNUIiIiqmkp3OzMl+e2VVQ1Ubi92EvF20vH15X6SC88euggVquF7iMm46qW0zLMHfnlNb7adb2XJVtOkpN1gdSuHbFYLXj5NMA7vBWXCkrLnWvAQy8wbVQzitu0pV2nrtw3dCSdO3eu8Lr29MFevXqJG063MIvFTElJPmZzKRaLBVNOOsZzKZhP5CIpbKOPJknCGBaEd0SYY0TSarViMpWi1+cjl6vFItmCgAi6BOG6EosiC4JQn9q0v4vEk6dIP3eK2LvaOwKusvwCQvALCHHa5u+pKtcuOzsD38Bg2nXqCsCva1bSv+fdxMXFlWv70Ucf8dJLL4mA6xZXWlrsmMOFXIFFUlBy4RKGlBxAwmyxUCqXo2/ZBNWlPMwaDchkKPx9UYYEYjTqMZn0qFTiZpUgiFsPgiAIglBGs2a2AhGnT5+u0/N269aND/6v8rLo14tCLmPzmm+4VGrEXEGFveoYzRYu6Axs3fwLhioqI5YVERFRo7WwhJtbaWmRYw6XTCZHo1biqpIjYQveTVYraosF32On0W/YhnblRrS//I/ifYcB+3ywmv2bEYTbnRjpEgRBuA6qWp9NuDP9+eef9VK9MCQ0lDyVCwczCiiVLGjkcrxUCuQSuFSyqLLeZKbIZKbEZKHUYvvSfebQbtzdrxRGGDZqTIWjXILNvffei4eHBytWrKjvrlwzW1n4qgN1uXTV6KnJhPVyOX1bmmH55T0E4U4kgi5BEARBKMM+p6vsOlK3Mv/AYJL/WEXWyBeJCYYSs5kSvbn6A68S1uZuMFwpArL6x+X06tpeBF6VqE1xkJuV5ep1BGrNitlsqrZVVlE6pWXWhFQpNAS4h/7DawvCzUUEXYIgCIJQRni4bbHw9PT0Oj93n7iBdX7O6jSKimbv33vISk+F6Gtbd8xqMrH+sw8Y+fD4GrVft24du3fvZu7cudd0PeH2U1CSS0FJHlmF6RhMetK0p8nX51JQUn5R7LLUChcCPEKv/Hw5GMsvqfjYmpzzap4aX7xcfMtdo+y1r1Zi0pNdWPF7xN2N+tfq+sKdQQRdN7m///6b7777zrEQ49ChQ2ndujUAM2bMcLQT22+u7Xq9Hn9/fyZMmADAoUOHEARB2LplI3d163PDrytZzOQe+B+6bm1wU1ecUliVpD2biWzZHnWZ9amqSi9csGABO3fuZPz48aKYxi1MJpOXG+2SoiKQ390Rq9WKXKfHsmkHMp0eLqchWhVyrJerGFqsZvL1OXy77ZMqr+Oq8sBN7el4XGo2kF98CcAWoOVdmV95OvtInTy3sgquCuD+6TWa+LcSI3VCOSLoqiNz00rJ/6ej8GV4K+CFMNubVqNGjRg0aJBjn8Fgy48eO3as0zFi+82z/cSJE5w9e9axHk1FC3gKtxa5wvZl02y8cWssCfUjLS0NgJCQkGpa1l6nzt3q/Jw14e3tTeGZ/Wj1ploHXelaA9vW/4IxIw3o4thek/RC8d53a1MqNZSWFjvN61K5u+HbqKFtvpbRRKFSgdV4JYVQkslQBvgBYLaauVSSCVwJrLxc/VHK1fh7hqKUq/F29a+yD0azAW1xtu1nkwHt5WDMTe2JawWLL7upPHEtE8DVRLGhAF1pweWfC9EZChzXzr987asp5Wq8rup76qXjFJcWYjDW7XITt7omTZqQnJxMYmIi0dHR9d2deiOCrjowN62UF0/X/URRL4VES2zzC4KDg8vtr2ib2H5zbA8ODnbMCxFuD2q3AApzkigpSMEj8K767o5wHdnX57oe/4cP7NtD3/tGOm2zWCykpZ0hJKQhSmX5Uu11ISgsDLVvK7KLSgn1rnhRWzudwUx6voF0bQnZRbb1urRnj9AkQty5v9OoVG6Xi2lcuassk2TIFLavjwqFAnl0E6BssQ0JudxWHFshVxEe2IqQ4NbX3AelXI2/R5jjcYhPk2s+V2Vc1WUCtfJxXI1dKjxPcWlh3XRKuO2IoKsOaE21L8FbEyl6C+M7d6Z169bVVg8SBEEQbn4VFSawWCz8uWsrkiTD3z+QkNAIQkIb4uXlU2fXbRTVjMM/LCLivqcr3K8zmEnJ1ZOSo0dXWr6PajcPIho3ddrWK+4+mjSp+y/At5LS0lLHgsC3I5XKFYOhCKNRj9VqxSrJQJJhr1coSRIqlbLigyWwyCQsV1c3vI0ZzbabFGqluOlaVmhoKMnJyaSlpYmRLqHujAtSMj64kjegGpiSVMKhIksd9kioDwcOHODkyZM88cQT9d0VQRBuEs2aNeOVN98rt12hUDBoyL/IuHiejIvnOXb0AAkH/8Ld3cMWgIU0JDAoFJns2pfWdHf3IKxFB5J3reWeJuNQym1fhLMKSzl2scgxolURXdIedNlpNAhwLgISv+VXht3Xh8aNG5c7Jj8/H8CRYn296HQ68vLyCAu7MhLy+OOP07BhQ6ZPn17jNrV1+vRpJk+eTHx8PH5+fjz44IPMmjULheLK16px48axffv2a3xmNweZTIFG44XFYsZsLsXo1gCrwo2ahJlmCYxyCeudE3M50iDFfC5n9qyB4uLieu5J/RJBVx37NsNILx8544NqF3hpTVaGH9GXC7j+/vtvEhISHPOHbGtemFAqrz2wK6u6u3QGgwG9Xl+nH5xZWVkEBAT84/P89ttv3HXXXXh5efHdd99xzz330LBhQ6c2Fy9eZP/+/dWeKzY2Fk9PT3799Vfuvvtu/vvf/zJ06FASExPp0aMHBw8e5OzZszz22GP/uN9C3Ug7n4mfnxeuLprqGwvCTeDUqVPM/n8Vr9Pl4eGFh4cXTaNjsFqtXLqUaQvCMs6TlHgMmUxOUFAoIaENiWra8pquX5iRgkX6g6zChwjwUHHsYhGJWdXPUSw8Fk/77uWLf8gVlX+FOHzYtjju9S6iMW3aNJYsWUJWVpZjW05ODp6enrVqUxsZGRl06tSJ4uJiRo0aRVpaGnPnzqVx48ZMnjzZ0W7x4sWUlJRgsdzaN1JVKlesVjN6fT5Sg0Zgrfr5WAGLDIxyGWbZHRRxCZXy9bVVhrTPl71TXfttM6FSj50o4bETNV/fRWuycu/BYuK11Vfi+Pvvv+nWre4mYgcGBpKbW3lp1enTp3Pq1Cl27txZZ2uxzJs3j61btzoeWywWtm7dyqJFixx3R8EWnC1evLjCcyQmJvLaa68hl9smhHt4ePDmm2+Wa7d7924++eQT9u/fX+Uf+90XjUbDp59+SkpKCqmpqXz77bd4eXnx999/YzZfW6UULy8v4PabUK4r1nM+Pctp2+PPvc/0/7ewVm1qa9/B4zRqNYSGLe/HK7Qnz0z5N2bzrf2lRrhzpJ1LrbaNJEn4+wfRuk0n4voNY+SDj9Gte29cXd04eeLwNX+J9w8IxJB+gr9T89l84lKNAi6AknOHuXT+TLntgUEVz2sFHNVcr3b06FEuXLhQ5fWqen4WiwXj5YV3Dx8+THp6OtnZ2WzdutVR4n/VqlWOUvU1aVOZ9PR0jh07htVq5fTp0+h0ttfL1dWV8ePHc+rUKZYtW8aCBQsAKvwslW6D1DpJktBoPHBz88XV1QO1WoMkybDiPO3BClglsMgljAoZZvmt/9yFumEPuuzzZe9UIuiqQxEaGW3dbS/p4gxjjQIve8CVcHmEq637lXPUt1OnTpGYmEiXLl2qb1wLL7zwAq+88oqj2t/HH3/M//73PzQaDSNGjHC0mzdvXoWBntFo5Nlnn2X+/Pm4u7sDMHjwYAoLC9m2bVu59r169eLtt99mzJgxTJs2zfFn5MiRyGQypk2bRlBQEAD79++nsLCQhIQE1qxZQ+PGjTl8+DDHjh1j/vz5tG/fnrCwML766qsaP1/7nd6EhISav0i3gGkzv6RDjzFO23JytWi1hbVqUxvpF7LoM+hZDKWl/L/pk2jfphlffrOKTxf+cE3nE4SKXLpkq45m/6JQV3r37s0zTz9J57ZNmPDwQD6ba1t2olhXVOVxSqWSsPBGdOrcg0FD/nXNaYYNI5ugVKkxmi0VztuqjFGbQVjDSABKSvSkpZ5FLldw4O+/Kj3mhx9+4ODBg07brFYrsbGxxMXF0bhxY4KCgnjnnXcc+0+cOEG/fv1wd3cnPDycDz74AIBJkybx5JNP8vzzzxMWFkZERAR//PEHbdu2ZcWKFQD07duXLl26UFJSQkhICAsWLODAgQPVtgFb+uGECRMICgoiMjKSH3/8EYDJkyczYMAAYmNjadq0KREREaSlpeHp6cncuXNp1KgRxcXFvPrqqwD06XPjlwK4cSRUKjc8PAJxc2uASuWKyWLCYjVjxYIFMMslDAoZBoUY4brezp8/z48//sjefQd58qmnWbNmzU29mLv9vTQnJ6eee1K/bo5v97eJSI1EfHvXGgdeCUUWp4BrXJCShLvc8FZU/WZltVqZOXMmLVq04J577uH48eOOffPnz+euu+6iQ4cOTh9mmzdv5r777iMyMpJnnnnG6W7DL7/8QpcuXWjdurXjwwZg9uzZjBo1qtz1i4uLeeihhxxtjx49Sv/+/YmOjuapp56isLCQ0tJS+vTpQ1JSkuO4t956i6VLlxIQEECrVq1Ys2YNAFu2bOGtt97ioYcewtPTk7S0NM6dO4dcLic01DkvOicnh8GDBzN06FDuuecep33z58/n9ddfZ/Xq1eX6nJqayoMPPui4JsArr7xC9+7dndp17dqVzMxMdDod58+fJy4uDn9/f/766y927drF4sWL6d+/f7VztTp06OBYo+tmcfR4MhcuVlz61q76O8y2ssCHjyaRfjGL7Et5bI3/m/QLttGsVctnM/fDl2vcpjLpF7I4duKM7Q7zmTR0xbZ/rwv++xMFhTq+/+bfvPHSePZs/5YmjcL4dfOfNXsRBKEG7F8M6jroAnj99ddp4OvBvn17GT7kPvbt2sDjY+5n9U+L2bj2Ry5eOF/n17QLDgun+NJ59OeO1viY0px0rGYzuZeyUcrlbPt1HUZ9EbNnTGXVqpWVZkBERESUSy2UJInCwkKOHz9OWFgYISEhzJw5kx07dnDhwgViY2PZu3cvkydPxtPTk3nz5mG1Wjly5AhfffUVv/76Kz179uTixYsAbN++ncGDBwPw2WefsXLlSnJzc8nKyiIjI4MOHTpU2wZg4sSJfPPNN8TExCBJEhMmTKC0tBSj0cj58+dJSEhgypQp5OTkON3Yi4+Pp3Xr1vzvf//j/fffL/eZdDuSyeRoNB54egaRUpzKsqNfsC/nAHqNHIPSNrp1J83hulHOnj3L+fPnefKpp2nbtj2/rN/G14uW8f2Pa/DyDeXjuQs4mZzF4CFDWbjw2jNJrhcRdNmIoKuOeSvKB17t9+rKVTisKOBa3KL83JTOnTvzyCOPOG07efIkubm5/PzzzzRt2tQxEfjcuXMsWbKE//73v6xcuZJff/2V+Ph4zGYzL774IjNnzmTLli2cP3+e77//3nG+X375hc8//5wnnniCF154wbH9yJEjREVFOV3baDTy8MMP4+/vz6hRoygsLGTgwIHcf//9bNmyBZVKxRNPPIFKpcLPz4/169cDYDKZWLx4MR06dAAgKiqKLVu2ADBo0CBefPFF5s+fT2FhIeHh4XzyySdOfQEoKCigX79+PP744zz99NMYDAanP8HBwaxZs4Z58+axbNkyp2ObNGnCpk2b+OSTT/j3v//NTz/9hI+PD71793Zqd+jQIfz8/OjevTu9e/dm9uzZJCQkkJGRwY4dOzh69KjTZOya6NWrF2D7gK4vVquV2AFPEjd0Io1bDyEoqh/vfPCZY/+JU2fpN3Qi7sE9CG8xkA8+tI3kTXrlI56cPIPnX51FWPOBRMQM4o89h2jb7SFW/LwZgL5DnqNL7/GUlBgIiR7AgoU/cuDQyWrbgC39cMLE9wmK6kdkzGB+XGX7NzH51VkMGDGJ2AFP0rTdcCJaDiLtfCZ//HUIH29PenSzfZmTJIm7OrZk558HMRgqLwRQH8QabUJVQkNDmTBhAu9OfZvsrCwWfjYXkz6PD955nsAGXqxYupBTJ+p+Edg29/Sj8Gj5jIDKFBzahIurG08+Po6nxj/M+bRz/LZ5E25ubvTs2bPW1/fw8KB37978/vvvjgBmz549LFy4kEuXLvHNN9/w4Ycf4unpSWRkJJIkYbFYCAgI4I8//mDRokW8/PLLtG7dml69enH33XcDEBcXR5cuXSgqso0a2rMgqmtjMplYu3Yto0ePZuvWrXzxxRcUFRURHx/vSCecP38+771nK4CSnJwMwPLly4mLi0OSJLZs2cLUqVPLPdcpU6bQrFkzp7R5QaiJpKQkFi9ejLagmGbNWtCrV2/OXtDj06AhL70xk3YduvHOex8z/IGxDB3xMDM+/IxCXSldu/djw/+2E7/7KJ27dOX9Dz5w/JsV6p8Iuq4De+A17nIxDXuAZQ+8rn48LVJVYcBVGQ8PD2bNmkVMTAxPPvkkp06dAkAul7N06VLatWtHgwYNCAsLY//+/eh0OnJycjhz5gyNGzdm2bJl3H///Y7zffDBB3To0IHJkydTUlLCxYsXsVgsJCUlERkZ6WhnNpuZMGECSqXSkQu/cuVKGjVqxPPPP09ERATvvfcemzZtQqfTMWLECDZu3AjAn3/+SUBAADExMYAtCLKP0E2cOJGRI0diNpv5+eefSUpKwtfXFz8/P/bv3+8YLfP09OSHH37AarXSp08fevbsSUhICH369KFPnz5069aNF154gY0bN9K/f/9yr1tAQAAbNmzg2LFjPPnkk7z//vtO+0tKSjCZTMyePZuwsDBGjBjB2rVr2blzJ3PnzmX16tUcOXLE6TWpzIEDB/j6669r/Du93iRJorBIx/GTZwgLDSQk2J+Zs75hx64DXLiYTeyAJ9l74DiTnx6Np4c78z7/3naH+dhpvvp2Nb9u+ZOe93TgYsYlsML2DV8y+L5YAD77+A1WLvuI3LwCsrJzycjKoUPb5tW2AZj40od8s3QtMS2a2O4wT/yA0lIjRqOJ8+lZJBxOZMpzD5OTm8+23/eSk6ulRbNIp/SqRhGhFOtLyM0ruPEvbBVu17RSoe6p1bZ1s7744nNSzp6hY+tGRIb5s+yb+YSH+PHVZ7PY+9dOTCZTNWeqXnbKSfQpNf83KXf3pvNdHXnmmWdo27btP76+q6urYy6uQqFAkiQyMzPJzMxEJpMxYMAAAPz8/BxBD9hGzgICAtBoNMyePdtRBMPV1RW4UhXNnrZuf02ra3Ps2DHy8vLo2LEjAG5ubo6+FRYWEhISwqOPPup47XU6HWazmUmTJhETE8PevXvp27dvhc81ISGB1NRUR1ERQajM8ePH+eqrrxgz5hHmzP+CR8Y9zqrVG1m7IZ53Z8zjpzXxuLpoGPPIeLp07oS/nyf+fp6EBfs6/vj7eTJ8xAO8P3M2Hu5ePPnsq5gldyY8+RyNGjdh7bqNrFu3zvHvX7jxRPXC68RbITkCqW8zjI5Aa0q4iilJBkfAtaiFpspKh1dXLwTb4rv2L51ubm6OVEFXV1c++eQTfvrpJzQaDXK53FGVb+7cubz99tu88MILPPDAA7z11luO89lHbmQyGWq1Gr1eT1paGhaLBT8/P6e+ZGZmolarMZvNyGQykpOTOXbsGBEREY52FouF3Nxc7r//fiZPnkxubi4bNmxg2LBhjjbh4eGOu40ymcyR/gG2SlMzZszgjTfeICkpifz8fEaNGsVTTz1FVFQUUVFRjB49mvXr17Ny5UoWLVoEwMGDB5k3bx4uLi6VLmq6Zs0aDh06xJAhQ3j77bdZvny5oxKkRqNxXH/16tWOD+3nnnuOsLAwVq1aRXp6ulN1qpqwB2n1/eXbw92N9m2bsXXd52jzC/EJv5c9+46yfec+LuVoWbV8FsMH38vvfxzERaO+cofZ35c/tnyNp4c7ocEBtI6JwtPDjd1/H2bdr78T17sLUY3DSTx9DgB3N9sXnF49OlbZxmQys3bj74we2Y8Vi/7Npq27GTB8MvG79jvSCefPeoWRQ/sw97PvSD57ntYxUeze43z3/1KOFrlcRoB/3aeCCUJ9ef/993j//fdISkqid8+7MZSaWPTFRxQVFdOl+700b9kWX78GtTqnvliHq4sLGRlna3yMdts39Hz1xdp2n2XLlnHx4kWmTZvmtF2lUpGWlsaWLVtYtWoVVquV4cOHk5eXxxdffMHixYvp3bs3mZmZpKWlVTtPxV6ivbS01Olx2QC1qjZRUVG4uLiwdOlSWrVqxX/+8x98fX2JjY1Fp9MRHh6OXC7H29sbuVzOhQsXOHToEFqtlnbt2vH6669TXFyMr68vL730Uo1uygnCoUOH+PPPP3lw9Fg6tGuFxsWVDz/+L42j82nYqAULvvwOjVqBWqV0LDRdHbXK9u/aBdt3mr597sVitTJq1L9ISkrCLzCUN15+mjFjxpCYfJ71a36kX79+5ao+C9ePGOm6zha30DiNeI0/UYLWZMVLIVUbcFXGfpfwal988QXHjx9n3759HDt2jO7duyNJEnq9ngEDBnDy5EnWrVvHuXPnmD17dpXnUygUlJaWOqVGRUVFsXfvXpRKJZ99ZktN8/Lyok+fPqSmpjr+nDp1irCwMDw8POjVqxebNm1i48aNjBw50nGuS5cuOQVqdocOHaJx48YolUp27drFypUrWbt2bbl0QYCFCxcyaNAgx+P8/HxHpcCr5eXl8eijj7J48WI2b97MkiVLaNiwIWPGjHFUwgKIiYlh8+bNvPnmmzRt2pQVK1Y40sQGDRqE0WgsN8+sOvYP4fpOM3N11SC/HKwrFHLbHeasHDKzcmx3mPvaqmL6+Xo5gh6AiPAgAvx90WhUzJ45BU8PN8f5AIqLbV+K7Ol9arXS6ZqVtTl2Ipk8bQEd2zUHwM3VFigr5HIKC4sJCfbn0YcGYTLZJvzrdHo6tW9J+sUssrJtVcKsVivbf99Hi2aNavzBJAi3kqZNmzJp0iRefmkKi75eyITHxvLmK5N4ZdIjvPfWJABSziZVeGy+Ng+Afbt3sWntSoYNGUZQYABWUykWfc1Ghn0aBJRLw66JmTNnMn369HLve5IkcfLkSfr168cXX3xB//796d69O3FxcfTt25dJkybRvHlzzp49i06nY8OGDajVaqeRq7LsNyADAwMBaNCggSNIqkkbNzc3Fi5cSEZGBgMHDmT79u3MnDkThULhKLBkP0fLli3JyckhICCAsLAwdu/ezZo1a/jtt9/46quvWLJkiVMBOqBaAAAgAElEQVTfDh06BECbNm1q/foJt5fCwkLmz5/P8BEPcPRUOv96aCxb43dz4nQm8z9fzvc/b6ZZdFPGPzaeDu1a4+vthquL+h9/rskkCVcXNW3btCIk0Icvv1rO+s172LX7IOs2bKFP3378snYTM2fOZN++fXX0bIXKiJGuG2BxCw3t3GW8eNo2pOt1Of2wXR1XKUxMTKRnz574+PiQlZXFtm3biIqKIj09nVGjRrFz5046dOjAoEGD+PPPqgsPhISE4OPjQ3JysiPtwt/fH1dXV2bNmsWDDz7IqFGjiI2NZfbs2aSlpREeHs6PP/7IzJkzHR82I0aMYO7cucjlcqcSwqmpqbRo0aLcdb/88kv+85//oNFokCSJrKwsMjMz8ff3d2p34MABzp075zR6lpaWRnBwxSWM58+fT8eOHXn++ecdJXxnzZrFlClT2Lt3r6MMf3h4OIWFhTRs2JBly5bx9ttv4+7ujtls5rfffiMjI4Pk5GSaNGlS3a/Dwf7hn5pafano60mlVJCWnsmW7XtYtXab7Q7z4HvJ0xbwxdcrWbx8Hb173kVmVi5p5zMpKal6jpTicrBeejloVShsj+1BUnVtopqE4+KiZumKjbRqGcV/PlmGr48nsd07oCvWEx4aiFwuw9vLHblcxoWMbMaOHojVauWBR17n6cdHsHHTH5w+k8b8Wa/W7YtVAYvJFjjKlW7X/VpC/bKvJVPbGyzXm7e3N//6178AyMi4yNatW4lpGcIrk8ZisViZ9OI7bN+8gXt69WHld9/i6ubGjt93senX5nTt2pVWrVoxckh/AgKD0B74Fd/uo6u8Xv6BDWizztOpU6da9zUiIoJz586RkJDgmNcKthsl7du3Z/r06QQFBdGpU6fLJck1bNmyhYsXL5KYmEi3bt3Yv38/MTExFX5W2D3yyCPExMQQHh4O2D6nMjIyaNCgQY3bjB07llGjRvH77787qhSCbd5W2RGzjRs3otVqCQsLq9F6Q/aAs7KbgcLta/fu3bbvWZKKD/9vBoOHjUanK6Jjl16cTk5l0fK1uLmocdGoCAu+cVkaLhol4aGBhIYE0OLDuehLjOz56w+SzlwgPCmDUaOj6N+vH+++O5UGDRrU2Zqwgo0Ium6QKeEqvJUSiy8amdtUU+cBF8CECRMYN24c69evx2g0Mnr0aBYuXMgDDzxA8+bNadKkCe3atSM/P98xUlUZSZLo1q2bU9BlFxsbS+/evXnzzTdZvHgxzz77LG3atHGUzy07l+n+++/nueee4/XXX3c6x9mzZ8ud988//6Rdu3aO1MCpU6fy4IMP4uLiwr///W9Hu507d/Lcc8+xYsUKp1G6rVu3VlhtUavV8uyzzwLlA58XX7SlzeTl5eHj40OzZs144403GD58OC4uLvTo0QOTycSLL75Is2bNeOuttxgzZgzr1q0rFwiW1aFDB0dlRPvcnpSUlErb3wiSJHEyMYV+QycC0L/P3XTv2haDwUjfezsz6ZWPbCmll0e6NmzahVpd+cLZjrvH/rYU1AZ+3peDJI8atXFzdWHh/Ld56c05DBz5PDKZjAX/eR2FQk5QoJ9jdEwmk9GyeWNycvJp37YZX306ledfncXYJ6Yik8mY+NQonnviwbp/wa5SorNVX9R41ix9SMzpunXZU7YrS1O+WdhLlB8/dpRDhw6xadMm7urQll53d+SNFyc6goyrq622a9uG04rK/2/bFZ36k0aNGtdpn61WKz4+PgwZMqTC/cHBwY6bZ127dgWgZcvKF4N2d3cnNjbWaVvZgKumbVQqVbm5WVffxAsLC6t1ISXh9mE0GmschDw38Xlatm7PMxNf45tlXfDy9kUhl+HqqsatDkaw/in7CJiri5r+/eKIje2JTm9gxoefs3fPLpLP62jeogXdu/dg44Z19drX24kIum6g8UHKWqcTdu7cmdatW2O12uaAdenShb179zr2t23blsTERADuueceTpw4wYULFxwpbS+88AI+Pj589913JCcnY7VanSoS5uXlOV3PXkIXYPz48Xz//feMGjWKHj16OKoNAk7VD6dNm8akSZO4cOECzZo1Q6W68mGu0Wjw8vLi0UcfdWwzmUzs3LnTUQ3KLiwsjLvuusvxuF+/fvTr18+pzXfffcdnn33Gjz/+SIsWLXj33XdJSEggNzeX4ODgCj80z5w541hHpTJDhw5l8ODBDB48mC5durBnzx58fHyYM2cO8+bNw2w2M2OGbU2dGTNmMHXqVL744osqz3mzsVqttG/bjOlvPk1QoB+d2re4fIdZxZY1n3Ex4xKJp8/RrUsb9iecIKZFE1o0qzzAeOShgcS0aEx4mC1lx7+BDxmnN9PAz7vGbcaOHsio4XH8/sdBmkaFExFu+5Kz/KsZTiNmG3+ejzbftrbX+DGDeeRf93MyMYWIhkGOOWQ3G1G9ULiR2rZtW+NCF507d+aPuXPx7jK8ynaG1ATuebjq0bDaUqlUjvmzglAb+mI9BfkFBAYHOra9M+X/s3feYU1e7R//BAIEAoQlQ5DhQJHKcNTVKq4OWyvqa+2wSmtr37Za8f11WTvosNUu8W317a6jtdtqW7VLReuqE611IRJUUGQFQkgg6/dHTCQSRiAIwvO5Li/Nec5znpOAT57vOff9vZ8nJCyEx554tNF97OVMzhkWzH+NvTv24uMn4+ZxN/PEC0/gLLad6gHw2jsfI3Z2RqvT4ePrh5enO55SCU5tsFi2s7MTnlIJnlIJruJuGNGzddvv3HP/v6lWN66AukDjEERXO8PV1dUqkbemEYY9IXEAY8eO5f33329UOJ2/v7/VtQB2797NV199xYgRI+jcubOl/euvv2bq1Km1auA0JpkzOTmZyZMnW1abnnjiCVQqFW5ubjZr6gwePJhvv/22wXHN/Prrr1ar2y+99BJ6vXUR0dGjRzdYj+XAgQMcP368wXpeVxOjEXx9vLlj7DCbx0OCAwgJNq3+DhpgCgXt3avuVW5PqQfDhva1aqspuBrbx9XVhdEjrq81l5qEhQYSFhpoee3s7ERsjGNX4B2NWWzVzC0REGgL3Hnnnbz//vsE/bOa7d99jGtwD1xkgWjyjuHiF4o69zApCz7jpLqCZ555xqHX/uKLLyzOg+2d+Pj4dv1eC5V5APh42Gfo0lTee3MpP36zjj//+dPSpihV4OkltauPPRRdLOLOm+9ErdZwyx23cCHvAis/XEVYRBj3zri3zvOMRiNanQ6tToeXpzcSidhUB9NJhJOo7eQfKyvKUZaXUV5RRoWyHJ1OS7Wmitxck838z2u/4+LLzxMYGNjASAKNQRBdbRxb7oVXk3fffZeioqImnVtSUkJcXBxTplivlHp5eTF5ctPCwczWv2a8vb0d+qVmK5zIltHItbhS6+oqRlJPuKCAYzGHFV5ZIFZAoLWJi4ujqKiInTt3stqjij179uDkVEKJpwtRoVIKxF2Z1MeP9y45zDqSpuSHXatkZmZabOrbIxqdKQzXRWzb5CTreBYyHxmBwXU/sBsMBqsSIFceM+gNiF3EnDx6kovnCygpLmX3n7uJ6t6VoJBA/vvpEpwuheo1pk9dFJy/iLK8nG7R3TgrP0unoE64e7gjcZeQPCWZqQ/dR1h4KFnHs0hOmkBZaeNqr4nFznhK3U3vBQPoQYQIJycRTk7OFnOrq0VZuQKlUkF5eTkqVXmtRWUAicSN4KBALhRcvKpz6wgIokugXiIiImy6DDaGsWPH2myvK5a/vWJ++G7q5+govvjkVby9PFt1DgIC1wLFxaY6crZ2z9sTQ4YMsZgIORqzeYSw09sxMRqNTBs/nU5BnajSaFCrNfzr3kk8/szjAJzOOs3rz73Ogb8OIPP14c77JvPv//ybV+ctQFtdjZtEwm8//wbA4o/eYeod91nGnjH5QYJCAtm4eyOj+43h0f97hPj+8Uwec2e9fe6+/27UlWpem/8aW//YhpubG//3wv9xyx0389r8Bfx98Aih4aEc+OsAPr4+fL/pO4I7B/PMK6bdXo1aw1svvw3AoBsHNepzkHnVDn83YkRvMKI3GNBiylt2Ejld+ttx4Yd6g4Hy8lLKy8uoqCinokKJ0Who1Lm+PjIuFFzkuZcXCbtcDkQQXQ5kq0KPaIuytach0MYwh5nZqt9SWWIqEO0ha/k6Gf0T605GFxAQuExHEV0tyRtvvMFLL70k7PR2UEQiESqVivKT5fQb1I9KVSUfpH/I4OFDiIgKZ9r46ej0Ou6dcS8Zv29l1Uef8/Dch8k6lsW+3fsIjwpnwOD+bFi7EYDlaz5j+fsryPgtg+cXPk/vuBjKSssoKSqh6GIRvfv0brAPwCvPvMq6b9Yx8IaBnMs9x/Nzn2fUrSPRanUUnC9AWa5k2sz7WPnhKv7a/hfj7xwPwN6de3lu7vOcyz3H7Kdm0XdgX5vvW+YRQFllERpKkOCHq0vDj9m1d8GccHZyqnMHsC60Oi3l5QqU5WUoK8pRqZr+POpzadHk1ReeZkryLYLwchCC6HIAke4tsz1cc1xziNvrr79uabvjjjuIjY0V2ttg+4ABAyzuhQICAtcW0dHRnDx5klOnTlkZDwk0noiIiGsyDFvAcUilUmL6xPDpd5+gLFMyqOdgDh84zJ4deygtKWXJp0sYPXYU+3bvRyJxQyQSYTAa8Avw44ufPkfqJSUwJIgeMT3w9PIkc18mGb9lMGT4YMKjwpFnmxyBPS6ZKQ0YMqDePnqdni2/buHW8bfw1gdvsWPLDmbe/TB7d+xFfak25bML5jHmtjGs/HAVZ+SmsgA/f/8zz86ZT+ewznz8zUcMHja4zvfs6mwKtTRgKrni6mqfeZppF0yP3mAK+6tvF6yqusokspRlKJXlqB1oeiGR2A4ZFWgeguhyACnBLii0RhQ6o8PG9BGLTE6Hwddz/fWXTQZmzpxp1c9cMFJob5vtAgICAgIdkwkTJnD69Gl27drV2lNpFdw9JBZrdGexMyKRiOLCYjRqNU5OTtww0mRI5eMrswgcgM5hnfELMO0yP/niE5Z2yaWca43aVE6kutpU/9GlpmNyPX1OnThFeVk5veNjL83P3TI3VYWKwOBAxk8ej1Jp2iFSV6ox6A28+uwCuvfszvI1n+Eta3wOubK8jK3bjtCjezRhYV0afV5NrtwFMxgM5OXJqagoR6NRN2nMxiIWi5nx8GyHjJWXZzJdudJwraMhiC4Hkdrl6hgU1HQBFNrbfjsIhgodFeHnLtDRWbFiBWfOnLF5LD4+3qq4PZj+zxw6dMhmKHZ8fHyt/DC5XG6pvZiRkdHg+HPnzrWqm1fznOTkZH744Qer/vfff3+d9RUTEhJYvHixVduIESNqzaM9U1iRD4DU1bYQcXFx4XzeBXZu3cUfG37HaDQy+tZRlJeV8/WKb1j71VoG3jiQosJiLuRfoKqqqt7riS9ZtGu1WqvX+hrlRerrEx4VjkTixk/f/kiPXt1Z/r8VyHxk9B/UH3WlmuDOwTg5O+Hl7YWzsxOFFy5y/OhxlGVKvGO9efuVd9CoNch8ZEz/9zRCu9RfPN3VVcy+fXvYtWsH7u7udOvWnV69etM1qhtisf2P30aMGIwGiooK7D63KXh6Svnkg3dJfaz5Lszm2oeC6BIQEGgRMjIyKCsrY926dYCQUN7RECzjBTo6c+fOpaysbpe36upqq9cjRoyos66dj4+PJdfOTGJiYp39ZTIZhYWFGI1GS53Lzz77rM75ZGdn13Ia3Lx5c52i8fTp0yxcuBDA4gB35fzaO94SXwor1FTrq7BZLVEkIudUDg9NeQiAoSOGknh9ItXV1QweNpgFzy7AYDDg4+uDulLNtt+3WdX5rD2cadfMv5Ppwd3HzxdnZye8ZF6N6uPu4U7aWy/xxouL+Pc9j+Dk5MRzrz+Hs9iZgMAAy+6Yk5MT3aK7oShV4B/gT1BIEIf2HSL7ZLYpV01Zga+fD4/83yP1fj4ymS//95+nyc2Vk5V1gpNZJzly5G/EYjFRUV3p0aMn0dE98XBvm7UmAXpE92rtKbQrBNElINBM5HI569ats3z5Z2Zmsnbt2laelYCAQFMxr8aWlJS08kyubX755Rd++uknm8fi4uIsuxFmFi1axLZt22wKnbi4ODQajVXbvHnz+PnnnwG48cYbrY4NGzas1vi7du2yGjsuLs7ismiLY8eO8eeff9o8FhcXV8tue/fu3VavDx8+XK/ovNZxE5vC87T6OnaojEZi+sTw2BOPEhAYQGx8LCKRCDc3Nz7+5iMKCwqRn84lsX8C/xz+h+49u9M1uu76i3dMHkf3Xt0I7hwMgJ+/L1v/3oqvn2+j+4z71+3cMv5m9u3aR0TXCDqHmaJU3li2yOrn+f7q9y1Fljcf3NTkz8jJyYmoqK5ERXXlpptupaDgAllZJzmZdYING35iw4afCA0No0ePaKJ79CQgoFOTr9USyHx8G+7UCMz3UmGnS0BAoMmkpqayZMmSevsEBQVRUHB1wgEEBASaz9USXQaDAYPB0KRQo2uBuLg44uLiGt1/6tSpdtWknDVrFrNmzWp0/6aUQLlSzNmDPe+9PWI0grfMmxE3j7B5vFNQJzoFmURGfL94ALpFd6tzPA+pB/0HWdd5qym4GtvHxcWllhmGeR5mgkKCCAoJqnMujcHNtfb/66CgYIKCgrnhhmFUVFRw4uRxsrJO8OefW8nI2Iyvr69pB6xHT7p0CUfkQAt5exE7i9m3xzH5iILoMtE+7/QCAleJukJbzMhkMmJiYigoKBByewQEBKzYuHEjH330UbN3xqVSKeXl5TYLuTeVrKwsPvzwQ06dOsXw4cN5/PHH7bawFujYuLi6dGhTqYb+v3h6etKvb3/69e2PVqsl+/Qpjh8/yqFDB9mzZzdubm5069ad+LhEoqLq3gFsKbw8pfzrrsYvggg0jHAHFRBoBmlpaXUe8/b2JiMjw5JPIOT2CAgIXAtUVFQwefJk9Ho9aWlp7Nixg+eff761pyVwjfHGskU8/fJTrT2NawIXFxd69Ywhefwk/jP3Ke69dxrx8YmcP5/Ptj9bz5xl3fdfO2Qcs5GGh0fbzV+7GgiiS0CgiSgUCl566aU6j69YsULY3RIQuAYxPxiYHxRakqqqKh555BHCw8O5+eabOXXqFABff/0177zzDrNnz+aZZ54BID09nZ49exIZGcn8+fNr5SyBaSFo3rx5AJSWlpKSkkKPHj244447OHHiBAAnT57k/vvv53//+x+33HJLrTH++OMPfHx8eOedd4iPj+fxxx9nxYoVGAyGlvoYBNohsfGxRHar7UQpUD8ikYiI8EhGj7qJR/49mwnJk1ptLrbuMU3BbBnfpUvTrPPbC4LoEhBoAsuXLycqKorly5cDtetyffbZZ7XsipuKVlNGZdlZtJr2m5BtD5VlZ63+6HX12wy3FmYra1v21wJtG/ODgflBoSXZtm0b/v7+bNiwAX9/f2bMmAFAQUEBixYtwmAwcN999/Hdd9+xfPly1q9fz9atW9m+fTvvvfee1VgLFy5k06ZNzJ8/H4Bp06bh4uLCxo0bSU5O5tZbb6WqqorKyko2bNjAjz/+yH/+859aczp9+rRVPlLXrl0pLS3tcO58AgJtAW/vus1eWprnXl5EYGBgq12/vSHkdAkINIHMzEwUCgXjx48nPT2dtWvXMnfuXADmzJlDSkqKXePl/v2V5d+VZbYtimviIQsHwEXijaubzKqtqbhJA3EW246/12rK0FaVA6BRXcSg01j+3RjR4yx2QyKtfeN2kchwcbP9hWK+jvkaVaqCeq8lkQbiJJZYPhMnscTqmjXnbUZVdvbKYSzXbC7m+j6C6BKoD29vb9LS0hCLxbz55ptER0dbjHe6du3K0qVLAXjmmWeYPn063bt3B2D27Nm88847lvvO+++/z4oVK9ixYweenp5kZ2ezY8cOcnJykMlkdO/enf/9739s374df39/NBoNX3zxBX5+fhQUFHDhwgUAQkNDyc3Nxcvrsg13586dTVbZKhWdOrUtdzUBAYGW49UXnmZK8i2C8HIQgugSEGgCaWlppKSkWMIHU1NTycjIIDIykvT0dKu+9e14OIk9MOgq6xVaTmIPJN6RaNWFaNWFQA1hZrX5taPpb+gqoCzOcsg4Eq8InFyklteVJUcBLgulFt4QdBJ37Jh0AccycOBAi3thaGgo/v7+lJaWAtC3b19Lv9zcXPr3v+zK1rVrV4qKiiyv33vvPYqLi1EoFPj5+XH69Gl0Op3VjlVFRQUFBQX4+/sTERGBn58fAJ988gmvv/46YNot8/DwsHJuVKvVuLi4EBYW1gKfgICAgEDHQBBdAgL1YM7bksvl/PDDD5Z2Hx+fWvladTmQ1bfj0fWGNyxCyoyHX+8G52UWGlr1RaorC63amoqmXI5BV2nzmIt7J1zcO9X6t6tHJ1zcG14B02tVaMrltdqrlHL0WtvXlHhHWgSns4sUN68InGuIrbrmb/5MaorUmuPVROofW2sc8zVtvYcqZa7NYwICTaVmyF5paSl6vZ4ePXrw22+/WfWLiYmxCnfMyspi4MCBlte//PILS5Ys4cknn+T777/H29sbLy8vcnJyLC5qJSUlSKVSjh07ZjX2s88+y7PPPmt5vWzZMg4dOmR5febMGbp3795ure0FBARs46jwwvz8fECwjBfuoAICdbBixQpSU1NRKBTIZDIUCoXDHQhrChh7uCzMGhZobQWvoAEtOv5lMdQyn4mzi7RRglhAwB6OHDnCkSNHiI2NZfny5QwbNsym9futt97Kd999x+23346npyfr169n5MiRluNhYWE899xz9OnTh/Xr1zN8+HCcnJxYv34948aNIysri+HDh/PXX381OKexY8fy/PPPk5WVRWhoKG+99RaDBg1y6PsWEGjvqDXV+MjqXii8FnBUeKHZlEgQXQICAlZkZGQwd+5cMjMzARg+fDjp6emC5buAQAfBHEZnXp1tSeLj45k6dSparZaKigqrHfWajB8/nk8++YTY2FiCg4ORyWRMmDDBqo+fnx/z58/nqaeeYv/+/SxbtowHH3yQLl26cO7cOV5++WW6dOnSoCFGZGQkr776KjfccANSqZSgoCB+/fVXh71nAYH2iqLSFPLrhh86vb6VZ9M8SssE8y5HIzKaiwgJCAgwd+5cS05WREQE6enpzXYhNFeUF/6rdSyEn/u1zcMPPwzA4sWLW/xaRqMRuVxOly5d6g3hMxqNZGdn4+bm1mjr5crKSrKzswkPD0cms88FraKigsLCQqKiouw6T6Bj8PWB9zinyGZYr4l08rp28/0KlZfDdl2cXfHxaLpZzPd7/wtAjGg6AKHB/ri6Om5/Q6/X8/fhvQ4brz4OHj5Cl7AIZs+c1uyxzIY/H3zwQbPHupYRdroEBGrw2WefIZPJSE1NJTU1VdjdEhAQaHFEIlGjhI1IJLK4FzYWDw8P+vTp06R5eXp64unp2aRzBdo/RRdKkZ86T1HWF4idXQDQ6bXonCsJ7mo7jMwszmQeAbiK3fBw9cbDzdtK7Gj1VZYdI4DKqnIqq8strwvL83ARu+HjEWA1tnmsK9Hqqyi7lPusqCxCq6tCVV1OZVV5rb6OplxZSYB/7TldKwjuhY5FEF0CAjUwhxQ60uY7IiKC3Nxc5HK5YB8uICAgINAu+Prd9ezf9rfNYw/On8KNt13O4/1t7Ra+eGO95bVE6kpI1wDLv299aDA+gZfLFGhU1RzcdBKNqnaZEN9AL3oNikQidW1Uf4nUjcRR0bX6X8gxhdn6uPvj7S0jvEdnqnRqCitshxXLj5wHQFGgpPSi0urYiLv7Wf6trzbCpeorSpUaby8Ph+52CVy7CL8FAh2OjIwMVqxYwdq1a3nxxRdJTU21HGsJURQZGSmIrg6ITCajrKysRQxYBAQEBFqbTtIQ4G+GDx9e69j8Bxdafd95F3TjZ9l2yi7lCWlU1eT8fVnc3H/vTK6Pvg4AsZOYVUu/Y+NHO+u89serPmDE9TdaXi95c2m9/UdcdxuT7pqA1NULZycXFr3+Bp8uXG6zr0wm45dffrGUWxCJRCxYsIBPF3xY5/hLn1tFREQEi5e+ybFTp7nujsvHCkvKCAn0w8lJVOf5bZGKChV33/dAs8cxu64KJScE0SXQQVAoFKxYsYL09HSLhTtwVR6GzdeoeV2B9k9CQgJbt24lMzOTpKSk1p6OgICAgEN55+10nnryAiNGjGiwb3JyMgqFwvJaoVBYIkuAWvdI6fQQgmV15y1Ouv1Oq+/vl+a/iq80wGZfHx8fUqalWPW/d8p9ZB3LtsxJLpdbamqWlZWh0Wjw8LhcYmT06NFs374dMC2k1hSUnp6eREREADD3sSf5ddth9HqD5Xh1tY6SUuU1F2ao0+n4fvUKnn1yTrPGMTsX1vw8OyqC6BJo99Q0xwBTuF9ycjKpqalXZecpISGBdevWCaJLQEBAQKDdEBERQc+ePZt0ro+PT72LUQkJCbVqYTY0XlpaWqP7JyQk1Flb0xZJSUlkZGTYPFZVVYX+klPh4sWL2Zd5nHtTHrHqo1SZhMe1JrziEvo13KkBzEXYG3JN7QgIokug3WO2YB4/fjwpKSnNdiO0F2GnS0Dg2qKy0lSwWyKRtPJMBAQE2gutJbzeX/ouIpGIfXv3MHDQIA5nZvLv2Y/Tu/d1dZ6j0Zhy43Q6bbOvL4iuywiiS6BdYStvKjMzE4VC0Wr5VObVOkF0CQhcG5w7dw6A0NDQVp6JQEchT6EhX1FFfqmGPEVtM4gBUTK83MT0CmlbxXblcjldu3Zt7Wm0GebOnVsrvLAmSpWaKq32quR4bdu8mZ9//pGS4iLEYb3B3Zu9+ZUYtAbeWbQQNzc3Fr+7DFc3t1rnVqhUABw9crhF59jREESXQLtALpfz0ksvsXz5cubMmWMVTujj49OqRgbma5cJhQYFBAQEBCvYj5gAACAASURBVDCJrM3Hitl0rJjj51UoNbpGnzsgSsb1UT6M7OXfqiJsypQp/Pzzz5SWlnZYsyC5XM6mTZu4++67gbrDC2tSXa3jbH4hvjJPvL1aJs/p140bWP/rb1SqVES89DshvlL8PEy2/iWVWs5kHaNgzZs8OnMG73+yvFZ9wMIi067UfQ883CLz66gIoquNU5a3Fa26EFXxYbTqIrRq038EF3d/XNwDkPrH4eLeCVlobfegjoBCoWDJkiVWsdz2xIFfDczzqZk0LND+SUpKYuvWrWRkZAhGGtcY5vBCAQFHotToWHuwgFU788lTaJo8zt6cMvbmlLF0cy6hPhKS+wYxPjGQUJ+rGw5rXkjsyGZBqamprFu3jtjYWIvbYWMwGIwUlypRVVbh7+vlcEv5777+Erw6MeTtTdwZH0J+eRWni033NQ+ZM2H9Eznb/VP2vTWTRx96gA8/W2k5V6fTc6HgIgCrPv2Ap1IfdejcOjKC6GqjVJYcpTDrKzTluUhlXfDwDEQS1BtnsWkbWK+rQqO6iKYkk+KysyjObSYo5n4k3h3Hkvyll14iPT3d4j40ffp00tLS2qQtu2AfLiBw7XD27FkAuwsRCwjYQqnRsWpXPit35tm1o9UY8hQalm7OZenmXJITg3h0ZPhVF18dGfPzh1mANhReeCWaqmryLhTjJXXHRyZFLHZu9pyefer/wN2b7s9+y7jeQYzrbSps/PT6E1b9uvhIKJq5mOznx7BuzRrGT5wIwLETWc2eg4BtBNHVxtBrVRQcW0FZ3lZkgdcR1v9hi9C6Ei//HqZzdFUUnN5Ezo6nkYUOJyhmOs4ubSvu29Gkp6dbdreGDx9Oenp6m9vhqolIZIrdFkSXgICAQMdh1a48lm4+43CxZYu1BwvYdKyYaUNCeXREeItfT6A2jQkvtIVSpUal1iDzkuLt5dG8fC+RM06yEMJ9JBwtUPLNIShV2zbECPXz4rQsiI3rf2T8xImcyztPUQ3Di+deXkRgYGDT5yJghVNrT0DgMnqtijN/vUSV4jhRiSl0jh5bp+CqibPYjc7RY4lKTKFKcZwze15Cr1VdhRm3HklJSYwfP54tW7aQkZHRpgUXXF4Na4u7cAICAgICjiVPoSHl08Ms3HD6qgguM0qNjqWbc5m07ECzQhgFrj4Gg5HSsgrO5heiKFNhMBibNM7FC/k4deuHzmBErTWw/1yZJbTwSnQGA+Ku/XGRSDl2Ious7NNWx1994WkuXrzYpHkI1EYQXW2IcwfeolpdQHifu5BI7V9ZkEgDCe9zF9WVBZw78FYLzLB1uLKIIlyusdFR48gF2j5mgS3k8l17nDx5EhDCCwWaxt6cMiYtPcjenNYzTzp+XsWkpQc5fr59L8C2NYYOHcqgoc3Lsb9SfOl0evsGEIkQefgiL1E32DW3VI3+/EnUFWWWPK6WpKPnywqiq41QIt9AZclRIvrc1ajdrbpwFrsR0ecuKkuOUiLf4MAZtg4rVqwgKiqKxMTEa/bh1VxQMT4+vpVnInA1MYsu8y6ngIBA+2ftwQJSPj18VXe36kKp0TFp2QHWHixo7al0GHbs2MHuHVsdMtZl8VVEUXE5Gk11o8/VH/6FIlU1mfnlqLW1RZuqWs/+c2Uo1DowGvAL6GRzHEeFF3br1g24XI6joyLkdLURSuTrCQgf2qQdriuRSAMJCB9KiXw9fpFjHTC7q09mZiZz5861CJbhw4df86F5Qi6XgMC1QZcuXTh58iR5eXnCbpdAo1l7sID5a0629jRqYZ5TcmKQQ8d97LHH8PX1vea/mx2BTCZr0fGVKjVKlRqj0YA896zVMZ1Oh1J1eUeze3RPsvMLAThfXsX58ir8pS54XnJIVFbpKKm8nONlKDqDwcvL5nVffeFppiTfIuR1OQhBdLUBNOVytOoipLLRDhtTKutC0ZkdaMrl15SjYc16W2C6kaWnp5OSktLKMxMQEGhr7Nixg6FDhzp8XHd3dwDU6obDcwQEwBTO1xYFl5n5a04S6iNhQJTjxMG4ceOYOHEiLi4uDhuzLXL27Fn8/f3x8KhdUystLY19+/bZZRffHHQ6PTm5Z+o4puNI5n5yTp3CaNCjPfATLn3HAVCs0lKsqm2moX7vHtBr6dYrhkP7/iK+/8AWnX9HDy8URFcbQKs2rUh4yBznNmQeq0p5bYmuxMREFAoFMpmM1NRUUlNTr/kdIvNuna38s5J/jlB69B+b52lVKpTyHJvH1Bcvoi5sOP7aKzIKF6m0ztfl8hx0NVbIrnwNIJZK8Y6Msvzt3ikQSWAg3hGRiKX1u2SqCy+iLixscJ714eLhgVdklN3nNXTt0n+O2D2mWColYuztjeprNnc5dOiQ3dcRaJgjR47w5Zdfkp2dzT333FOruKeAwNVCqdGR8ulhh47ZM9h0bz1xwXE5WbNXH+X3/xuAl+Ta+r+iUqkoLS0lLCzM0vbAAw8QHh5ucTFuTB972bdvH5MnT0YulyMWi5kxYwZLly7F2fmyrXtSUhKDBw9Gr7cz78rB/PTdl6hUKrr0HsSAsTPoMWAMXy+aQVXBadxunWPznOqVqXQK7UZM4gwqlaUc3fgZ/xzO5PZJU/CWmZ67HBVe2L17d7Kzszl79mybNz5rSa6t/3ntFE25HA8fxwsjD59Iqiub98B7tZkzx3RzaA9iqzEcWfpuo8RTU7lStJU0QWjoVCrLeRf3/FXruF/sdUD9IrE94RURaXnP9WH+/RVyulqG6667jrfffptvvvmG8+fP06VLF4eNbR4rLy/PYWMKtF/mrznZrByuzj5ujIoJYFSMP71CpDZF0aZjxezNKWPTsSLyFVVNuo5So2P26qMsf+Dq7Mo4ihdffJGVK1dauegVFxfj7e1tVx97yMvLY9SoUUilUl5//XXWrFnDBx98QExMjOU5xRYJCQnonJp2zaaiqlBSXqYgtEdf/vXEhwB4uDkz/cnFVJSX8M3byYgHTcZoNGLUVSMO7EbV+jdJTl2Gf+euyAI6A9Dv1hQ+e2osZ/ILue6S6BLCCx2LILraAM4uUqoqLjh83KqKC3iFtM16XeYwwjlz5litejR1RaotY37otiUizYIr8sZhNs/1CY+w2S7xkSGRNSxKKwoK0Gk01q+rLr/2DApC7Caxfi2xLqyp02ioKChAU6ZAU1ZGRcEFdJoq099VVfUKOYmscfOsD51GQ8VF+xPBG7q2T4Ttz7YuLhw+hKas9dzIBGojEomYNGkSAFVVVeTm5hIdHd3scc1hREJ4oUBDbDpWzKZjxQ13tEHPYCmPjYxgVIx/g31HxfgzKsafZ8Z2Ze3BApZuzm2S+NqbU8bKnXlMGxLalCnX4tChQ/Tv39+q7ciRI/j5+dG5c+c6zzMYDDg52fZyMxgM6PV6XFxcOHz4MHl5eRQWFrJp0yZ69epFaGgoa9assew4NaZPXeTl5aFQKOjduzfZ2dmEhIQglUpZunQp5eXl/PjjjwwfPpynn36aHj16sHHjxnpFV2ZmJpmZx4mN61fvdR1N7PB/ceuMV3BzcSI6RIqHmzN9wm8FoFf3rmz/7QcKLhagVBQS0y0EpxlpdI27wWoMqZcfMxdv4r8z+9O7ZxROTmLc3WuHVDYFIWTbhCC62gAS70j0Og0a1UWHGGkAaFQX0es0bS60sK6crfaM2XWxvi31ukRXc/EMsk6ctldoAIglkkvn2T5XkZvbrPGvFRS5ua0quoqLi5FIJEgbCOnsKFRVVVFeXm75PPR6PRs2bOC3337jnnvuwc/Pr5VnKNARWLThdMOd6iBfUUWoj6ThjleQnBhEcmIQCzecZtUu+3djl205w4S+Qc0OM1ywYAGvvfYaP/zwA8nJyQAYjUaGDRtGSEgIarWayspKHnzwQV599VUAjh07xpw5c9i+fTv+/v7MnDmT559/nlmzZlFVVYW7uzvfffcdAN9++y033HBZGIwePZrQ0FBOnTpFREQEL7zwAoMHD6Zfv3719nnsscdQqVQ8/vjjrF+/HolEwhtvvMGdd97J7Nmz2bt3L5GRkZY5HTx4kB07duDr68uNN94ImBZ4BgwYwI8//khVVRVubiaXablczr59+xg7tvVMyzL37qagsARmvEJEgDsebtZCs3fiYHonDm7UWNnHc+k/chxOTqbfjZvGjnPIHENDTSL/7NmzDfRs3wiW8W0AD7/eOIndqapwXJhZVcVFnMTuePj1dtiYzUEul3P//fcTFRVlEVzTp09vlztbHQ2fiAjLHwHHs2PHDqqrq1m4cCE6XevbULcVdDodr7/+ulXbzJkzCQsL49VXX2Xfvn1NHtu8W5adnd2sOQq0b9YeLLCrAPHIGH8roWPOBatZS2vzsWKWbTnDsi1nWLTxNMu2nGGv3PZizzNju/Lfe3rbLZ6UGh0rdzY/dLbs0iKUXC63tIlEIpRKJUePHiUsLIzOnTuzYMECtm7dSn5+PsOGDWPv3r3Mnj0bb29vlixZgtFo5O+//+bjjz9m48aNDB8+nPPnzwOwZcsWxo0zPfgvW7aM77//npKSEi5evMiFCxfo27dvg33A5LT46aefEhsbi0gkYsaMGVRXV6PVajl37hyZmZmkpqZSXFzM5s2bKS4uJiYmxmo3LioqisrKSkpKSixtKSkpTJ48mcOHTTl9c+fOZdqMx5r92drD0BFj0Far2Xf8H7ylTRfSKq2ebZt+5PThy2kE677/2hFTFLiEsNPVRvAJG0Hh2Z14+vdoVp0uAL2uisKzO/EJG+Gg2TWP5cuXM3fuXEuYnVlsCTazAgL1s3btWg4dOkRISAhisVgQXTWo6/O46aabiIyMpFevXhiNRkQiUSvMTqAjYM8u0/jEIF6bGF3LVt4svEbF+LPpWHGduWFeEjGjYvx5dGS41e7YqBh/mBjN46uP2jX3dQcv8tjI5i2UmYXGlVEcXl5eJCYmsmnTJhQKBb6+vvz1119s2bKFoqIi1qxZw4QJE9i2bRvu7u6IRCIMBgOBgYHs2LEDb29vQkND6dOnD97e3uzatYuffvqJMWPG0L17d0vxck9PT8BkZlFfH51Ox48//siUKVP46quv+PXXX7nlllvIyMhAdck46r///S+TJk0iPT2d7Oxs+vTpw65du6zeV1FREc7Ozjbzm8wCdPHixezLPM69KY8067O1F7GzE4cyvuXP+Bi6+Xng6eKMu7MTEnHd4ZV6oxGVVo9aZ6C0Sku1wcCJ/dsJr2FcNWjIjQ6Znzm8sLi4aaG47QVhp6uNEND9XyBy5tyxH5o91rljP4DI2TRmG0Aul6NQKBg/fjw5OTksX768Qwku8824IxiDtGfMoZpXyyzks88+Qy6XM2vWLIKDgxGLxWi1tS1/Oyr1idDo6GgMBgMajYbXXnuN3BohsAICjuD4eZXVDlV9jIzx57WJpt3T5MQgFky0zjtUanSsPVhQrxmHuc+kpQdrFTseFePP07d2tWv+eQpNk3PRGsLDw8OSSyUWixGJRBQUFFBQUICTkxO33HILAP7+/hbRAxAREUFgYCASiYS33nrLYoJhzrE0241XVZly2cwhfg31+eeffygtLbWEIZpDksViMUqlks6dOzNt2jTL/USlUtG/f3/y8vIsxhxGo5EtW7YQExPTYJ5Ya+Dr64dankmRSktplZazFRpOllVyuFjJ8VIV2WWVlj/HS1UcLlbyT0kFcqWaAnUV1QYDAPm5p/D1D7CMW3DhvEPmZw4vFESXQJvA2UVKWN+n0KgKyc/a0ORx8rM2oFEVEtb3KZxd2kbuR1paGjk5Oaxdu7ZDiS0zjcnpEmj7mA1GtKrGPWiZf+7x8fF2X8tw6Qtw5syZlhXC5557juDgYLvHaq84OzuzZMmSevsYjUYGDhzIwoUL2bx5s13j+/ubzA1qhhIJCJjZdKyoUf16BkstgstMcmIQj45oWokYpUbH/DUnawmvaUNCLTbzjaWlRJerqytnz57l999/58knn8RoNDJhwgTGjh2LwWBg+fLlnDhxgoKCAs6ePYtGU3+IprkcRHV1tdXrmosu9fXp3r077u7urFq1io0bN5KWloafnx/Dhg0z2ax36YKzszM+Pj44OzuTn5/PyJEjMRqN/Otf/+KLL75g6tSpnDp1ipkzZ9Y719YILwToHBZO4HU3olDXXpirNhhQ6fSWP2aBdSUlZ06grdbSOezy72bO6VMtNueOiCC62hAS70giBqZRWX6eU/s+RFmc1ehzlcVZnNr3IZXl54kYmNYqBhpyuZwRI0aQmJhY61hHFFsCHZv6XCvr4ty5c+j1ejQaDVOmTGmpqXUoBg8ezBNPPMG+ffssYrYxmFdkBUMOAVvszWnYVKdnsJQVM+Js5lw9NjKC8YlBNs5qHPPXnKwlmuaN7WbXGJtbSHSJRCKOHz/OTTfdxPvvv8/NN9/M0KFDGTNmDKNHj2bWrFn06tWLnJwcVCoV69evx83NzWrnqibmvKqgS9EGAQEBFpHUmD5SqZQPP/yQCxcuMHbsWLZs2cKCBQsQi8VWC1lOTk707t2b4uJiEhMT+fjjj8nMzGTq1Kl89dVXPPbYYzz66KP1vvfFixez8pOlTf/wmki36F6c+e1jCorLmzxGUe4pJB7Wwv3hWXObOzXg8uKVeTGroyLkdLUxJN6RRA19kxL5evKz1iPJ349P0HW4uMnwkFnXoaksO4u2qgxFwRE0qov4Rd6GX+RtrbLDVTNvqykr+wICHZ0jR47w8ccfc/vttzNkyJBaxxUKBXq9vl4b5o6GUqnEaDRadgPrIiQkhFmzZqHRaHB1deXYsWP06dPnKs1SoD1Sl7mFGS+JmHfvrd/kwrwDtu6g/SUxwCS8Rs2/7Eo3IEpGZx+3RlvJKzU68hSaJjko1ofRaCQxMZG0tDSCg4Pp378/IpEIiUTC77//zvnz5zl58iRDhgxh//79xMbGEhMTU+d49913H7GxsZb6eZ06deLChQsEBAQ0us/UqVO588472bZtGz169CDikvHTF198YbVjtmHDBsuCWUpKCvfddx/Hjx8nIiLCkkPWFnFxdSWkWwz5u39EG/8oLs725bJq9UYy1ixHJpNZtX/w3mJmzUxp9vwE0WVCEF1tEGcXKZ163Gky18j6lpLzf6NRmmw2XSSmlR2txnRTkHh1wc27K50Tn8LFvdNVn6tCoeD+++9n7dq1AIwfP97iTigg0JGxJ6x0+/btfPPNN5YHB1t8/vnn3HbbbYLoqsFrr73Gk08+adc5p06dYtWqVQwZMsRicy0gYA8N5XJ5ScQsfyCuUWLmtYnRHD9fwYkLjQtbrok5zyu5xo7ZqJgAuww+8kubZlsPJiHj6+tLUlKSVbvRaMTX15c77rjD5nkhISGEhIQAMGjQIAB6967badnT05Nhw6zLqtQUXI3t4+rqyujRo2vNpSZhYWGEhYVZXjs7O9d5T7bF3Llz+XXbYfT6xu+qOwpNWTHVWbsprXyIQC/XBvurqvTklVWhUGspVFajc/MhotPVLezc0RBEVxvGxb0TneMub2VryuVo1YWWY61dgyszM5MJEyYgl8st9bZSUpq/IiIg0BbRNZB3cCX2hBcOGDCAwMBAqy/7K2nvRho6nc7qj/lzO3v2rFW7eUV8z5496PV69Hq9XdcJDw/niSee4Pvvv+edd97hvvvuo1Onq79gJXDtUp/hBcDyB+LoFdL4iJMVM+KY/snhJgmvTceKrxBd/naJrj05CgZEyRruaIOpU6fy4IMP1mp3dXVFInHs7llbJT09nT/++MNSz6su98KiwgL27dtOSEgYwcFhdAoMqbM4dFMJCgomO/ckhRXVdYouRaUOeYmaPIUGVfXle6e+spziI1u56f6Hrfo/9/Iim26N9mLe6WooKqG9I4iuawiJd2SrC62apKamIpfLiY+P77AmGQ2RkZEBwPDhw1t5JgLNpaLAFALkF3udw8b85ZdfSEpKwmAw1Cu4oH63vqagVqutxIxZeJw+fdqqPS4uDoCdO3ei1Wot7TfffDNGo5E///yT/Px8S/u0adMA+PPPPzl48KDlHPOO1M6dO1m/fr2l/5tvvgnArl27WLNmDWKxGLFYzMsvv4zRaCQ7O5udO3da2s33mcrKSiIiIpr0mXh6ejJ9+nQyMjIEV1EBu9mTo6jz2IKJ0XYJLjDtjDVVeDUmt6wlsSUcvvjiC4vzYHsnISGBmJiYBhd/ZD6+hId3JT/vDMeOHsLJyYnAoM6EhIQRFByGj0/zc0cjunUnv6SCi8pqYmts4Gn1RvIUGk5erLRptAFQdnA9Yle3Wj/PV194minJtzRbeJlFlzn8s6MiiK42glZdiLJgLwZdJariI0BTt6adkPpfh5PYA6+gAS0acpienk5GRgapqaktdg0BgWuV+sILNRoNH330ERKJpNHmDjNmzEAikbBr1y6ys7PR6XRotVpmzJgBwF9//cX27dstYubZZ5/FaDSyZ88evvvuO3Q6HXq9nvT0dAAOHDhgJXJeeOEFAM6fP28lcnr06AGYHBXlcrml3WzNbE5WN7ebncikUinDhw+3tJtdxaKiopgzZ46l3SyaBgwYwIABAyzv1/wQc/3113P99ddb2o1Go832ppCUlIRWq0Wv1/Ptt99y9913W1zPBASawvw1J63qcAHsnj/YKrcr9vk/HXa9zj7Nq+vZEvTv37+1p9Bq9O7dG42h9m6Oi4srvWMT6R2biFZbTX7eGfLzzvDPkYMc2L8Ld3cpwSGhBIeEERLSBTc3+3cKAzoFoSyQIz+4DW238bg4i8hTVJF5rtxqV8sWqqw9tfK5BByP8O3Syui1KopOfUuJfCMSaTAuEi88PJu3oqApyUSrUVJwbAV+kbcS0H1ys801VqxYgUwms8qBSEhIEGzQBQTqoK7wwgsXLvDRRx8RHR3NuHHjGj2ewWCgsrISkUhkKZbs7OxsETnu7u7ceuutFjFjrlMTFRXFvHnzLO3mEMXExEQrp1GzyLmy3Sxy+vbtS9++fWvNy5ZbKdSdo9EWE6nNwvfVV1/lnnvuITo6uoEzBAQaz/HzKqsQPnvMLsz0CpGy/AHbTog1GRAl459XrAvaXlmQ2VGUlZVRXV0t7BbX4OjRo+zZtY/4voPq7OPi4kpEZHciIrtjNBopLrpIXl4u+XlnyDl9EpnMl7G339mk6ycOHU32PxkcHDTCssPVGKovnCKyR+1ab44OLzTXU+uoCKKrFdGqC8nZ/hQubp5E9LkLD1nT6nbURWXZGQpObyb73FaibnjD7l0vuVzOkiVLWL58ueUB0vwAJuAYxB4e6Cor0Wk0ljpQAu2bgIAArr/+eksOgL2Yw/2upC6hIKxeNo5Jkyaxf/9+li1bZtkNFBBwBOVX5IANiPKx27Hw+HkVKZ8ebpTwqklDgqtXSNMd+QYPHoxIJCIn5+oUjG+LyOVy9u3bx9ixYwGTo+q2jF+Z/8IrvPffxfQdMJju0XWbhIhEIgI6BRHQKYj4hOuprKyguOhik+dTfC4bjVKLvFht13mRQ24jytv697RCqeTFZ+YK4YUORKjT1UrotSrO7X8DD1koUYkpDhdcAB6y8Etjh3Ju/xvotY2LFV+xYgUjRowgKiqK9PR0iw38Dz/84PA5XsukpaUxYsQIlixZglwub9IY3pFRwOV8IYH2y+7du9FqtVRXVzdZcAm0LP369ePFF19EqVQC4Ovr28ozEmiLhPrat0B2Zd7VqJim7fYeP69i4YbTdvVvaIfL2w4BdyW5ublN/u5rL6SkpDB58mQOHz4MwAsvvEBxURHqsjw6B3pTelHOio/e4dMP3mH/3p0NLlx7eHjSJbz2jlNjCQ2PRKs4b9c5yn8yOL3lazRqk1Dbvvl3vvv8Mx584AFuvfXWJs9FoDbCTlcrUSLfAIYqQnpMaPFrhfQYy5m/v6JEvoFOPSbX2zc9PZ25c03F8MzhhKmpqUIYoQ0yMjLYunWrJa8tISGBlJQUEhISiI+PF0IuBCz88ssvbN26FW9vb8Fwpg1z7tw5Vq9ebTE1EQojC9iiV7B9u0ObjxXzzNjLD9KjYvwZEClrsNaXLdZe2iFbMLH+EFjzzlhDNNW5UMCasjLrn+WNN95oWVw7fvw4v/76K/dNn0aPbpEMGDiEx598mTJFCTIHGGjUJKp7NLv+zKC6JA9Xv9BGnVNx7E/cPLwozD/LoldeJPmWkQwaNAg/Pz9G3jjQofPr6Aiiq5WoLD6MLCgWZ3HLJ8E6i92QBcWiLP4bGhBdSUlJDB8+nJSUFJKTkwXhYAeZmZlWpiIJCQnccsstrTij9k1ZRQXubm64uri09lRssnXrVsCUwyWXy5k1a5awc9KGOXDgAF9++SV33303gYGB7N27t7WnJNBGsdedME+hqVVP65mx3Uj59HCD9vO2aEh4mQVXQ2P3DG5errdA4+jVqxe9evUC4MQJkwAb0CeC3jFj6B4dw8Oz51GlUdMlouk7XDVxcXWl/NBvBIy4v1H9q/OOknzbLXzyyScA9Raqbipmq3izAVNHRRBdrURl6UmCIodctetJpIEUnN5s1bZixQoUCgVz5syxtCUkJFhszjsS69ats7jNmcnMzEShUDB+/PhaDo1RUVENhlVkZmbWGrM9oVKrUZQrCQ26HOs9M+1lwkOCee7hmY3u0xQ+/+lnHn99IfMeepAn72/bteEmTJiAVqt1eE0WAcfSrVs35syZQ3R0NCdPOt50QKB9MTLGn83Hihvdf9nmM4yK8bfkY5mNMRwtvBoruACujxIWVa82AQEB3HvvvQAUFhby66+/smHjRn755Rfm/OdZtm//k4R+g7gurl8zrtEJnXvjLfuryy4yfvz4Jl+vMYSGhnLkyBHOnj3boSOnBNHVikikzXeEaSw1c8YyMjKYO3euRRDUFF1Xm8zMzFrb8hEREbVCsJYsWYJCobApCIcPH05aWppVW2JiYp2CJykpiS1btli11XRlM7i8/gAAIABJREFUvBKj0VhLdDXWUGTo0KHs2LGjUX2vNV55/wM+/3k95zb9bmkrKVPg7Sm1q4+9rF6/gQdfNP28VVdx1azioukhx5yH11jc3NxYs2YNvXr1omfPni0xNYEmYjAYOHfuHNHR0Xh4eBASEtLwSQICmEIE7RFdeQoNSzefsQozNAuvhRuymxxq6CURW8bMU2jsEnE1d96uJeRyOT4+PrUicRQKBYcOHWp2XUy5XE5ubu5VSRO4+eabufnmmy2vy4rzWPfNZ9w29mbmPfUf4hIHMuTGUfWOodVWU1hwgaKLBfgHdKLgfB6iok/wHTSpweurTv1F9+sSueOOO5r9XgQaRhBdHYjjpxU8OmKERbhERETU6dJlvunYwpYoMuc3mVEoFBbRY+9OUXx8fC3BVF8tsNLS0lqiqz43pfj4+Fptixcvtjg0mklISMDHx8fmqoxcLicpKcnqPcPlPLjk5GSSkpLIzMxkxIgRdc7lavLPqWz8ZN6EdKrbxdJgMNS5I2MwGNAbDLiIxfydlUX+xYsUlZayZc8eekZG0jkwkK/ffgvnS+c3pk9d5F+8iEJZQUzXKE6fO0dwQADSS+EJXYKDuff22/ji5/W4uV29GjW6S9bsYqn9grFnz56sWLGCMWPGtJnfh7aIRqOxKswcEBAAmBL2a7bHxsYCsGfPnibX6iooKGD16tV07drVEvojINBYRsX4s1AitmuXatWuPHqFSK3ETq8QKctnxLE3p4yVu/LYm1NWa0wviZiRMf5MGxxaS6CZxxwV48/jq482ej6dfdzsDpO8krCwMM6dO8fgwYORSCRERkYSHBzM7t27bX53+vj4EBwcTHBwsKWtoqKC7777ziKi5HK55dlArVbj6+trKYtRc9HVw8ODTz75hODgYDQaDRcuXOCpp56isLDQ6prm7/GkpCRefPFFy0KvQqFg7dq1lvmY53plmgBAZGQkkZGR6HQ6rrvuOsv8MzIyLIuqdbnK2su8efOYN28eZ86cYdzYMfy8fgP9EmJZkv4OfRKvJy5hAJWqCjyknhzcs4uS4kJefu0t3v/v29wyegRpaWn88ccfPPBI4xbTK7P3oz7X8u6ToaGm/LKOHkUgiK4Owtvvfs4T838DTEVLx4wZQ0JCAuvWrUMul9e6ySQmJtYSIWYiIyNriZr6HiRzcnJqjR8REYFcLre5kpSSUjtcbMuWLWRkZFhuoDWxJYrqmntdNLfAs0wmIzU1ldTUVLtWxtSXviBa2i7eaDQy+sGHCA4IQF2loVKj4YHkZNIeexSA4zk5/N+bb7HzYCZ+PjJmTJzIsw89SOrCN6jSVuPu5saaPzYB8OUbixjxwAzL2Lf++1E6BwZydN0P9LhtHPNnPsjAuDgG3zO13j7/vvNOVGo1/3njTTZu347E1Y3XUh/nX2PGMHfRm+w7+g8RIZ3ZmZmJn0zGnq9WExYUxI39+hLROcQkutpoPteV9O3bl7CwMFauXElERARduzomdr+5VFRUoNfrLWImKMj0MGguvmwuqGx+oNi5c6eV+DGv0K5du5bq6mrLWNOmTUMkErF27VrOnDlj6f/0009b+v/111+W9iVLlgCwfv16du/ebakp9sorrwCm2jc5OTmW9v79+yMSidi+fTtarZahQ4fa9b7//vtvVq9ezfjx4xk5cqRDPkuBjoWXRMx9gzuzbMsZu86bv+Yk+YoqHh1h7Vg8IEpmMbXIU2jILzXV8ers60aoz+Xvh3fv7c30Tw5z4oLKasxlPpJG12QCuG9w40wW6sPV1RUwObPaIiIiwmoBdf/+/VRUVNQ5Xs0dqoSEBJYvX14rEsY8blJSEnfddZdVu1wur7UAbL7+3r17kclkVs8GX331lUXQXYm3t7elBqFZQL700kts377dZn9Hl+YIDw/noYce4qGHHkKtViMyaAgKDuGuu6ZQXV3N75sy+KNrGIMHD2bgwIHcO/nyTtXo0aNRFl/ANfMXvBPqzyuvlGfyxgvPO3TutjDndHV0BNHVQXhzySrLv1UqFWvXrmXt2rXAZcFQkzlz5tSZ22UrFM/WTlFSUhJgWxTZmzeWlJRkGa+tkJqaSlJSEgkJCfWGJ9aHutBUj8MzqGXDPEQiEUqVitLycoYmJqJSV7Lwk08ZNWgQ3cO7MGrGQ+j1eh69awob/tzOe6u/ZN6DMzhy6hTbDxygW5cuDOvXl29+NQn33z78gCWff8H6bdv477xnSIzpRWl5OYUlJRQUFZPYq1eDfQDmLFzE5z/9TNKAAeTk5fHvl17hjqQktDodeQUXKVNWMPuee3h39Woy9uxl6rjbrd6Xi8u1cwsLDAzkiSeewGg0UlVVRUFBAZ3q2XW8Ep1OR1VVFVKplPXr16NUKi2i5YEHHgDg559/Jisry9I+f/58S/vWrVst7e+99x4ikYidO3eya9cui5h54YUXADh9+rSVyBk40ORgpVarqaystLSbv0iDgoIsbWKxGMmlRYS4uDj69u1raTc/pN10002MHTvW6hyAyZMnM3lybbOfSZNsh8lER0ej09mfD9O/f388PT0tO2YCAk1h2pBQVu3Ktzsna+nmXPbkKFgwMdpKUJkJ9ZHYbAeT2FsxI66W8LJHcHX2cWNC3+Z/54SGhnL69GkWL15MQkKC1S5VZGRkrQXUtLS0Or/7IyMjWb58uVVbcnIymZmZlmeIhp4Brox4gcvPGubdqpokJCRYcrevjK5JSEioFQlk7l/z9fPPP9/iIYju7u6WZ4zcGhFC18XU7WAZGRnJmd3fNyi69MVnr4q5hdkJtri48SG57ZFr54lFoFkseeP/uCvlWau2hIQERo8ezWOPPVarv62bV300d6foWsQcRnit4CWVEt+zJ7988D8USiXBw0ew58gRtu7bR7FCwddvv8n4ESP488BB3N3cEIlEGAwGOvn5kfHZJ3h5etI5MJDYHt3xlkrZffgw67dtY9SggXTr0oWsXNOKr/RSxflh/fvV20en17N+6zYm33QTqxa+xu+7djHusdls27cflcZUL+Sdp54gedQo3l29mtPnztV6TyJEV+nTsw/zF72tUFaRSIREIuH1119nypQpFkHTEIcOHeLkyZPMmDGDoKAgQkNDa4mc+Ph4+vXr16DIMVPX73BdSdXjxo2z2V7XblFdLliOekgRi8V2ia6vv/6a6dOn4+TkJAgugWbjJRHz6IhwFm1sfO0sM3tzyrjp7b0kJwZx3+DQRof6HT+vYtWuPCvBZS+PjYywq8ByQyQkJDRqUdTe5wpHLLbWd7693+G2+icnJ7dJRz6DXocm/xT5K/8DHr549R6Oe2QcOmURuuI8SnZ+g6HsArqqSmbPnt3i8xFElwlBdHUQpky8ibjATKpC5pGens6KFSss7nparbbO3C6B5mFeoTt06FArzwTcJRKcnU25VGJnZ0QiEReLi6nUaHBycuKmISY3TX8fGafPXhY4ESHBdLp0w1w497K49rj0oF95KTyjSlsNgJurS6P6HM3OprS8nMQYUz6NOWdLLHamQlVJSKdO3Hv77ZQrTeEoqkuFG2vSVh0BzV/09f3cn376aVauXEl+fj4TJjRcr6+mwBg2bJjNPj169LDZ7ulpX12ha4WJEyc26oGnuLiYL7/8kuDg4Eb9zpw4cQKA7t27N3uOAu2baUNC2XysuElGGGAyw1h7sIBQHwmjevvTK1hKZ18JXm5ilFWm/+/5pRqOX1Cx6WixXTtathgQKXOYgcb8+fPZuXNnm4tCETB996xcuZI33nyTguzj5B/+nb4jbufAlp+Z9fwiln59hJKSEtasWXPV51ZZWYnHpcXZjoYgujoY5jjptLQ00tPTWb58eYevKN+SmFf07c0xawlcXcScu1DApt1/sXbzZoxGI+NHjqC0vJyPvvueVT/+RNKAAVwsLuFcQQGa6up6xxOLnQGo1mpNr51Nr3U6faP6dOvSBXc3N1av30Bs9+6kr/ocP5k3N/Tti0qtJiwoCGcnJ2Renjg7OXH+Uv7buYICVv30MwC/79rF6EGDiI6McNTHdNWIiori2WefZeXKlTg5OWEwGOrtb++ujsBllixZwpgxY6xcwgQEHMWCSdFMWnqwSdbvZvIUGlbuzHPgrGrjJRGzYFL9RZXt4cYbb2TMmDEOG0/AsUybNo1p06bZPLbomVkAtfLiWpJu3bqRnZ1tcYztiAiiq4MSGRlJenq6zR0uhUKBQqGoFf8scG0jQsQJuZzbHjWFk44ZPJjB8fFUabWMHHg9qYvewGAw4CeToVKr2fjndtwuhafZwklk2jEI8vcHIMDHB2cnJ3y8vBrVR+ruzrLn5/Pk24sZP/txnJycWPLM04idnQkK8KdSbVrRdXJyIqZrV4ovJVT/lLGVRZ98CsAv23cwcuD116ToAnBxcWHGDJMpSXV1NQcPHqRPnz42+8bGxtKvX9Nrt7RHFAoFpaWlFgMQW7i5ufHCCy/g7d34ujUCAvYQ6iNpVs2tq8XyB+LqzBUTEGhpzKYlHdlUQxBdArVISUlh3bp1pKWl8eKLL7b2dAQchBEjCb168tzDDxPk70+/3jGm/CJXVzb8bxkXiorIyj3DoPg4Dh47RkzXbvSKqlt433PbWHp360rYpQfeAF9fzvzxG/418nUa6nP32LFMGjOG7QcO0j28C+GX6iStWPAqOv3lHbN17/4XhVIJwCNT7uSRKXc69sNpA2RlZbFmzRry8/OFHZlGcvDgQfLy8pg4cWKtY2vWrCEhIYHrrrtOEFwCLU6vECnPjO3K/DVt0xJ7wcToZlvEC9TG19eX8PBwdu3a1dpTafPk5Zl2crt06dLKM2k92mZCRAdBo7rYJq9lzkNKS0sjKirKbqdBAWvMNrit/TkajeDj5c3tw4cx4LrYWrktwQEB3NivLy5iMdf36YOX1IOYrl2JqcPe3NPDgxv69rVq87/CIKExfVxdXBg58HqL4DLPJazG7kVoUCCx3bs1/s22AJJLlsBmx8mGsPfnHhsby7x5/8/efYdHVaaNH/+e6Zm0IQlJCIEECL03AVFIWAtiAVZXVxcF2+paEHXdXdsL6qqLDeRd67tKsPxWXAu6FhSVBAUsCKEpnYQAIZAyaZOpZ35/TGZISA9JJiT357q4zEyec859Rkjmnud57vt+cnNza1XxAvB4PA2WW+6K6lpyWVpayiuvvILD4WDIkCFBikx0RbNGx/H+bWNatUhFa3j8twPapBFySUlJrV6VXY3VamXbtm3BDkOcISTpChJTeCK2kub19zgdtpJDmMITmzR20aJFrF27lpEjR5KdnU1aWhqzZ8/uEPuSOpuoIb4KatZ6GlG3JoNeh8lY/3JB0TBTpC9ZrDzedh+WWCwW5s+fz/Tp09FW7X/zy8vLY9myZW127TNRXUnXunXr6N+/PzfeeGOHLbQiOq9BPUJJv2EECZb2a9xen3CTjvQbRrRJwgVw3333MW3atKB/oCg6vn379gG+htpdmfxGChJz9AhKju/E43a0+bU8bgclx3dijm56x/TU1FSysrJYuHAhkZGRrFq1ij59+kjRjTNY+uN/5+l77w12GKIJ+vbti9FopKCggG+//RaQQhp1mTRpEnPmnGzCbTQaufLKK7nkkksaOKpxubm5gK8PkRDNNahHKB/cPoZpg6ODFsP45EjW3Ds+0HC5LRw61H4fHIvOoatWLfSTpCtIYlKuAMVA/sGv2/xa+Qe/BsXgu2YzLVq0iKysLGbOnInX622D6Do/f0GSYCesY4cMoX9S76DGIJpHp9OxZcsWVq5ciVarlaSrHh9//DHPPPNMrdnBlqqsak/QlTd8i9MTbtLxv9cMYdk1Q9p11ivcpOOvF/Ul/cYRbb7M8dxzzwWCv3RedHz+/VzR0cH7IKIjkKQrSLT6UHqMuIOywv3kbH+nTZYa2koOkbP9HcoK95M49q9o9S3bRJucnMyqVavqrGgY7ETiTNBRki7Rvvy9a07nDUlCQgJ/+9vf0Ov1rFmzptnNRTu7vLw8XnjhBaxWK3/961+DHY4QtfxmcDQf3D6G29J6t2kS5G/UvObe8Vx3tszQtqaSkhKc9bRQiaza65tTzxYBVVXlwzJOfpAlSZcIGlNEMimpL6APSyZn+zvk7FjJ0b2fUXBoPS578xstuuwlFBxaz9G9n5GzYyU5299BH1Z1jZDurR5/RkYGffr0IS0tTT7pEqINzZkzh5tuuqnVZnI6i5KSEqKjo7n11lsxGoO/h0aIuoSbdNw+LYnvH5zE478dwMD41qsimGAx8teL+rLm3vHcPi2pwxXxaA0VFRUcPny4xnM33HBDjQ+hmjKmJVasWEFCQgLPPfdcnd/3Fx6rb6nl559/zhVXNH+V0alCQ0PxVKvo25ruvPNOtm/f3ibn9isqKgJkeWHn+9d5htHqQ0kYcTvd+1+J9XAGrsoTFB79EXNkL/Sm5q3FdjlKKDy6mfC4szCHDyJh1H1tkmz5WSwWIiMjycjIICMjg9TUVBYuXCjd6YVoI4qiBDuEDmXQoEEMGjQo2GEI0WSzRscxa3QcR6x2vv6lkJ+yS/jpYEmT+3uFm3QMig9l2uBofjMkukv03Vq4cCFvvPEGx6sVMSosLKzRCqIpY5rrzTffZN68eQD1Vo5NTU2luLg4sNTyTPLZZ5/x2WefsXz5cq68sm3bsPiTrq5cLh4k6eow9CHd6d7/dwDkfH+sxecxhfcmYcRtrRVWg0aNGkV2dnagyXL15GvJkiWBT4CEEEIIcVJPi4nrzu4ZWApYZnezK6+CI1Y7R4rtNcd2M9HTYiKhm7FDJVn+UumnftC6Y8cOoqKiSEhIqPdYVVXrrS6qqioejwe9Xs+2bds4cuQIJ06c4Ouvv2bQoEH07NmTDz74IDDz35Qx9Tly5AhWq5UhQ4awf/9+evToQWiobyayd+/eXHfddbzxxhuYTHW/7osWLeL+++9vcBbK4XDwpz/9iU8//ZTBgwfzwgsvkJKSwsqVKzly5AgHDx4kNDSUf/zjHyxdupSXXnoJh8PBH/7wBxYtWoRer691TYfDwZNPPklxcTF3330369evZ/DgwTz99NMMHDiQPXv28OSTT3LWWWfx0UcfsXr16lpx7dy5k9DQUMLCwhp8jUTrkeWF4rRYLBYWLVpEdnZ2oNJhRkZG4NMhIboq/5Jbmfk98+zZ42twm5KSEuRIRFcRbtIxvk8ks0bHcfu0pBp/Zo2OY3yfyA6VcAE8+OCDzJ8/v8YHrF6vlylTpnD++efTt29f4uPjeeihhwLf//XXX7ngggsICwujV69ePPbYYwDccccd3HzzzcyfP5/ExESSkpJYv349I0eO5J133gHgvPPOY8KECdjtdhISEnjhhRfYvHlzo2PAt/zwxhtvJD4+nuTkZN59913At7Ru+vTpTJkyhf79+5OUlBSoXjp16lQeffRRgNNavrxu3Tqio6P57LPPiI6O5sYbbwQgPz+fxYsXo6oq1157Le+99x7p6el8+umnZGZm8t133/HPf/6zxrn+8Y9/8PXXX/Pggw8CcN1116HX6/n888+ZNWsWF110EQ6HA5vNxmeffcbHH3/MPffcU2dc9913H4sXLyYqKqrF99ZU+/fvB2DAgAFtfq2OTJIu0SqqJ19LliyRDf9CCCFEJzZixAiWLFmCpVrDe0VRKCsr45dffiExMZGEhAQef/xxMjMzOXr0KFOmTOGnn37izjvvJCIigueffx6v18v27dv517/+xeeff87UqVPJy8sDYO3atVx66aUAvPjii7z//vsUFRVx/Phxjh07xpgxYxodA3D77bfz+uuvM3ToUBRF4cYbb8TpdOJyuTh8+DBZWVksWLCAwsJCvvnmm1r3eupsU3NERESwaNEihg0bxtNPP82mTZvIz88HfO1BXnjhBYYOHcqKFSuYO3cuKSkpJCUlceedd/Kf//wncJ6XX36ZFStW8NFHHxEWFsb+/ftZv349zzzzDCkpKdxwww1ER0fz3XffAWC323n77be54IILyM/PZ+vWrWzdupWCgoIW34s4PZJ0iVZlsVhYsGABs2bNqvH8qlWrSEtLY8WKFUGKTAghhBCtqa59puHh4UybNo1169YFEpgffviBV199lYKCAl5//XUWL15MREQEycnJKIqCqqrExsayfv16li9fzr333svw4cNJTU1l0qRJAJx//vlMmDAhsL/KvyyusTFut5uPP/6Yq666iq+//pqXX36Z8vJyMjIyqKioAGDZsmU88sgjwMlZmcbus6kmTJiATufbzdOzZ0+io6MpLi4GYMyYMYFxOTk5jBs3LvC4b9++NRKkf/7znxQWFmK1WgE4cOAAbrebESNGkJSURFJSEgcOHAgkdElJSYFZrNdee41zzjmHc845h5UrV7b4XsTpkaRLtAv/fq958+bRp0+fLpV8+UvFn1puXwghhDiT1ZWMmM3mwF4qnU6Hoijk5+eTn5+PRqNh+vTpgK98uD/pAV+SEBsbi8lk4plnngkUwfBXvLPZbIBvjxTUXPLX0JidO3dSXFzM2LFjAQJ7tnQ6HWVlZSQkJHDdddcFSrtXj8mvvv1n8+bNw2Qy1VsyHnwFPfyKi4vxeDz079+/1rjBgwcH+lkB7N27lwkTJgQer169mjlz5nDfffcBvhm08PBwDh48SE5ODjk5Oezdu5fLL7+81rkfeOABysrKKCsr4/bbb683VtG2JOkS7WLp0qUsX76cpKQksrOzmTdvHmlpaWRlZQU7tDYnSZcQQojOZtu2bXW2izEYDOTm5rJmzRruu+8+vF4vs2fPZsaMGaiqSnp6Ort37yY/P5/c3FzsdnsdZz/JP0vk75Xlf1y9/1VDY1JSUggJCeHNN9/k888/Z9GiRURFRTFlyhQqKiro1asXWq0Wi8WCVqvl6NGjAOTm5gY+IP7iiy/YvXt3rdj8v9/rKxkPvsIiO3bswOv1kp6ezpQpU+os8HHRRRfx3nvvBWbpPv30U6ZNmxb4fmJiIg899BDff/89n376KUOHDkWj0fDpp58CviRt2LBhNSo4io5FqheKdjNv3jzmzZtHeno6CxYsICMjg9GjR/Phhx/WWo7YVRT9stP3hQLWQyc/KXPbHZTn113FMiwuHp2p8U299pIS7FXLENwOO+VVSw5awtI7yfffpKQaj1uiPD8ft8P3S/bU+/R/79TrhcXGoaunelRHlZmZCUghDSFE5/T73/+enJwcvF5vjecVRWHXrl1ccMEFAFx44YVMnjwZh8PBeeedxx133IGqqoGZrk8//bTBQhX+Waa4uDgAYmJiAklSU8aEhoby6quvcs899zBjxgw0Gg0vvPACOp2O+Pj4wOyYRqNhyJAhgZmpjz76iMcffxzwlVc/77zzGDhwYLNfp5EjRzJnzhxcLhfl5eV8+OGHdY6bOXMmr732GkOHDiU+Pp7IyEhmz55dY0xUVBQPPvggf/nLX/j555958cUXuemmm+jVqxeHDx/m0UcfpVevXjVm10THoXhP/dcigi7n+/+he+JozJG9m3WcreQQJw5vIWnio20UWeuxWq0sXbqURx55hOXLl3fqaoepqalkZmaydu3aWm/Av577B9xVP/DPRP6kqC5u++klenUJi/MlX6ZIC6ZIXx87e0kJ9hJrvceU5+fjbuST1FPPXxe71Xed8YseI2rosEbP5V92Iz9izzy33HILAEuWLAlyJEJ0XIMHD+bQoUNs2bKlRgXDvn37BoprxcfHM27cuBrL8/Ly8tizZw9nn302P//8M0OHDg1UDBwyZEit65SXl7N582amTJkSeK6goICYmJhmjXE6naxbty5QpdAfi9vtDvSPOnz4MFarlWHDGv8ZDyd/v69evbrBXl1er5fs7Gx69eoVmIWrb9z+/fsxGo1N7mlls9nYv38/vXv3JjKyef1d20NRURGPPfYYISEhLF26NNjhBJXMdImg8P9A7upVDlOu/D3Hf/yh1vO60FDCk/vUeUxZ9kHcdaw5P5UpNpaQ7rGBx01JFOrirqigtOqaZdkHgZMzdNYG1rHXJzw5Gb25ak39KfcZUfV1adV1infuqHG9k0lc86/bFK2dJAohRGeVlJTEoUOHAoUd/LxeL926deOyyy6r87gePXrQo0cPACZOnAjUnWz5hYWF1UimgBrJVFPHGAwGzjvvvFqxVJeYmEhiYmK9sZxq69atgK+SY0MURaFPn7p/p586rrmtKsxmM8OHD2/WMe1JGiOfJEmX6FCys7NJS0tj1qxZLFy4sMbygc4o6eJLSbr40mCH0ajYsybU+XxRVVJUn5YmevVdryz7IK6q5M9VlXiGnJJcnioiuQ+6qo3Tjal+3lMV7dxBSGxsi+9JCCG6AoPBUG8z4c7Gn3B2xBkm0fFI0iU6nOLiYpYuXUp6enog+ZIiFB1Teycg/lmxtrpufbOLbXlNIYToTN5+++1A5UEhxElSvVB0KMnJyWRlZTF16lSsVivp6en06dOH66+//oytdOgvJSuJoxBCiM7CP7vjr+DnN27cOAYMGBCMkNrd3LlzueSSS4IdhjhDSNIlOpzk5GQyMjI4ePAgc+fOBSA9PZ3Ro0cHObKWkZLxQpxZ/Hs6qvfMEULUrSv/bktPT5dmw43w71Hbs2dPkCMJPlleKDqs5ORk0tPTWbRoEenp6bU26wohRFvwN1qtrKwMciRCdFwPPvggY8aMqVG5UAhRP0m6OiiXvRSauS/TZS9tm2CCLDk5uc4qh9nZ2TzyyCPMnTtXeiEJIYQQ7WjEiBGcddZZNcrBC9EQm80W+FCrK5J/KR2RoqWiNLfZh1WU5qI1hLdBQB3TqlWrSE9PJy0tjbS0tDN2z5fofDIyMgCYOnVqkCMRQoi24+9HKERD+vXrB/j6oHVlknR1QFHJMyjJ305B7kZsJbl43I56x3rcDmwluRTkbqQkfztRyRe3Y6TBtWDBAhYuXEhkZCQZGRmupPd6AAAgAElEQVSMHj2a66+/vtam3mCScrJCnHmio6OBk/1lhBB16+pJV1paGgkJCcEOQ5whZHlhBxQeN57EMX8m/9d0TuR826Rj9CExJI75M+ao+hsMdkaLFi1iwYIFLF26lEceeYT09HRWrVrFkiVLmDdvXrDDC8y+yZp3Ic4cknQJ0bht27YxadKkwOPk5ORAUQ2LxcJdd91VY+m/1Wrlo48+qvODUYvFwty5c2v05rRaraxYsQKr1RpYPVD9ewsXLmTWrFmB57KyskhLS6t3//fy5ctrvC/Izs7m7rvvBmr/jk5NTWXkyJH1xuN3alyibiEhIYBveWFXJklXBxUeN57wuPHBDuOMYLFYWLRoEfPmzWPRokWsWLGCVatWdYikSwghhOisIiIiKC317SfPzs6ukVANGzaMyZMnBx5v2rSpwd/LhYWFPPzwwzXGL1iwoN7xe/bsqfEm3m63o6pqveOdTic2mw2NRoOiKPz000+sWrUKIPDf6h5++OEa8bz//vsNxiPq17NnT3bs2EFubm6X/hBaki7RafirHS5YsKBLl7AVHUdJSUmwQxBCiDYxYsQI8vLyAo+3bdtW42feiBEjcLlcgcdDhw7lgQceqPd8M2bMqDV+8eLFlJSUMGXKlBpje/fuTVJSUoPx1MefmF188cWsXr2anJycQD/N6vdyajwzZswIxOOXlJTEiBEjGr2mECBJl+iE6voUZfbs2YHlCFLpULQ1/98xKe5yZvJX15LlhUI0XWPJR2RkJA8++GCTzxcZGckdd9xxumE16Nxzz+Xcc8/tMPF0Vv7lhV29DYcU0hBdwsGDB8nIyCAtLY3Zs2e3W7EN/5vvzMzMdrmeEOL09erVC5CkSwghWoM/2fInX12VJF2iS8jIyAhUOly1ahV9+vTh+uuvl4bLos2MHDkSkI3WQgghhJCkS3QR/mIb2dnZzJ07F4D09HT69OnToUrMi86jetUrIYQQQnRtknSJLsVisZCens7BgweZOnUqXq832CGJTspfzEWSeiGEEF3ZkSNHgJNLt7sqSbpEl5ScnExGRgZWq7VWpcPW3n81depUQJaZdTWSdJ25/PsO7HZ7kCMRQogzn39Pl79IUVclSZcQ1WRlZZGamkqfPn1YsWJFsMMRnYDsGzzz+D+N9X86K5pHVT04HOWUlR2nqOgQBQUHKCjYT2HhAYqLcykvP4HTWYGqeoIdqhBCtBtJuoSoxmKxkJSURHZ2NvPmzZPkS7SYlI0XXY3Xq+JwVFBefoKKikIcjgpU1YXXq+L1elFVFY/HicNRTkVFIeXlBTidNrze+hvaCiHOfLJqwEeSLiGqSU5OJjs7m+XLl9dKvurqWC+EEAJU1R1IppzOCjweF16vp9a+WV/y5cHtduJ0VlBRUSSzXkJ0cv5VAwMGDAhyJMElzZGFqMO8efOYN28e6enpgaqH8+bNq3OpmNVq5e677+auu+6qszFzamoqmZmZZGRk1NuYOXPPf8kp3ANAcvRAAJKiB9T4b0d0rDQXh6t2s8OWxmx32cgvPVzjOf/r0hoizdFYQqKBlsdotRUCYDFHNzjO/3dh69atLbqOEGcKr1fF6bRRUVGI6nGB2wmKAlo9KPV/tuv1qrjddioqPISGgsEQitLAeCGEOJNJ0iVEA6onX/WVAF+6dCnp6el8+OGHZGRk1Jl4NWbdnk8CX9eXZFRPEvyJWVNZKwux2gpqPFdSWRhIIMCXRESG1J9InDq+qeqLO7twd+Dr1kysmis+ohdGfQgmvZn4iF7YXTaOleYGvu9wVdZ47HfntCcaTLz8BTSSkpJaP2ghOhCn04bNZkX1uPDay1F2fglmC6RMBkPjzVA9HheVlSVoNDr0+q7dPFUI0XlJ0iVEE8ybN6/Wc6tWrWLx4sWBmYySkhJSU1NbnHgBTBn0W06U+qbhC8p8Mz4nynyPqycmbZGkWG3NT6oizTEYtMZaz/tjhubH3T28Z43HMeGJzYqpITZnKTZHKU6Pg5KqJLR6QrX7WNP3X5VUFjaYdPlnRaVfl+jMVNWN3V6GqroABQ9a3DYbjn15uL7NQ9FowQseBTwhJjwjBxE/qD86vb7GedxuJ5WVpWi1BjQabXBuRggh2pAkXUK0UFZWFt9//32N50pKSkhLS2Pt2rUtSry6hyfSPZBkTKjxvRNlJ5fd+ROzpgo1RmA2htd8zhCB2RgReGxzlFLhLK3/HKeMb6r64u4ecTK56t6KiVVzWW0ncHkc2BxlVDh89189Nr3WiMXcPfB43a73aySVovOx2WwAmEymIEfS8blcdjwep2/vlgIagwm3V8FVYsOZW4mCgur14sSLMzwUT4iRCGs5Wp0WFAVNqBnToH6g1+PxOHC7HRgMXbustBCic5KkS4gWWrBgAU8//XTgDZqf1Wo9rcSrPtUTk7ZIUszGliVVjWnruE9XIKEKb3ic6DoOH/Z9UNCzZ89GRoqaRTAUNFotYSF6FL0WF74iGiqgeCGsvBLNll+o8B+s0aCEmjH26YWi16OqHlwumyRdQohOSXasCtFC8+bNq5Vw+fkTLykXLoTozFwue60KhXVRqOMNh6qCwxE43utVcbmktLQQonOSpEuIFvIXSqiP1Wpl9uzZ9O/fH5B+TUKcKXJzffv8ZKarcR6PG2g86WoKr9d/PiGE6HxkeaEQLZSVlUVWVhYZGRlkZWUFkjCr1RoorpGdnc2aNWsCzwshOj7/DHZIiFTSa1zrJFyBszVh1kwIIc5EknQJcRpGjRpV776tjIwMMjIyGDduHCtWrGjnyIQQLVVZ6es9J0lXyykhJpRoX2VTRfWiVFaCw+WbzgoMwtfPq/pxpzwWQojOQpIuIdpIampqoIS86DxiwhM5UXaE7MLdHbpxtWg5WV7YdBqNrqqQRs0ZKs3gFAwX+iqwat0eHJu34/1pG4rLVf1g1LDQQOKlKL7ztYS94ASOgoI6v1d+KAfPqQWPfv0l8HVYUhI6cyihvZPQmc1EDhrcohiEEKIhknQJIYQQokUMhhAcjopaywKNRgMGSyQAqqpSMWY4FX164/WqgTGKomA0mVCqSvO7y8op3PQtOz5Z0343AJTs+rXO5/3Jl2XwkBrPu20VlOfktNr1Kw7l4K6jKJPObGbSS//XatcRQgSXJF1CdABGXQgOdyUujwN9Hc2GxZlHmiOfufbs8TXxlpmuxhkM5qpeXWqN5xVFQdH4anVpNBrCorth7hZZ63hFUVC0vnHu8goq9hxoURymyEhMkXX/WzNFRmI65d+hpXdS4GvrIV8CZa1KpPyP/clYfUlZW6srERPiTGQymbDb7dhsNszmrtsSQpIuITqA+Mhe5BTuwWo70SF7WYnm81erbM1ebaJ9yZ6uxun1IWi1BlTVfbL0u2+zFtV3Z2m1WrRabb3nUbxgiYqh1++uRtPOtTQsSVUJ2Lk1n7fm5OB22CnPz6/xvM5oIiwurtWuHxYXh+6URtwZT/wd8CVeui78JlV0Dj179mT//v0cPnyYAQO67rJ8SbqEEEII0SIajQ6TKRyPx4XH4wTAozOhaA3Un2LVpvN4CXGo7Z5wNcSfjMUMGNj+1+6dhPVQDhWHcmSPmRCdhPTpEkIIIUSLGQxmzGZLoAiGLelsHHFDm3y81uPFbFfRuztQxiWEaDVRUVHAySJFXZXMdAkhhBCixRRFg8HgWwJXWWklrFsMTenfpXh9M1xmuwejy4siOZcQnZI/6bJ18X2KknQJIYQQ4rRoNDqMxjAURYNWW4bb7URVVVS309d7q6qohuL1tefSqF5fwuXwzXBJwiWE6OxkeaEQQgghTpuiaDAawwgL605oaDRGYyjukjJUp68psuL1LSU0OVTCbR4iKjwYZIZLiE4vJSUFOFkZtquSpEuINialw9uWq3qzVSG6gLKyMlatWsU99/6ZnMOFPPXUU4FqmR2Bf9YrPDyWgg9Ws+ehJzBl7Seu2EVMqZsIm285YUcqmiGEEG1Nki4h2lhnLx1eaaskP69mSeWHFjzMC8+82KwxzXXo4CFuueZWJqRMZNroaSz+n8V43J4Wn0+Ijuro0aMA3Dn/LkaNHsvug4Us++cruFQjqz7+nG079/Pv/3zCrNlXMH/+XXzxxRdBjlgIIU7yt98oLCwMciTBJXu6hBCn5Z9Pv8DH737Etzu/DTxnLbYSFh7arDHNUXC8gCsvvJLKSjvTL5vOsSPHeOPVN0lMSuQPN/6h5TfTlGuXHQYgObr9y0iLriEnJ4cNGzZQUFjMZ599ztaszTz86HPoDJHccffDVNrdPPLE/wbGjxk3EYChw8fy0w/fERbVj+iYGKZN+w3/eXclx44dIz4+Pli3I1rAXlICgDEmJsiRCHH6/I3mJekSQnQpe3ftJdISSWx8bL1jVFVFo6l7IlxVVVSPik6vY88veziel09RYTHff/s9fVL6EtcjlmWvP49G6zu+KWPqk593nLLSUvoN6Edudi7d47oTYg7BFGJi1lWzmHPztST27sneXXuZlTqbkuKSlr8wQgTJvn37SElJ4YYbbmLDxg28/Nq7vPHWuwwdPoar5tzCI08MR6vVcPbkczAa9ADo9Vo0ysn2w6rXS/fosYwdMwq3R2Xl+1+x/rsMPvnyR66fcymDBg3mlZdfxO12M2LEiGDdqmgie4lvWboppnuQIxFCtBZJuoToQrxeL9fNnEv3uO447HYqK+1c8YfLmf+3+QAc2HuAJx96ks0/bCaym4Urr/0dt95zK3+//3FcTidGk4kvP/kSgCX/9xxzLrs2cO4bf3cTcT1i+fz7zzlv7Pncdu+fGDluJL87/8oGx1x9/dVU2ip54sEnyPxqHUajkXv/516mX3YhTzz4ONu37KBn755s/mEzlm4W3v/6PeIT4vnbY38DwF5p55lHnwVg4rkT2+ulFKLFdu3axYYNG5h9+VWMHzcaj9vDGytXE5vQj4WPXUl4eCRPPfsCRqMeva5pLYY1ioLRoMP/az0irDf9+l6Hy+3hm3VbyMxcy9//sYSff1jPwsee5MeNmVw84yLOP//8NrxTUVBcTEy3bsEOQwjRAcieLiG6EEVRqKioYP+e/cQlxBMbH8srS1/lp42bOH7sONfNnMv2rB384cY/EBYexpv/9xZer5e9v+7lvbff59tvvmX8pHGcyD8BQPoHy0m9IBWAh//xMEtfW0pJcQlFBUUUHC9gyPAhjY4BeOxvf+eDf39IysAUFEXh4bsfxuVy4XK5yc/LZ9eOXVz3x2uxFlv54bsfAvfz04afmJk6i++++Y47/3IHYyaMaedXVIjGbd++nZUrV/L7q6/huutv5tmlL/HRJ2t4ZsmLPPH0y7z3cQZRljBuuulmJk4YR5QllLBQU5MTrobodVrCQk1cPOMiHn30Sd776Cv69h+B22vi4YWPsm3XYa76/dW89dZbrXCnHc++Q4dQVTXw+Idt20i74Uayjxxt1pjmOlFUxIW33Mrgy2bilGI/oosrKioCTu7t6qpkpkuILiY0NJTBwwfz+nuvUVZSxsSBk9i2eRs/rv+R4qJinn/9ec6b8Rs2ff8zJpMRRVFQvSpRMVG8/d+3CA0PJbZHHP0H9ycsPIysTVlkfJnB2VMn0btPb7L3ZwNgDvU1Sx1/9vgGx3jcHtZ+sZaLZk7nmVeeYf3a9fzx6lv4af1PVNoqAXjg8fs5/+LzeePVNzmU7eto/8n7n/DAXQ+SkJjAv979PyZNmRSEV1N0ZpWVlS16k7B582Y2bNjAlb+/jjGjhhIWHsmrKz5k4NCjDBs+hsTEXphMBkLNxlZJrJpKq9UQFmoiLNTE/LvupsJ2G4dz8xgwZBxv/fs9bE49b7/xCpddejEXXHABw4cPb7fY2oK1rIyRv72C5/5yH7dc+TsA7A4nBcXFgUSoKWOay+3xMO3Gm9ibcwig3qXaQnQV/qSrV69eQY4kuCTpEqKLCTGb0FbtpdLqtCiKQuGJQuyVlWg0Gs6Zdg4Alm6RgQQHICExgagYX1f5+xb+OfC8qepNqb3SDoDT6XujojcYmjRm3+59lJaUMmTk0Kr4QgKxVZRXEBsfy8zfzaSsrAzwVUJUPSp/f+BxUgamkP7BciIiI1rt9WktycnJAB2qlLdomgEDBrBnzx6OHDkS6C/TFHl5efy4ZRcP/GUBQ0eMYeRZ01n2yjt07x6HRqNw2cwrCA9rnRms06XXabFEmLFE9CM5uTezZl+J3eFk1hV2usfFc/nlV6LRKGzcuJ5u7bQ8zuV2s2FLFlPHj2twXEN7Th1OJ0aDgaKSErbt2YNHVdmQlcX44cMYMWAAU8ePI+v999BqNE0a05DvNm9m/LBhOFwuCq1W+lQVC9BptZw3cSLh5lC27t6NThv8/99CiOCTpEuILkav15N35BgbMjfy1Wdr8Hq9nHfRbygtKWXlindZ9c4qJpw7gYIThRw7egyHw9Hg+XRVbyD9/bL8j6uXb29oTO8+vTGZjPz3Px/Tf1AK6S+tINISybiJ46i0VRKfEI9GqyE8IhytVsOJY8fZ9csuykrKiBgawbOPPYe90k6kJZK5t15Hz149W/cFayF/0uXv0ya6hvm33cBLyz9Eq9HgcDqJiorBHGIkMjwk8GFHRxNi0hNi0lNR4aX/wBS279jBJVdcTW7OgXZLuABefvdd7nvmOVLHj2fzL78wIDmJ1x57lIHJyXhUlefffIsX31nJ8aIiJo0aybL7/4ZBr2fWnXcxb9ZMvli/ge82b+axO+9g/ZYtfJK5DoCVq79g5eovePGhBymvrOTZ9BUc+OJz/rjokUbHaDUavtywgYX/fJF9uYdIO+ssXl20kNxjxzjvpj9yWVoqX67fgN3p5J651/HEXb79sUv++hduXvQIuw4ebLfXTwjRsXXM3wBCiLajKBzcd5Cbr7qZlSveZXLaZEafNZpJUycxacokHn/gcS6ZfAlHDh2h0lbJujXrMBgMGIyGek7n+zES3T0aAEtUN7RaDeGR4U0aE2IOYdEzj1BwvIBbr/kTP67/kbvuvwutTktM7MlyyRqNhn4D+mEtthIdE01cjzi2btrKN6u/YeO6jbz/9nt8/O7HbfKSCdFUo8f4Zmk8qorT5USrhVCzHtXrwVNt31BHUFFRTt6xw+zZ+wubt3zP9h0/U1ZynOLi45SXl5JzYB/Lli1rt3jKq5YTb929m4vOPYctv+7izieeBODRl17mgeeXkdyzJ7f9/ioyf9rE19//wKGjeezOzuaB55fRo3t34mNiWLNxIy//z8O8/tijAEwZN5aVzz7N5Recz66DB8mvKlvdlDEHDh9m9vwFHDxyhLSzzuK/GZm8+p/3cLndAHy8NoPxw4dxzpgxvL/mq1r3pNfJZ9tC7Nu3D5DlhfLTQIiuxutl8PDB3P7n24iJjWHoyKEoioLRaORf7/4fJ/JPkH0gh9HjRrFz205SBqbQd0Dfek932e8uJWVQP+ITfH2AoqK7kbk9k25R3Zo85tIrLmH6zAvZtHETSX2TSEhMAOCpFxfj8ZycMXv5/71MaUkpcT3i+GbL163+0ghxuhJ7JdV4bIkMxYsXj+rFo6q4AI2iQaPRoNEoaJT2++yzrLyU0tISyspKKC8vxe2ue89Sr54JWK2t035BZ/bt7XQ77I2OjQj19e17b8mzTB49mu5RUaSv+gi7w8GSN95keP/+fPWvV1mzcSNL33yL5J4JqF5fIvvgH2/moVv+yBfrN2AtKyOmWzeuuXgGtz76GD1jY5mZlgZAhc2GyWBAq9E0aczHazPwqCqZK5YzMDmZKXOv59N133L2qJEA9E1M5POXX+KBpc+zISsLt8dTYzmhUq2svxBdnRTSEEK0Kf+eHv9ys2DzeiEiMoK0C9Pq/H73uO50j/P1hhk51vfGot+AfvWezxxqZtzEmnswqidcTR2j1+trFcPwx+EX1yOOuB5x9cYiRLD996P3mTFrDgAGgy6wlLY61evrdYcHFBRf8qXRNrqHqLlKSoopLSuhrKyU8vJSVNXT+EFATLRv7+a4Secyf/7804ohtHcShZt/pjw/n5gBDTcUN5tMAGg1vtfMoNdjs9vJzc/H6XIx/ZzJAERFRgJQUVlJiNHoi3Wob0/ohZPPrnVOW+XJhM/hdGE0GJo8ZkNWFmFmM/179/bdT0gITpeLsgobAAuunYNOq8Xt8aCqKpV2B+FVRYQANBpJuoQQPrK8UIg25t/T01GSLr1Bj7HqjYoQorboaN8y2CNHjjT72L/cvzDwdWiIqdHxvlkwFZfbhd3pwOl2+d7Ae5u3FNGjeiguLiTn0AF27szihx+/5ddd2zhyJIfS0uImJ1x+FkskmzZ+267LCw16X+Pnb378kQ+++pp3V3/B1HHj6N+7N6MHDeKrjd+zOzubrbt2A7DvUG5DpwNAq9XirDaj50+QmjpmeP/+lNtsPLviDdJXfUTmpk3MnJZGhd23FDK5p29WPtpiASDvhK+dxsdrM9i5dx+Vdgevf/Bhi14PIToLf/VC/8/WrkpmuoToYp56cTGhYaHBDkOIDsv/xqCysrLZxz7/7D9Y+so7Lb62qqqoVJ8F06DVaGpV63O5XZSWWikrLaGsvJSKirIWX7MupiB8MONfivfoSy8Dvlmle+deB8Bd187hb0uWMvK3V6AoCt0iInjvyy+ZMtbXm89o0Nd5To1GQ2xUVOBxXEw0keHhTR6z4Npr+X7bNv7nny/g9XoZMWAA18y4qFaBjKEpvtUARSUlOF0u7nv2OXKO+vp8PfLSy1xzycWYDHXvixWis/MnXTExMY2M7Nwk6RKiixlaVZpdCNH6HM6T1T43bdpAQkICKf36Y2jBG27fLJgHT9UslUaj4XDuQcrKSqmsrGi1mOsSYjLRPa4HvauW1bUHr9cLwOJ77mZAUhJjhwwhtmqp4+8vms6VF17A99u2kRgXhyUigt0Hsxk9eBAfPr+Uc8eOrfOcq5YtpXd8fODx4nvu5uFbb2nymPBQM5+++AL7Dh0iv7CQcUOHYjQYmGyxsPH/vcXIAQMAmDVtGp+99CLjhg1Fp9Wy+xMp6iOEqEmSLiGEEKIV9OjRg0++WEfuUV/lu2N5R/nxx41oNBqSk/uQkjKAAf0HEhHRsr5yqqpit9vbPOHyO5Gfx6FDh9rlWnAy6Ro3dAiTR4+u9X2NRsPZo0YFHo8f5vsA6aJzz6n3nGOHDKnxWKfVYjllpqspY1J69yalWgKqKAqjBw2qMWbahLPqjUMIISTpEkIIIVpBXl4el1w4hZeW+/bwXHPNdRQVF7J372727NnNmjWr+fLLz4mLi2dA/4H07z+A+PgeQY66bhZLJDp9+y6H01ft6TIaZM+pEKLzkaRLCCGEaAMajUJMdAwx0TFMmjgZW6WNvXv2sGfvbr7/YQPffpdJeHgEA/oPoH//gSQn96m1dyuY3C5nu17vsrRU3lvyHGMGD2p8sBBCnGEk6RJCCCFawanLC09lDjEzcuQoRo4chcfj4cCB/ezZu5tdu3/l582bMBgM9OubQv+qWbCuVmU0xGjkkqlTgh2GEEK0CUm6hBBCiFZw6vLChmi1Wvr3H0D//r5CDIcP57J37x727d/Lr7t+QVEUknonk5LSnzFjxqHTtf+v6/6DhzF9+vR2v64QonPp2bMn+/fvJzc3lwFVxWe6Ikm6hBBCiFZWV1PkhiQm9iIxsRdpab+hpKSEXbt/Ze/e3Xz9zRr69x9It27dGj9JK9v76w5Wr17dpd8kCSFOX0hICAA2my3IkQSXJF1CCCFEK6i+vFCnbV7SVV1kZCQTzprIhLMmYrfbgzLLJYQQonXJT3IhhGgDqampAGRmZgY5EtFemrO8sKlMJlOrnau5xk06l/nz5zfrGFX14HJV4nTacLnshEwcxsBJw1BUL4UaLXqXF6PLi96jolHbKHAhhOiAOk6ZJCGE6ESysrIASEpKCnIkIhicLlewQzhtmzZ+y7Jly5o01utVcTgqKC8/QUVFIQ5HBarqQtFqUDQa0GlxaxTsRg1lZg2lZi0OvYJXaeObEEKIDkJmuoRoJ1artd7vOVyVAOi1La9WdqLsCAA2Ryk2Z2m94yocpdgcZQ2eS68zYjHH1Pm9SHP3GnF2D+/Zgmg7BpfHgdVWANR83U69R73WgMXcvVnn9v//Tk5ObqVoxZng708+B4CqeoMcSftRVTdOpw2bzYqqugJNjgFQTmZV3qo/qlbBrbiweQqw7d6OLasQtdLuG65TMQ0oxVXhwlXmwF3uxV3mxesEZ9HJ85oiLZgskYTFxaEzmgiLi0cJqcTULQyt4WR/MYMuFo3m5L9lZ2UJxYVZqMrJBtMKenSqb8+cztsda05Ovffqdtgpz8+v8Vx5fj5uu71Zr5lfWFwcBoseJcSDVm/AXLV3L6S3Bk951/k7JLoGs9kc7BCCSpIuIdpYamoqmZmZZGVlMWvWrDrHHCvNBWDdrg/qfHNvNoYTaowAwOl2UFKVKFhtJ3B5HG0S99Hi/W1yXr/u4Yk1HkeaYzDoGk46m5IwVlc9ebTaCnC5fa/VibLDzYxWiKZ56P57WnV5YTA1ZXmh16vidNqoqChE9bjA7fQlWlo9KA0sptEY0IT0IHxMN5JTDZj1KsW7c3C6jlNcshZfm+Ta++IKv3VTsVfFXmLFXmLFVnaI2Bl6SqvyrJLymuOduWE4D4UDYIqJxNRDgzvil9rxaE+OL/jZhtvmS6J0YQpR51aLIwwM0Scflv2i4rafXCdpiFKInaFHU09faX/8AZFWwiafTK5U8gDonihvz0TnsW/fPgB69eoV5EiCS/5VC9EBJEUPIKdwDy6Po+6EoAl5RlK0r8KYJSSaSHN0veMsIdH1zmL52V22QCJ4qvzSXOxVM3MAOYV7Gg+uDqfeZ1slQg0lj0ZdCPGRvl8C1V+3U+/RaiukpLKwxnGRIfW/xnByeaHMdHUtqdPOD3ytql40mjN3/Zx/eWFDiXNoAnkAACAASURBVFdghsvjwmsvR9n5JZgtkDIZDCGNXEHBqwmhzO5Fq4GoQUlAEpaKJMoK9wLgspfgcpSguh3YK44z/IbLCI8fh9ftQKv1Yq84Ts72f6O6HeiNEehNkYGza3UmooaPxRzZO/Ccx+2g6GjNSpCq24694jgAScMnM/Lqk+OtR3eRd+Djeu8gafJ5RCWMCzyuHk9dht9wGZFxwwKPXfYSju79rNY41e3AUaav97pCiDOPJF1CtJOGlhdeN+le35hT3twHjrUVYK32fHL0QAAiQ6KxNJBgnY6B8aPa5Lx+pyZrx0pzsbsaLifblISxuuqvW/Vj4yISMenbdpmDLC/smjweT+Bru8OJOaTzNjhWVTd2exmq6gIUPGhx22w49uXh+jYPRaMFL3gU8ISY8IwcRPyg/uj0NZMJl0eh3K5gCAWNAqbQWEyhsfVf2GsPzEyZQmMZOPGuJses1Rnp3ntyk8dbEgZhioxCdddePqg3RtZI8loSj94USdLwq+v8nk07uMnnEUJ0fJJ0CdHGUlNTeeSRRwIzHw2xmOtOovyzWJ3JqffUFvfYGV830bF9m/kN18y7EwCbzXHGJl1ut5tR4yZy44031jvG5bLj8Th9e7gU0BhMuL0KrhIbztxKFBRUrxcnXpzhoXhCjERYy9HqtKAoaELNmAb1Q9XrcXoUHG6FEH3H28fUYAIohBBNJEmXEEK0AVle2DU9vnhJ4OuKSjtRavgZucSwvLyCrE3f89prr9W7vNDprEBV/TN7ChqtlrAQPYpeiwtf8qQCihfCyivRbPmFQPkKjQYl1IyxTy8UvR7VC3ZXx0y6hBCiNUjJeCGEaAOyvLBrevCvdwe+VlUv1lMrO3QiLpe9ZqXCeijU8WZDVcHhCByven0zXUII0VlJ0iVEG5MmuUJ0XSVlNux2Z7DDaJEISzfCwsLq/b7H4wZaaWbKC25Vki6/g1vSyd+6ONhhCCFakSRdQgjRBrZu3QrITFdX0qNHDz75Yl2t5/MLrDid7iBEdHpKrcWUlzc0U9d6SwG9gFc6JQfYK45jt+4KdhhCiFYkSZcQQrQBWV7Y9eTl5XHJhVNqPa+qXk4UleB2e+o4qmMqK68gNDwCvb75ZcuVEBNKtMX3J8qCYjbVaJLsG0SN53wPZT+XEKLzkkIaQgghRBtzOt0cOVZIj9goDIb2+9W7c8d2Mr75im1ZWXg8KnqDnsmTz2XOvOsbPM7tcVNRVorL5ap3jEajqyqkUTNZ0gxOwXDhBAC0bg+Ozdvx/rQNpfq5NBrUsNCTiZcCOo0kXUJ0ZjZbw21hOjtJuoRoY/4qdiNHjgxyJKI9TZ06lczMTDIyMgL7+sSZobLS1xg7JKSx5r41+ZcX5h6t3WsPfDNeeceLiO4WTlho887dEn+6+UbcLifojCiRCSiKF7etlG+37CBj7RwumH4xV15dd48oq7Wk0fMbDCE4HBW1imkYjQYMFl//KlVVqRgznIo+vfF61cAYRVEwmkwoJhNQ1Z9LegEHaHRGVLcD1W1Do2vbnoJCtLWUlBT2799Pbm4uo0a1bQ/QjkySLiHamH+ZmcViCXIkQoimyM3NBaBnz57NOs6/vPCl5R/WO0ZVvZwoLKXC5iC6Wzg6nfa0Yq3PfX++B5fbTbdZf6bflFnEhRsw6jTYnB4OlzjY/eYjfLn6Uzb99ANPPbe0xrEFhUUADBs1jqvrScoADAZzVa8utcbziqKgaHy7FzQaDWHR3TB3i6x1vKIoKFrfOK3ixaRTa43pDHIP5xMdHYk5xNTkY0yhsdhKcnGWH8JkGdSG0Qkh2ovs6RKijWVnZwOSdAkhTrJVOjhyrJDSstZfbnP/ffdQXHCCQU9+w/xbb2bO2ASizHo0ikKYUceg2FCm3/UPQgafQ3FxEcv/9WqN43OPHAVgR9Ym/v3vf9d7Hb0+BK3WgFJtb5YXBS81929ptVr0en2tPzqdDkVR0Cig13kx6NpmeWGFrZLDR47XeO6G2x5l0ZOvNmtMc23a8gt9hl1G7yEXE9lzKrcueKJWgipEVxAVFQVAYWHdqwC6Ckm6hGhj/qSrK0+pC9EV1Fe9sD6q6qWwuIzcowWtVlY+/9gxTpwowHz5QobFh3Pd2J5cOiSWsYk1Z5qMOg1jb38ar6INVNoE3yxXU5YWgm9Pl8kUjkZzcl2gR2dC1RqaFbNe6yXMoNJWPaQXPv4KY879Q43nCousWK1lzRrTHEeOHuc3l/wJh9PJk4vuYPSIgbzy+gf889WVTTreHNkbnSkKQ1jvFl1fiI5Eki4fSbqEEEKIalq6p6u+6oWNcbs95B0vJi+/+LSTr80//4RijiRxXBoAz3+bzRs/H+G7g8W1xsaHGwm9ZAHlpb4kq7y8gl937w18f9ykc5k/f36D1zMYzJjNFjQa324FW9LZOOKGNjlencZLuEnFWG2Wa8cv+zmad6LB41S1/hkjVVVxuXwl+rft2MuRvOOcKCjm64wfOXLUN5v1wdvPsHTxvU0eU58jR4+z89cDeL1e9h3IpcLm+7vzwv/9h9KyCv79+hP87Z55/LB2Bf36JPL5lxsaeUV8uveeTO+zHpP9XEJ0IpJ0CdHGMjIyAKSYQhfjX07q39Mnzhwt3dMFYDI1fd/OqewO52knXx99+AFetwN/bYujpQ52Hqu715bH60Uz9Hy0oRa++eprtmzbgdt9sp/Ypo3fsmzZsgavpygaDAYzoaFR6HQGwrrFYAoLbzROjQIGnReL2YNJpwaKGHq9XqZMv5nzZ95O3+GXEZ9yAQ899mLguF93H+SCmbcT1uNceg2ewWOL/wXAHX9+ipvv/Dvz73uaxEEzSBp6Cet/2MrIs6/mnfe+BOC8y25jwrR52O0OEgZM54VX32Xz1l2NjgHf8sMbb3+U+JQLSB56Ke9+sAaAO+97mum/vYMp02+m/6jZJA25hNzD+az/fivdLBGce/aoqtdJYfzYIXy7YQsOR9P+33oUSbhE5+D/WXr48OEgRxJcknQJITo9q9VKZmZmYKlne/AvJ/VXrxRdw/y7/3ra5zid5MtoMKLoTBwttVNkq7/cO8D+Ahuq14unwsq2bVtrJFzNodHoMBrDMJujCAkJQ683oijaGnu9wNeLS6P4lhOG6FW6hXgI0XvRVnsnoigKZeUV/LLrAIk940jo0Z3Hn36dzO82czTvBFOm38xPm3/hzluuIiI8jOdf+jder5ftO/fxrxWr+HzNBqaeM4a8YwXghbWfvsKlF/lmH1987m+8/9ZTFBWXcvxEEceOFzJm5KBGxwDcfs9iXn/zY4YO7oeiKNx4+2M4nS5cLjeHjxwna9seFtx2DYVFJXyz7icKi6wMHpiMRnPy5vok9cRWaaeouLRFr7MQZyr/qgEpGS+EaFM5OTkArFixghUrVtR442+1Wut9U159ZsxisZzWnrDs7OwGE46G4qhu1KhRgVgsFksgxqlTpzZ6rNVqrbF35FRNOUd2dnbg9Tz1ef/9ZWVlBWaX/LOMDUlOTq6zgbH/HlsqMzOzxceKM9dTTz7SYPXC5vAlX050Oi2R4eYmlZmPiIyg4lg+AJuPlDA0LpweEcYaY9yql/2FNg4U2nBv+wKN3sjIcRNqnaspywv9FEWD0RiGXm/C5bLjdNpwueyoqht/eQ2txotJ50u4DLqayVZ14WGhjB45kK//+xLWkjK69Urjh007WPvtJgoKrXzw9tPMvjSNdeu3EGIyoigKqqoS2z2K9WteIyI8jJ49Yhk+NIWI8FA2/riN/36+jvOnTSClby/27DsEQFiobyYp9dyxDY5xuz18/Nk6rrr8At5Z/gRffL2R6bPvJOO7nwPLCZc9/Wcun/kblr74/9h/8DDDh6aw8YftNe6roNCKVqshtntUk15TIUTnIkmXEG2suNi3lyI9Pb1Zx52aMKxatarVYmopf2JWVzJTPTFsahLXXiIjIxk1alSdSVt9CWlTEjYhTnXpzMtb/Zxut4fC4jIKi8s4kH2I8jIrZeUVuD21Z6Yu+e1V/OvlF3FtXAmTriLraCm7T2iJNOkwVJWML7I5UauWH7qyPsPrqXtGzL+8sKmJF5yc9TIaw2o8b1Jz0Hib9im32WxCWzVDpNP5Zszyjxdiq7Sj0WiYft7ZAERHRbL/4MnlSkm94gMJzTOPL6hxPgCbzQ4QWN5nNOqbNGbnr/sptpYydpSvdHuo2Zf86rRayspsJPToznVXX0JJqW8ZZ0VFJeNGD+G9VV9z/EQRsd2j8Hq9rF23icED+6CtL9usZs/3z2O0DKH70Ka/9kJ0ZFFRURQVFVFYWEh0dHSwwwkKSbqEaGOrVq0KvIE/dValoRms6m/6G5upakx9szlNiaM6/yySP7aMjIzADFb15+viT3zq05SZoaSkpDrvo/r9VZ+haso+uuozY015vrkWLFjQ+CDRaRzKadslrCcKijh2rO59EVt//pFfd25Hq9Hg3ZUJk64CoNLlodLlqTXec2AT6pFdhIRFsun77xg38Zw2idltL6DwxGaiYvug1RkbHW/Q68g9ks+atT/wwcff4PV6mX1pGsXWUl5+7X3S3/4v06aOJ/94EbmH8xtdgqnT+nqhOV2+5NLfG83t9jRpTEq/XoSEGHnznc8YNiSFZ//3LaK6RTBl8hgqbJX06hmHVqvBEhmGVqvh6LETzLlqBl6vlyuu/Su33PBbPvtiPfsO5LLs6fsavX9bySE8VY2Rhegsiop8/f+6asIFknQJ0eZSU1NbVESjIxbe8CdNdcV26uxWR4y/LvUlgmdK/KJj2Zr1c7tf8/ixo3y/cSMuh4Pzrn2YPiOn8O37/8uvy67COOdZNFGJtY5xbfoY51cvMuuel3BVlvPVikdxaMzk7cniijk3ADBo2Ehmzpx52vGVHv6SsiNrMBlnEx7dv9HxiqKwa082F8y8HYALfzOJyRNH4nC4OC/tLO7481Ooqkp0VCQVtko+/eI7jMb6y9T791XFdfe92YuJtlQlSeFNGhNqDuHVZQ9yz/1LmHH5fDQaDS88+1d0Oi3xcdGB2TGNRsOQQX0pLCxh9MiB/OufDzP/vqeZc9PDaDQabv/jldx20+9a8AoKIToDSbqEEK2i+h4vIbqq/31pebtf85vVn6I1mJj/yk8AGPUabvrL0+zd9BUvPXozsb/9G4W/bkTbZyxq3m68e9aTctZF9LvlKVJG+f7NDp50CW8tupIQS1zgvLt2bOWjjz5q1vLCurgqfPujmjLLBb4KhqNHDmTR/bcQHxfNuNGDURQFk8nAmo9eJO9YAXv2HeLsCSP4OetXhg7ux+CB9c/kX3v1DIYO7kuvRN+9dY/pxrF9XxITbWnymDlXzeDK2eezbv0W+qf0IqlXDwDe/tffa8yYffbeMqwlvt5e8/5wKdf+/mJ27ckmqXd8YA+ZEKJrkqRLCCGEaCV3/un6Viuk0VSDz5nJxMtuBaBfnJmYCN+sT+KFlzBw8Dp+2fI9X/9STKKugHKzm9F/Xkpkn/G1zjNn0bs8f/NYPvrP/2Pm765p13uozuuFbpYILptRd8+zHvEx9IiPAWDi+OEADBnUt97zhYWamTJ5TI3nqidcTR1jMOg5L+2sWrFUl9gzlsSesYHHWq2GoYPrj00I0XVI0iWEEEKcwfb+uJpBEy+hf7++gYTLL6F3PxJ69+O8mX9o0rmu/euz7F73PgDGZjaHbi0Ggw5TA8sFOztjqG+2TXVXBjkSIURrkj5dQgghRCvo0aMHn3yxrt2vaw4NJfPzN6lU1Rafw+VR+fXQIdIfv4Pkfr59V47K4Lzpf/u1v7PkH/cG5dodgX8ZprP8UJAjEUK0JpnpEkIIIVpBXl4el1w4pd2XF8bH92D/oR1szLOiD9EQadARptdi0mnQntKg2M/j9WJ3q5S7PJS73FS4Pez87nMSkk4uhYuK6U5sbGydx7elcaOHtPs1OxpTaCx6y8hghyGEaEWSdAkhhBBnsKS+Kfy6cxtWmxu7x4O90kN+tUkqraJgquoNVeGuXTreL3fHjzhtFYHHRQUnOH78+GnHp9FJAYnm6jN6Hjbt4GCHIYRoRbK8UAghhGgFwVpeGN09lkHnXsqRrLp73Xm8XircngYTLoDsXVtJSOzV6vF163cNsX2nY47s3ernFkKIM4UkXUIIIUQr8C8vDIbcLZmU/ZLJ8bKGGwU3JDqxH336Dww8HjthMrfddttpx6YzxdCt58T/3969h0VZJv4ffzMoclBARBpkYMDzIQXPWSueUNGfllab++tLaofVttTKPbRXh83a3L12ra28fh1/HVzLcmvTis3ya6jZ16w0QUotCgM5iCIwIzAcBOb7BzuzM3IQhBGUz+u69mrnmfu5n/t55nGu+XAfnjbXIyKXJj0YuZ5Cl4iIyCUuzGikMucwloqaC9r/0w/f5YfUffj7Bzi3ff3lXp577rn2aqKIdFEKXfU0p0tERKQdBAUF8c/3/5vC4vLzF25n/fqZyP5pD5aKsy0qX15VS2FZNafKqrHYaji861/ETfiZh1vpOWcrrZytOtPoe/5BDYdM2qw5TdbVWPnK8lPU1VQ1W6Y9ZX+zmZpaCB/7qEePI3IxOEKXXwc9hqKzUOgSERFpB1arlRuvm9Xo6oU7/vs9evUKwhhuIjw8kh49fNv12NEDB7P30xRys39igjmu0TLlVbXkWavIKqpoEM6q8r+j1CscGOrcNm7SZFatWtXmttVUnib3x3ew15TiGxDmXBIdwNDNl6CwK9221dZUYT31LXU1ldTWVFFZXr+YR11NJWerrIQPmkuvPoOc5a0nvyX/h21NHj+sf6Lb8EbryTQKMt5rt/KmYQvd2lNZfoqTx3Y6X3f3DcSnR1Cz51uSf4BylyBos2q5eLl8OEJXZKRn/1jR2Sl0iYiItBOjMbzR7UOHjuL48WN8vf9/qK6upnfvUMLDTVxhjCDsinAMBu82HzuwzxWcPvIF5RNHEtDjP/VlFVXwU1EFhWVNz/eqKS3B3N+9p+vAvs9Yv359m4NXTeVpyosOA42HiZqaOkLNU5yvS8/kcfJYSpP1VdSF4O2ysl+tvxe+wZlNlvfuPYlKQ5TL6wD8Q7Opq7E1KGvo5t9oed/go27lKi3f/7u8H1UGk1t7ym2F7udpdT/G2Ro7IeZE52vLqc84fXxvI23p2r0Ccvmo+Pcz//z9u/ZKpgpdIiIi7eTahT9vdHtkVH8io/pjt9s5XVhAXt5x8vKyOXIkDW9vb/qGhRMebsIYbiI4+MLmPfh29+ZM+g4Ky5YQ0MMPi62G1NwzzYYtgPLMA3h39yHM2O+Cjns+Tz77Lp/8azcAQ/sH0yuge317fX2ZOTOB8L5TnSHHarXyh8feYbCxDIAfj+WSdqQAgDNl1STMTWLdtHjsdjt2ux2r1cryO9dgNpsJCgpi8uTJAM7/Nqabbyh9R7Q8SO7bfxS4xn2jof715GsaHifzVDAVhgUY7FVkHjsGNRZ6+tb3LI4fPwG/8BmcNYQCkJ2dzTv/OIIp5ArKq7q7H8KnN7de06B6kUtOXl4eoJ4uhS4REREXffr0oaioiOLiYkJCQlq177PPPMHLm6Y1+b6Xlxd9w8LpGxZO3OiJ2Gxl5OVmk5eXTfqh/aQe/ILEuTfSu3frg5e5/wC+yzlNxikblooaMk61bG5Z2eHd+Pj4NNjeXsMLrVYrX6Wfwmw2czK1iuzsDOd7hWdHkHBj/dA8u91Ofn4+L7/6RqP1BAUFMWPGDHx9/zM088svvyQ5ObnJ8i+++CLz5893bktPTycxMRGr1droPn/9619ZuXKl83VycjI33XRTk+e2bt06VqxY4Xz9+uuvs2zZsibLP/xwXx55JML5+ujRozzy6J+bLD92YgKjRo1q8n2RS0FlZSWgOV0KXSIiIi7aErqCgoKJiQzj1/fezcjRE5kyPbHZ8v7+PRk0eASDBo+gtraGgoI8/Hwv7IeJKSqa/Z9/hqXibIsX1ADw7uFHvwhTg+3bk7ewPjq8zcErPT0dgA0bNjB16tRmy44dO5bU1FQsFgsAcXFxBAcHN1l+2rRppKam8t579XOudu/ejcVi4dChQ1itVioqKtyGNFVWVjYZuIKCghg0aJBbqBs/fjxLliwhKyur0X0SEhLcys+cOZPrrruu0fYHBwezdOlSvL3/M/Rz+vTpvPbaaw3qt1gsZGZmKnDJZUE9XfUUukRERNpBeHg4R4/Wz136xU0L+deH21j2y9tY8l+LGDl6ArP/z/X4+PRocn9v725ERJgv+Pj+AT3x7tYd68FtBI2Z2+L9Sr7cinHECL4//A3FpwspOJHLgw8/StWZq0lMbD40ekJcXOMLgTRXvqX7TJ06Fbvd3uK6o6Oj2bBhQ6vKOwJgSziCWGNstoZzzkQuNY75XKLQJSIi0u4WL17M4sWLqaur48EHfseh9G/Y+tZLHDz4NXPm/5wwYwTDr2xduGiJnr0CKft+b4tD11nLCXx8fak9W8W4SRO58cYbiYmJwWg0Ar9qlzYlJSWRnp7ebI+ViFyeHL1cgwcP7uCWdDyFLhEREQ8xGAzMmTOHOXPmALB//37Gjx/PVZOuJi83l41vf8zOlO2MGTepXZaRD7vCSFb+dy0ufyZ1O929DXy9f3+bj92UpKQk7rjjDgwGg8eOISLS2ekbUEREpBGeGBYzfvx4AL7Y9zmffbaHq+JiSPtyF7f937lU2axs/3ALhadOXHD9UTH96TdmZovLlx87wMgRwy/4eOIZFoulyblnInJpUugSERFx4RgG4xgW4ynR0dH4+fmRnPwBOTnHsVcVUVaSD2fP8PDvlvP2m6/wY8aR89ZTkJ/Ht2lf0zc0jL27PiF791tUZB1qURuGTZrF9OnT23oq0s5Gjx7NpEmTOroZItKONLxQRESkg/Xs2ZPrr7+e66+/HoCYqHA+/vhjfr5wLpOvHs/ocVdz6/L7sJWXkZP9E0WFJ7EUFXHnins59NVepk2dwto//I777rqNmYlzOXV4F37Rsec97sHNT/DGkfMHO7m4mlotUUQuXQpdIiIinUx8fDzx8fEAJCd/wPbt2/HzKuP//791TLxqEr+5dxVGo5GrrrqK1SuXO/cLDQ1lQHQUOWnp5z3GmdSPSLhuEWbzha+Y2BJvvPEG999/P7t27Wr1yoQiIpcLhS4REREXjuc6dZaljocNG8awYcMAKCwsbPRBxq4SExPZsXP3eestOfA+OQF17dLG5mRnZ2OxWHjvvfcUukSky1LoEhERceF4gKen53RdiPMFLoDJkydTU1VB3b4NZH+9kz5TFmMwdMPQwx+73U7x/7yFadZtVOYcYf327Reh1SIiotAlIiJyGRkyZAjl5eXcfvvtHD9TwJmPnqLCVo4d8Pb2xmAwMCR/O2vfeYef/exnHd3cy151dXWLwrKIXN60eqGIiMhl6JVXXqG4qIhTJwsoLS2lrLQUq8VCSXExmzdvZu7clj1A+VJXXl5Obm6u27bbbruNNWvWtKpMa/3444/MmTOHoKAgTCYT9913HzU1NRdcn4hc2hS6REREXPj5+QFQWVnZwS2R9vDII48wZswYt21FRUVYLJZWlWmNgoICxo0bR0pKCjfccAMDBgzg6aef5vnnn2/R/kuWLOGBBx64oGOLSOek4YUiIiIuHAto+Pr6dnBLuqZvv/2WkJAQ+vXr12SZuro6DIbG/25cV1dHbW0t3bt3Jz09nby8PAoLC0lJSWHo0KFERESwZcsWvL29AVpUpil5eXlYLBaGDx9OZmYm4eHhBAQE4O/vz9KlS7nnnnuIiYnh22+/ZeTIkRQXF7foGmzYsAGbzdaisiJyaVBPl4iIiHhMfHw8QUFBLVq50G63Ex8fz8yZM+nfvz9Go5GHHnrI+f7Ro0eZNWsWPXv2JDIykj/+8Y8ArFixgl/+8pesWrUKk8mE2Wxm7969xMbGsnnzZgASEhKYOHEilZWV9OvXj2effZaDBw+etwzgnCNnNBqJjo7m7bffBmDlypUkJiYSHx/PoEGDMJvN5OTkEBgYyNNPP01MTAw2m43f/va3AMyYMaP9LqyIXFIUukRERMRjJk+eTGFhIQsWLDhvWS8vL0pLSzly5Agmk4l+/fqxdu1aPv30U/Lz84mPj2f//v2sXLmSwMBAnnnmGex2O9988w0vv/wyH330EVOmTOHEiRMA7Nq1i/nz5wPw3HPP8e6771JcXMypU6coKChgzJgx5y0DcPfdd/Pqq68yYsQIvLy8uP3226murubs2bPk5uaSlpbGvffeS1FRETt37nSez+7duxk5ciQff/wxjz32mBYuEenCNLxQREREOo1evXoxevRoUlJSsFgs9O7dmy+//JJdu3Zx+vRptmzZwsKFC9mzZw9+fn54eXlRV1dHWFgYe/fuJTAwkIiICEaOHElgYCD79u0jOTmZmTNnMnDgQDIyMgDo2bMnAFOnTm22TE1NDR988AGLFi1i8+bNbN++ncTERHbv3k15eTkA69ev54YbbuDpp58mMzMTgE2bNrF06VLMZjM7duwgISGhVdchJyfH+fgCEbn0qadLREREOg1/f3/nXKpu3brh5eXFyZMnOXnyJAaDgcTERAD69OnjDD0AZrOZsLAwfH19eeKJJwgMDHTWBzjnSFVVVQHQo0cPt2M2Vebw4cOUlJQwduxYAAICApxtKy0tpV+/fixevNi5MmF5eTm1tbWsWLGCESNGsH///lYHrgULFjB06FCys7NbtZ+IdF7q6RIREZFOw8fHh5ycHHbs2MGWLVuw2+0sXLiQkpISXnjhBTZs2MD06dM5efIkOTk5511lslu3+p861dXVbq9dl29vrszAgQPx8/Pj9ddf58orr+TJJ58kJCSE+Ph4ysvLiYyMxNvbm+DgYLy9vcnPz+fQoUNYLBbi4uK4//77sdlshISEsHr1aqKjo897DRyrJh4/fhyz2dyayycinZRCl4iI9kfhGwAADG9JREFUiAfk5uYyZMgQgoOD8fLyoqqqCpPJxNq1a1v9jKw//elP1NTU8Ic//KHd2ldSUsLjjz/O4cOHmTRpEr/4xS8YMmRIu9XvkJyczJ133snWrVuZOnXqect7eXnx3XffMWvWLABmz57NNddcQ1VVFQkJCaxYsYK6ujpnT9eHH37o1mt1Lscqh1dccQUAoaGhzpDUkjIBAQG89NJLrF69mrlz52IwGHj22Wfp1q0bRqPR2TtmMBgYPnw4RUVFhIWFYTKZ2LdvH0eOHMHLy4szZ84QGhrarp+hiFw6FLpEREQ86KeffsLHx4e6ujrWrVvHsmXLyMrKcvamdJRFixbRp08fHnvsMdLS0pgyZQqZmZnO4XPtJT09HYvFwu7du1sUuux2O6NHj2bNmjUYjUbGjRuHl5cXvr6+7NixgxMnTpCRkcHVV1/N119/zYgRIxg2bFiT9d1yyy2MGDHCOT+qb9++FBQUEBoa2uIySUlJ3HTTTezZs8e5SiHUz9ty7THbtm0bFosFk8lETk5O6y/WvzmGFUZFRV1wHSLSuWhOl4iIyEVgMBiYNGmS83VGRga33norzz//vHOeUkpKCuPGjcNoNHLzzTdz6tSpBvX88MMPzJ49myNHjgDwz3/+k4kTJxIbG8tf/vIX7HY7ALNmzWLbtm1MmDDBuQqfQ3l5OQcOHODVV19lwoQJLFu2DKPRyCeffOKp028xu91O7969ufbaa5kwYUKD53GFh4czZcoUunfvzlVXXUWvXr0YPnw4w4cPb7S+nj17Eh8f77bNNXC1tIyPjw8JCQluw/3Cw8PdFrswmUxceeWVLT/ZJmRlZQFoaKHIZUQ9XSIiIi4cPRQRERHtUt+bb75Jt27dKC4uZuPGjdxzzz1069YNm83Gtm3bKCgoYPXq1eTm5nLLLbfwxhtvEBsby6OPPsry5cvZunWrs668vDyuu+46HnnkEYYPH84XX3zBb37zG9avX8+wYcO4/fbbCQgIYMWKFRw6dIjHH3+cu+66i969e7u1ycfHh9TUVPz8/AA4ceIEOTk5TJw4sV3OuS18fHz0YGqRy4TjO8bx0PmuTKFLRETEhWOOjuPHQlvt3LkTg8FARUUFpaWlpKenU1dXB0BlZSWbNm0iJCSEdevWMXHiRKZPnw7AQw89RExMDKWlpQAUFRUxb948li9fzqJFiwB46aWXSEpK4tprrwVg9erVrF+/nhUrVgDwwAMPMG/ePMrKyvjuu+8ACAwMJCYmxtmLkpaWxuLFi1myZAlGo7FdzrktNm3a5Fx5UEQubY4/XrVluO3lQqFLRETEg15++WV8fHyA+kA3adIk9u7dS69evTCbzYSEhAD1Q8rGjRvn3C8sLIyAgAAKCwsBeOWVVzCbzc5nSAEcO3aMbdu28frrrwNQW1vr1qs1ZswYAFJTU52Ld8ybN4+33noLgCeeeIJnnnmGtWvXsnjxYo+cf3p6OgBxcXEtKu96DbqqJUuWtFtPq0hH8/X1pbKykqKiIvr06dPRzekwCl0iIiIXib+/P1FRUXzzzTdcffXVbu8NGzbMOU8LID8/H39/f2JiYgC4+eabefjhhxk7diy33nor48aNIzAwkIceesjZs1VdXe3sGXM1efLkBtufeuoptm3bxldffUV4eHh7n6qT1WoFcFstUJq3YcMGZ4+ryKUuIiKCzMzMLh+6tJCGiIiIi6KiIgBnD1Rb2Ww2bDYbhYWF/O1vf+Pzzz9n9uzZDcrNmTOHnTt3cvz4cQA+/PBDpk2bhpeXF1C/SENkZCSrVq3ivvvuo66ujilTpvD+++9TVlZGTU0N999/f4uWJC8rK+PPf/4zL7zwAkFBQc42uq7E116SkpIICgpS6BLpohzfpadPn+7glnQs9XSJiIi4aO/Q5Rgm1r17dwYNGsSLL77IgAEDSEtLcys3YMAApk2bRmxsLHFxcZw8eZJ//OMfDepbvXo1Gzdu5LXXXuNXv/oVe/bsYejQofj7+xMZGcmbb7553jYdOHCA8vJyRo8e7bb9+eefb/dhhklJSdxxxx0NViEUka7B8V3q+G7tqrzsjrVlRUREhCeffJKMjAzuvvtuBg4ceNGPX1BQgNVqZeDAgXh7e7don+zsbKqqqhg8eLCHW3dhfH19FbpawWKxcOLECS0ZL5eFr776irfeeovY2Fjuuuuujm5Oh1FPl4iISCdiNBpbvYqgfpzXs1gsHDp0yG2b2WwmOjq62XKNlbnYsrKyyM7OJisrizVr1lBSUkJ+fn6HtkmkPTh6urr6svEKXSIiIi7ae3ihwKOPPsrGjRvdgk1cXBzBwcFER0ezZMkSt/JpaWm8//77DepJS0sjOjqap556ym370qVL+fvf/97k8Wtra91eL1iwgE8//bTRsnFxcaSmprpt27BhQ6P1Z2VlER0dza5du9y2r1mzxlm/4zyhfjGRKVOmNFjJcfTo0Q2Gm4pcLhxDrHNzczu4JR1LoUtERMSFQlf7O3jwIFlZWWRlZTm37d692/n/586d61zVzG63c88997Bnz54m6/v9739PcHAwdruduro65wIggYGBxMbGupWNioqisrLSbdvcuXOdz0qD+uGZjgVMjh07RmVlpXMBE6hf6dGx9P25iouLG6w0uHXrVmd51/N0qK6uxm63O/9nMpk4duwYsbGxREVFkZ6e7lz1UeRS53jmYVdfkVNzukRERFwsX74coEFvirTNuUHi0KFDWK1WzGYzSUlJbmWTk5MbDTmjRo3CbDYzatQoj7fXlWsocxUVFdXo0E6r1epsv+M8HfWYzWYefPBBzzZYpJNZt24d+fn5/PrXv+60c089TT1dIiIi4nHnBqXJkyc3WXb+/PnMnz/f001qMbPZ3Kp5c0FBQc7za+48RboKR2+zo9erK9JSQiIiIi5MJhMAeXl5HdwSEZHLQ3FxMQCRkZEd3JKOo9AlIiLiwt/fH9BKWyIi0n4UukRERERERDxIoUtERMSFYxU9DS8UEWm7H3/8EfjP0O2uSqFLRETEhSN0aXihiEj7cQzd7qoUukRERERERDxIoUtERMSFo6fLsdqWSGeVmZmpYbDS6TlGDXTl5eJBz+kSERFxExoaCtT/oN2+fXujZSoqKpr8sevn50dERESD7Xl5eQ2GLBYXFzcZ7iIiIpw/UkJCQggJCXG+N3DgwPOfSBMc8yvO1dg5Nde+tmhL+8H92jRVp6+vb6Ofw7kqKirIz893O3/HNWrqWjXH9bNyvReaui+a4nrtXe+d5trkuC6ONrT2mK51t3bfzuDce/jcfzeuXO+PvLw853OkoPH7vjX3guNedL2GvXv3brItxcXFlJSUOI/rOA/Hfx31nfv5tvQeb4vMzEzA/do2dW+eT1deLh7Ay2632zu6ESIiIp1FSkoKb7/9dkc3QzzE8QPWU4HyYho8eDA2m43c3NyOboq0giM8tSawnM/AgQOb/WNQZzBv3rxO9dDzi02hS0RExIXNZiMlJaXZMv7+/k3+1dZms5GTk9Nge2RkZIOJ5H369HEOZzxXTk6O8wfZ6dOnKSoqAur/4txY/S01ePDgJt8bMmRIi9vXFhkZGW3aPycnB5vN5nzd2DVpaRjx8/NzfpaOa+O4DiaTqdWT/4uKipyfVVs+N9dr73rvNNcmx3V1HLe1x3S9N9p6n3UE188S3D+Lc7neH+de08bu+3P/bTTn+++/b3B813/P53Icz9F+1+8Xk8nkbOe59V6MwO24J1yvrWv7WvId4fhOnTFjRpdeTEOhS0RERLoMRzA59we6yMXiuAcvJNQ3V6fu6c5NoUtERERERMSDtHqhiIiIiIiIByl0iYiIiIiIeJBCl4iIiIiIiAcpdImIiIiIiHiQQpeIiIiIiIgHKXSJiIiIiIh4kEKXiIiIiIiIByl0iYiIiIiIeJBCl4iIiIiIiAcpdImIiIiIiHiQQpeIiIiIiIgHKXSJiIiIiIh4kEKXiIiIiIiIByl0iYiIiIiIeJBCl4iIiIiIiAcpdImIiIiIiHiQQpeIiIiIiIgHKXSJiIiIiIh4kEKXiIiIiIiIByl0iYiIiIiIeJBCl4iIiIiIiAcpdImIiIiIiHiQQpeIiIiIiIgHKXSJiIiIiIh4kEKXiIiIiIiIByl0iYiIiIiIeJBCl4iIiIiIiAcpdImIiIiIiHiQQpeIiIiIiIgHKXSJiIiIiIh4kEKXiIiIiIiIByl0iYiIiIiIeJBCl4iIiIiIiAcpdImIiIiIiHjQ/wIiS2S8qs1PPgAAAABJRU5ErkJggg==;" vertex="1" parent="1">
          <mxGeometry x="40" y="280" width="861" height="656" as="geometry" />
        </mxCell>
        <mxCell id="DFfBJEe4F_XPDWJP51UQ-17" value="&lt;h1&gt;二、Kafka基础架构&lt;/h1&gt;&lt;div&gt;&lt;br&gt;&lt;/div&gt;" style="text;html=1;strokeColor=none;fillColor=none;spacing=5;spacingTop=-20;whiteSpace=wrap;overflow=hidden;rounded=0;fontColor=#46495D;" vertex="1" parent="1">
          <mxGeometry x="40" y="210" width="280" height="50" as="geometry" />
        </mxCell>
      </root>
    </mxGraphModel>
  </diagram>
</mxfile>
